M48
;Layer_Color=9474304
;FILE_FORMAT=4:4
METRIC,LZ
;TYPE=PLATED
T01F00S00C0.7112
T02F00S00C0.7620
T03F00S00C0.9906
T04F00S00C2.2000
%
T01
X0041402Y0073914
X0041783Y0077597
X0040132Y0077343
X0043942Y00762
X0044577Y0078232
X00457066Y00748046
X00461037Y00727683
X0044831Y0071628
X00479499Y00737817
X0049657Y007747
X00529842Y00774597
X0055626Y0078994
X0057785Y007493
Y0072136
X0063881
X0064008Y0068072
X00380815Y0073279
X0035687Y0074803
X00352928Y00775971
X0035306Y0079121
X0029845Y00792018
X00283066Y00773286
X0031115Y00762
X00304165Y00744855
X002921Y0073279
X0026924Y0074549
X0004953Y0072898
X0003175Y009652
X0018288Y00941324
X0027686Y0092583
X00274493Y00883747
X002654Y00847258
X00228859Y0084836
X00232529Y00809454
X0037592Y00867046
X0036576Y0087884
X00356004Y00890548
X00366953Y00906545
X00354326Y00933484
X0034925Y0096647
X0043307Y0095504
X0041656Y0092329
X00408303Y00901933
X0041402Y0084836
X0040259Y0081788
X0046736
X00470801Y00836163
X0047117Y0086233
X0045593Y0085852
X0049149Y0086614
X0050038Y0084836
X0053416Y00842691
X0052324Y0082169
X00570156Y00827451
X00566403Y00842222
X00565843Y00859531
X00564377Y0090805
X00538401Y00913529
X00545336Y009271
X00565656Y0094234
X0057277Y009652
X0060198Y0096139
X0063119Y0095504
X0064262Y0090932
X00616022Y00911687
X00593251Y0091821
X0060833Y0088773
X0063754Y0086233
X0065532Y0087376
X0057912Y008128
X0051689Y0089027
X0049911Y00891098
X00508891Y00948184
X00499489Y00964594
X0046101Y00922028
T02
X000175Y0001306
Y0005806
Y0011116
Y0015616
Y0020926
Y0025426
Y0030736
Y0035236
X000825Y0035236
Y0030736
Y0025426
Y0020926
Y0015616
Y0011116
Y0005806
Y0001306
X001675
Y0005806
Y0011116
Y0015616
Y0020926
Y0025426
Y0030736
Y0035236
X002325Y0035236
Y0030736
Y0025426
Y0020926
Y0015616
Y0011116
Y0005806
Y0001306
X003175
Y0005806
Y0011116
Y0015616
Y0020926
Y0025426
Y0030736
Y0035236
X003825Y0035236
Y0030736
Y0025426
Y0020926
Y0015616
Y0011116
Y0005806
Y0001306
X004675
Y0005806
Y0011116
Y0015616
Y0020926
Y0025426
Y0030736
Y0035236
X005325Y0035236
Y0030736
Y0025426
Y0020926
Y0015616
Y0011116
Y0005806
Y0001306
X006175
Y0005806
Y0011116
Y0015616
Y0020926
Y0025426
Y0030736
Y0035236
X006825Y0035236
Y0030736
Y0025426
Y0020926
Y0015616
Y0011116
Y0005806
Y0001306
Y0040546
Y0045046
Y0050356
Y0054856
Y0060166
Y0064666
X006175Y0064666
Y0060166
Y0054856
Y0050356
Y0045046
Y0040546
X005625
Y0045046
Y0050356
Y0054856
Y0060166
Y0064666
X0056261Y0070104
X0058801
X0053721
X0051181
X0048641
X0046101
X0043561
X0041021
X004425Y0064666
Y0060166
Y0054856
Y0050356
Y0045046
Y0040546
X004975
Y0045046
Y0050356
Y0054856
Y0060166
Y0064666
X0056261Y0077089
X00635Y0077343
X006604
X0038481Y0070104
X0035941
X0033401
X0030861
X0028321
X0025781
X0023241
X0020701
X0018161
X0015621
X0013081
X0010541
X000825Y0064666
Y0060166
Y0054856
Y0050356
X001375
Y0054856
Y0060166
Y0064666
X002025Y0064666
Y0060166
Y0054856
Y0050356
X002575
Y0054856
Y0060166
Y0064666
X003225Y0064666
Y0060166
Y0054856
Y0050356
Y0045046
Y0040546
X003775
Y0045046
Y0050356
Y0054856
Y0060166
Y0064666
X002575Y0045046
Y0040546
X001425
Y0045046
X000775Y0045046
Y0040546
X000175Y0050356
Y0054856
Y0060166
Y0064666
X0010586Y0098044
X0013126
X0056216
X0058756
X00635Y0082423
Y0079883
X006604
Y0082423
T03
X00076202Y0074436
X00107202
Y0095236
X00076202
T04
X0067Y007
X0003
M30
