M48
;Layer_Color=9474304
;FILE_FORMAT=4:4
METRIC,LZ
;TYPE=PLATED
T01F00S00C0.7112
T02F00S00C0.7620
T03F00S00C0.9906
%
T01
X00461037Y00727683
X0045593Y007493
X00479499Y00737817
X0057785Y007493
Y0072136
X0029845Y0073279
X0026924Y0074549
X00283066Y00773286
X0029845Y007874
X00232529Y00809454
X00201943Y00810247
X00228859Y0084836
X002654Y00847258
X00274493Y00883747
X0021844Y0094234
X0034201Y00971493
X003683Y0090551
X0040894Y0090297
X0041783Y0092075
X0043307Y0095504
X0051562Y009398
X0054102Y009144
X0051308Y0089154
X00519404Y00811622
X0058039Y0081153
X00570156Y00827451
X00566403Y00842222
X0059055Y0092329
Y0094361
X0063119Y0095504
X0040005Y0087249
X0041402Y0084836
X0040894Y0080899
T02
X00016002Y0001397
X00017272Y0005715
X00016002Y0011207
X00017272Y0015525
X00016002Y0021017
X00017272Y0025335
X00016002Y0030827
X00017272Y0035145
X00093472
X00094742Y0030827
X00093472Y0025335
X00094742Y0021017
X00093472Y0015525
X00094742Y0011207
X00093472Y0005715
X00094742Y0001397
X00163462
X00164732Y0005715
X00163462Y0011207
X00164732Y0015525
X00163462Y0021017
X00164732Y0025335
X00163462Y0030827
X00164732Y0035145
X00240932
X00242202Y0030827
X00240932Y0025335
X00242202Y0021017
X00240932Y0015525
X00242202Y0011207
X00240932Y0005715
X00242202Y0001397
X00310922
X00312192Y0005715
X00310922Y0011207
X00312192Y0015525
X00310922Y0021017
X00312192Y0025335
X00310922Y0030827
X00312192Y0035145
X00388392
X00389662Y0030827
X00388392Y0025335
X00389662Y0021017
X00388392Y0015525
X00389662Y0011207
X00388392Y0005715
X00389662Y0001397
X00458382
X00459652Y0005715
X00458382Y0011207
X00459652Y0015525
X00458382Y0021017
X00459652Y0025335
X00458382Y0030827
X00459652Y0035145
X00535852
X00537122Y0030827
X00535852Y0025335
X00537122Y0021017
X00535852Y0015525
X00537122Y0011207
X00535852Y0005715
X00537122Y0001397
X00605842
X00607112Y0005715
X00605842Y0011207
X00607112Y0015525
X00605842Y0021017
X00607112Y0025335
X00605842Y0030827
X00607112Y0035145
X00683312
X00684582Y0030827
X00683312Y0025335
X00684582Y0021017
X00683312Y0015525
X00684582Y0011207
X00683312Y0005715
X00684582Y0001397
X00685546Y0040637
X00684276Y0044955
X00686816Y0051054
X00685546Y0055372
X00686816Y0060864
X00685546Y0065182
X00609346
X00566674
X00567944Y0060864
X00608076
X00609346Y0055372
X00566674
X00567944Y0051054
X00608076
Y0044955
X00606806Y0040637
X00564134
X00562864Y0044955
X00486664
X00485394Y0040637
X00442722
X00441452Y0044955
X00449072Y0051054
X00489204
X00490474Y0055372
X00447802
X00449072Y0060864
X00489204
X00490474Y0065182
X00447802
X0043561Y0070104
X0046101
X0048641
X0051181
X0053721
X0056261
X0058801
X00635Y0077343
X006604
X0041021Y0070104
X0038481
X0035941
X0033401
X0030861
X0028321
X0025781
X0023241
X0020701
X0018161
X0015621
X0013081
X0010541
X00093726Y0065182
X00133858
X00132588Y0060864
X00094996
X00093726Y0055372
X00133858
X00132588Y0051054
X00094996
X00016256
X00017526Y0055372
X00016256Y0060864
X00017526Y0065182
X00210058
X0025273
X0025146Y0060864
X00211328
X00210058Y0055372
X0025273
X0025146Y0051054
X00211328
X0024384Y0044955
X0024257Y0040637
X0032131
X00363982
X00365252Y0044955
X0032004
X003302Y0051054
X00370332
X00371602Y0055372
X0032893
X003302Y0060864
X00370332
X00371602Y0065182
X0032893
X00141732Y0044955
X00143002Y0040637
X00064262
X00065532Y0044955
X0010586Y0098044
X0013126
X0056216
X0058756
X00635Y0082423
X006604
Y0079883
X00635
T03
X00076202Y0074436
X00107202
Y0095236
X00076202
M30
