G04*
G04 #@! TF.GenerationSoftware,Altium Limited,Altium Designer,24.7.2 (38)*
G04*
G04 Layer_Color=16711935*
%FSLAX44Y44*%
%MOMM*%
G71*
G04*
G04 #@! TF.SameCoordinates,966AE77D-DC0C-403A-A995-9434F704E8A8*
G04*
G04*
G04 #@! TF.FilePolarity,Negative*
G04*
G01*
G75*
%ADD20C,2.3114*%
%ADD21C,1.7272*%
%ADD22C,1.4732*%
%ADD23C,2.4032*%
%ADD30R,0.7620X0.8128*%
%ADD31R,0.7112X0.9398*%
%ADD32R,0.8000X0.6556*%
%ADD35R,0.8128X0.7620*%
%ADD36R,0.3048X1.1938*%
%ADD37R,1.1938X0.3048*%
%ADD42R,1.2192X4.3942*%
%ADD43R,0.9779X0.5588*%
%ADD44R,1.5240X0.5334*%
%ADD45R,0.8763X0.3048*%
%ADD46R,0.6000X0.4200*%
%ADD47O,0.6000X0.4200*%
G04:AMPARAMS|DCode=55|XSize=0.8032mm|YSize=0.7432mm|CornerRadius=0.2447mm|HoleSize=0mm|Usage=FLASHONLY|Rotation=0.000|XOffset=0mm|YOffset=0mm|HoleType=Round|Shape=RoundedRectangle|*
%AMROUNDEDRECTD55*
21,1,0.8032,0.2538,0,0,0.0*
21,1,0.3138,0.7432,0,0,0.0*
1,1,0.4894,0.1569,-0.1269*
1,1,0.4894,-0.1569,-0.1269*
1,1,0.4894,-0.1569,0.1269*
1,1,0.4894,0.1569,0.1269*
%
%ADD55ROUNDEDRECTD55*%
G04:AMPARAMS|DCode=56|XSize=0.8032mm|YSize=0.7432mm|CornerRadius=0.2447mm|HoleSize=0mm|Usage=FLASHONLY|Rotation=90.000|XOffset=0mm|YOffset=0mm|HoleType=Round|Shape=RoundedRectangle|*
%AMROUNDEDRECTD56*
21,1,0.8032,0.2538,0,0,90.0*
21,1,0.3138,0.7432,0,0,90.0*
1,1,0.4894,0.1269,0.1569*
1,1,0.4894,0.1269,-0.1569*
1,1,0.4894,-0.1269,-0.1569*
1,1,0.4894,-0.1269,0.1569*
%
%ADD56ROUNDEDRECTD56*%
%ADD57R,1.0932X1.1332*%
%ADD58R,1.5532X0.6032*%
%ADD59R,1.8032X2.3032*%
%ADD60R,2.1032X2.1032*%
%ADD61R,2.1032X2.0032*%
%ADD62R,1.1332X1.0932*%
D20*
X107202Y744360D02*
D03*
X76202D02*
D03*
X107202Y952360D02*
D03*
X76202D02*
D03*
D21*
X156210Y701040D02*
D03*
X588010D02*
D03*
X562610D02*
D03*
X537210D02*
D03*
X461010D02*
D03*
X435610D02*
D03*
X410210D02*
D03*
X384810D02*
D03*
X334010D02*
D03*
X308610D02*
D03*
X257810D02*
D03*
X283210D02*
D03*
X232410D02*
D03*
X207010D02*
D03*
X181610D02*
D03*
X105410D02*
D03*
X105860Y980440D02*
D03*
X131260D02*
D03*
X562160D02*
D03*
X587560D02*
D03*
X486410Y701040D02*
D03*
X511810D02*
D03*
X130810D02*
D03*
X359410D02*
D03*
X635000Y824230D02*
D03*
Y798830D02*
D03*
Y773430D02*
D03*
X660400Y824230D02*
D03*
Y798830D02*
D03*
Y773430D02*
D03*
X617500Y58060D02*
D03*
Y13060D02*
D03*
X682500Y58060D02*
D03*
Y13060D02*
D03*
X467500Y58060D02*
D03*
Y13060D02*
D03*
X532500Y58060D02*
D03*
Y13060D02*
D03*
X317500Y58060D02*
D03*
Y13060D02*
D03*
X382500Y58060D02*
D03*
Y13060D02*
D03*
X167500Y58060D02*
D03*
Y13060D02*
D03*
X232500Y58060D02*
D03*
Y13060D02*
D03*
X17500Y58060D02*
D03*
Y13060D02*
D03*
X82500Y58060D02*
D03*
Y13060D02*
D03*
X17500Y156160D02*
D03*
Y111160D02*
D03*
X82500Y156160D02*
D03*
Y111160D02*
D03*
X167500Y156160D02*
D03*
Y111160D02*
D03*
X232500Y156160D02*
D03*
Y111160D02*
D03*
X317500Y156160D02*
D03*
Y111160D02*
D03*
X382500Y156160D02*
D03*
Y111160D02*
D03*
X467500Y156160D02*
D03*
Y111160D02*
D03*
X532500Y156160D02*
D03*
Y111160D02*
D03*
X617500Y156160D02*
D03*
Y111160D02*
D03*
X682500Y156160D02*
D03*
Y111160D02*
D03*
X617500Y254260D02*
D03*
Y209260D02*
D03*
X682500Y254260D02*
D03*
Y209260D02*
D03*
X467500Y254260D02*
D03*
Y209260D02*
D03*
X532500Y254260D02*
D03*
Y209260D02*
D03*
X317500Y254260D02*
D03*
Y209260D02*
D03*
X382500Y254260D02*
D03*
Y209260D02*
D03*
X167500Y254260D02*
D03*
Y209260D02*
D03*
X232500Y254260D02*
D03*
Y209260D02*
D03*
X17500Y254260D02*
D03*
Y209260D02*
D03*
X82500Y254260D02*
D03*
Y209260D02*
D03*
X17500Y352360D02*
D03*
Y307360D02*
D03*
X82500Y352360D02*
D03*
Y307360D02*
D03*
X167500Y352360D02*
D03*
Y307360D02*
D03*
X232500Y352360D02*
D03*
Y307360D02*
D03*
X317500Y352360D02*
D03*
Y307360D02*
D03*
X382500Y352360D02*
D03*
Y307360D02*
D03*
X467500Y352360D02*
D03*
Y307360D02*
D03*
X532500Y352360D02*
D03*
Y307360D02*
D03*
X617500Y352360D02*
D03*
Y307360D02*
D03*
X682500Y352360D02*
D03*
Y307360D02*
D03*
X617500Y450460D02*
D03*
Y405460D02*
D03*
X682500Y450460D02*
D03*
Y405460D02*
D03*
X497500Y450460D02*
D03*
Y405460D02*
D03*
X562500Y450460D02*
D03*
Y405460D02*
D03*
X377500Y450460D02*
D03*
Y405460D02*
D03*
X442500Y450460D02*
D03*
Y405460D02*
D03*
X257500Y450460D02*
D03*
Y405460D02*
D03*
X322500Y450460D02*
D03*
Y405460D02*
D03*
X77500Y450460D02*
D03*
Y405460D02*
D03*
X142500Y450460D02*
D03*
Y405460D02*
D03*
X17500Y548560D02*
D03*
Y503560D02*
D03*
X82500Y548560D02*
D03*
Y503560D02*
D03*
X137500Y548560D02*
D03*
Y503560D02*
D03*
X202500Y548560D02*
D03*
Y503560D02*
D03*
X257500Y548560D02*
D03*
Y503560D02*
D03*
X322500Y548560D02*
D03*
Y503560D02*
D03*
X377500Y548560D02*
D03*
Y503560D02*
D03*
X442500Y548560D02*
D03*
Y503560D02*
D03*
X497500Y548560D02*
D03*
Y503560D02*
D03*
X562500Y548560D02*
D03*
Y503560D02*
D03*
X617500Y548560D02*
D03*
Y503560D02*
D03*
X682500Y548560D02*
D03*
Y503560D02*
D03*
X617500Y646660D02*
D03*
Y601660D02*
D03*
X682500Y646660D02*
D03*
Y601660D02*
D03*
X497500Y646660D02*
D03*
Y601660D02*
D03*
X562500Y646660D02*
D03*
Y601660D02*
D03*
X377500Y646660D02*
D03*
Y601660D02*
D03*
X442500Y646660D02*
D03*
Y601660D02*
D03*
X257500Y646660D02*
D03*
Y601660D02*
D03*
X322500Y646660D02*
D03*
Y601660D02*
D03*
X137500Y646660D02*
D03*
Y601660D02*
D03*
X202500Y646660D02*
D03*
Y601660D02*
D03*
X17500Y646660D02*
D03*
Y601660D02*
D03*
X82500Y646660D02*
D03*
Y601660D02*
D03*
X562610Y770890D02*
D03*
D22*
X545336Y927100D02*
D03*
X565656Y942340D02*
D03*
X538401Y913529D02*
D03*
X499489Y964594D02*
D03*
X593251Y918210D02*
D03*
X601980Y961390D02*
D03*
X416560Y923290D02*
D03*
X608330Y887730D02*
D03*
X380815Y732790D02*
D03*
X232529Y809454D02*
D03*
X182880Y941324D02*
D03*
X455930Y858520D02*
D03*
X534160Y842691D02*
D03*
X572770Y965200D02*
D03*
X375920Y867046D02*
D03*
X365760Y878840D02*
D03*
X356004Y890548D02*
D03*
X366953Y906545D02*
D03*
X616022Y911687D02*
D03*
X642620Y909320D02*
D03*
X631190Y955040D02*
D03*
X637540Y862330D02*
D03*
X565843Y859531D02*
D03*
X349250Y966470D02*
D03*
X448310Y716280D02*
D03*
X439420Y762000D02*
D03*
X479499Y737817D02*
D03*
X457066Y748046D02*
D03*
X445770Y782320D02*
D03*
X311150Y762000D02*
D03*
X523240Y821690D02*
D03*
X500380Y848360D02*
D03*
X31750Y965200D02*
D03*
X49530Y728980D02*
D03*
X276860Y925830D02*
D03*
X655320Y873760D02*
D03*
X579120Y812800D02*
D03*
X556260Y789940D02*
D03*
X356870Y748030D02*
D03*
X414020Y739140D02*
D03*
X402590Y817880D02*
D03*
X417830Y775970D02*
D03*
X401320Y773430D02*
D03*
X470801Y836163D02*
D03*
X353060Y791210D02*
D03*
X304165Y744855D02*
D03*
X292100Y732790D02*
D03*
X640080Y680720D02*
D03*
X638810Y721360D02*
D03*
X496570Y774700D02*
D03*
X467360Y817880D02*
D03*
X529842Y774597D02*
D03*
X352928Y775971D02*
D03*
X471170Y862330D02*
D03*
X491490Y866140D02*
D03*
X564377Y908050D02*
D03*
X516890Y890270D02*
D03*
X499110Y891098D02*
D03*
X577850Y749300D02*
D03*
Y721360D02*
D03*
X298450Y792018D02*
D03*
X461010Y922028D02*
D03*
X570156Y827451D02*
D03*
X566403Y842222D02*
D03*
X508891Y948184D02*
D03*
X408303Y901933D02*
D03*
X354326Y933484D02*
D03*
X433070Y955040D02*
D03*
X461037Y727683D02*
D03*
X414020Y848360D02*
D03*
X265400Y847258D02*
D03*
X228859Y848360D02*
D03*
X274493Y883747D02*
D03*
X283066Y773286D02*
D03*
X269240Y745490D02*
D03*
D23*
X30000Y700000D02*
D03*
X670000D02*
D03*
D30*
X659003Y988060D02*
D03*
X674497D02*
D03*
D31*
X643890D02*
D03*
X629920D02*
D03*
D32*
X396240Y864258D02*
D03*
Y847702D02*
D03*
X285750Y812754D02*
D03*
Y829310D02*
D03*
Y861718D02*
D03*
Y845162D02*
D03*
D35*
X332740Y736473D02*
D03*
Y751967D02*
D03*
D36*
X454340Y792170D02*
D03*
X459340D02*
D03*
X464340D02*
D03*
X469340D02*
D03*
X474340D02*
D03*
X479340D02*
D03*
X484340D02*
D03*
X489340D02*
D03*
X494340D02*
D03*
X499340D02*
D03*
X504340D02*
D03*
X509340D02*
D03*
X514340D02*
D03*
X519340D02*
D03*
X524340D02*
D03*
X529340D02*
D03*
Y907170D02*
D03*
X524340D02*
D03*
X519340D02*
D03*
X514340D02*
D03*
X509340D02*
D03*
X504340D02*
D03*
X499340D02*
D03*
X494340D02*
D03*
X489340D02*
D03*
X484340D02*
D03*
X479340D02*
D03*
X474340D02*
D03*
X469340D02*
D03*
X464340D02*
D03*
X459340D02*
D03*
X454340D02*
D03*
D37*
X549340Y812170D02*
D03*
Y817170D02*
D03*
Y822170D02*
D03*
Y827170D02*
D03*
Y832170D02*
D03*
Y837170D02*
D03*
Y842170D02*
D03*
Y847170D02*
D03*
Y852170D02*
D03*
Y857170D02*
D03*
Y862170D02*
D03*
Y867170D02*
D03*
Y872170D02*
D03*
Y877170D02*
D03*
Y882170D02*
D03*
Y887170D02*
D03*
X434340D02*
D03*
Y882170D02*
D03*
Y877170D02*
D03*
Y872170D02*
D03*
Y867170D02*
D03*
Y862170D02*
D03*
Y857170D02*
D03*
Y852170D02*
D03*
Y847170D02*
D03*
Y842170D02*
D03*
Y837170D02*
D03*
Y832170D02*
D03*
Y827170D02*
D03*
Y822170D02*
D03*
Y817170D02*
D03*
Y812170D02*
D03*
D42*
X327660Y788543D02*
D03*
Y882777D02*
D03*
D43*
X607695Y922680D02*
D03*
Y932180D02*
D03*
Y941680D02*
D03*
X635000D02*
D03*
Y932180D02*
D03*
Y922680D02*
D03*
D44*
X398399Y928370D02*
D03*
Y941070D02*
D03*
Y953770D02*
D03*
Y966470D02*
D03*
X325501D02*
D03*
Y953770D02*
D03*
Y941070D02*
D03*
Y928370D02*
D03*
D45*
X272733Y788520D02*
D03*
Y801520D02*
D03*
X250508D02*
D03*
Y795020D02*
D03*
Y788520D02*
D03*
X244475Y891540D02*
D03*
Y904540D02*
D03*
X222250D02*
D03*
Y898040D02*
D03*
Y891540D02*
D03*
D46*
X213970Y842160D02*
D03*
D47*
Y835660D02*
D03*
Y829160D02*
D03*
X194970D02*
D03*
Y835660D02*
D03*
Y842160D02*
D03*
D55*
X415290Y865650D02*
D03*
Y874250D02*
D03*
X430530Y783100D02*
D03*
Y791700D02*
D03*
X566420Y803420D02*
D03*
Y812020D02*
D03*
D56*
X578340Y930910D02*
D03*
X569740D02*
D03*
X532620Y929640D02*
D03*
X524020D02*
D03*
D57*
X351710Y680800D02*
D03*
X367110D02*
D03*
X313610Y681990D02*
D03*
X329010D02*
D03*
X304880Y717550D02*
D03*
X289480D02*
D03*
X217708Y792098D02*
D03*
X233109D02*
D03*
X265510Y772160D02*
D03*
X250110D02*
D03*
X260270Y676910D02*
D03*
X275670D02*
D03*
X228680Y716280D02*
D03*
X213280D02*
D03*
X172640Y678180D02*
D03*
X188040D02*
D03*
X152240Y717550D02*
D03*
X167640D02*
D03*
X134780D02*
D03*
X119380D02*
D03*
X153830Y678180D02*
D03*
X138430D02*
D03*
D58*
X659050Y932080D02*
D03*
Y938580D02*
D03*
Y925580D02*
D03*
Y945080D02*
D03*
Y919080D02*
D03*
D59*
X660300Y963080D02*
D03*
Y901080D02*
D03*
D60*
X685800Y944080D02*
D03*
Y920080D02*
D03*
D61*
Y970080D02*
D03*
Y894080D02*
D03*
D62*
X208280Y880110D02*
D03*
Y864710D02*
D03*
X258614Y879252D02*
D03*
Y863852D02*
D03*
M02*
