G04*
G04 #@! TF.GenerationSoftware,Altium Limited,Altium Designer,24.6.1 (21)*
G04*
G04 Layer_Color=128*
%FSLAX44Y44*%
%MOMM*%
G71*
G04*
G04 #@! TF.SameCoordinates,5BE53EBA-B956-4ED2-84AC-37ABD98E17FE*
G04*
G04*
G04 #@! TF.FilePolarity,Positive*
G04*
G01*
G75*
%ADD18R,1.1938X0.3048*%
%ADD19R,0.3048X1.1938*%
%ADD20O,0.6000X0.4200*%
%ADD21R,0.6000X0.4200*%
G04:AMPARAMS|DCode=22|XSize=0.6mm|YSize=0.54mm|CornerRadius=0.1431mm|HoleSize=0mm|Usage=FLASHONLY|Rotation=0.000|XOffset=0mm|YOffset=0mm|HoleType=Round|Shape=RoundedRectangle|*
%AMROUNDEDRECTD22*
21,1,0.6000,0.2538,0,0,0.0*
21,1,0.3138,0.5400,0,0,0.0*
1,1,0.2862,0.1569,-0.1269*
1,1,0.2862,-0.1569,-0.1269*
1,1,0.2862,-0.1569,0.1269*
1,1,0.2862,0.1569,0.1269*
%
%ADD22ROUNDEDRECTD22*%
G04:AMPARAMS|DCode=23|XSize=0.6mm|YSize=0.54mm|CornerRadius=0.1431mm|HoleSize=0mm|Usage=FLASHONLY|Rotation=270.000|XOffset=0mm|YOffset=0mm|HoleType=Round|Shape=RoundedRectangle|*
%AMROUNDEDRECTD23*
21,1,0.6000,0.2538,0,0,270.0*
21,1,0.3138,0.5400,0,0,270.0*
1,1,0.2862,-0.1269,-0.1569*
1,1,0.2862,-0.1269,0.1569*
1,1,0.2862,0.1269,0.1569*
1,1,0.2862,0.1269,-0.1569*
%
%ADD23ROUNDEDRECTD23*%
%ADD25R,0.5080X0.6604*%
%ADD26R,0.3800X0.4000*%
%ADD27R,2.1000X5.6000*%
%ADD28R,1.5240X0.5334*%
%ADD29R,0.8900X0.9300*%
%ADD30R,0.8763X0.3048*%
%ADD31R,0.9300X0.8900*%
%ADD32R,1.3500X0.4000*%
%ADD33R,1.6000X2.1000*%
%ADD34R,1.9000X1.9000*%
%ADD35R,1.9000X1.8000*%
%ADD36R,0.9779X0.5588*%
D18*
X434340Y812170D02*
D03*
Y817170D02*
D03*
Y822170D02*
D03*
Y827170D02*
D03*
Y832170D02*
D03*
Y837170D02*
D03*
Y842170D02*
D03*
Y847170D02*
D03*
Y852170D02*
D03*
Y857170D02*
D03*
Y862170D02*
D03*
Y867170D02*
D03*
Y872170D02*
D03*
Y877170D02*
D03*
Y882170D02*
D03*
Y887170D02*
D03*
X549340D02*
D03*
Y882170D02*
D03*
Y877170D02*
D03*
Y872170D02*
D03*
Y867170D02*
D03*
Y862170D02*
D03*
Y857170D02*
D03*
Y852170D02*
D03*
Y847170D02*
D03*
Y842170D02*
D03*
Y837170D02*
D03*
Y832170D02*
D03*
Y827170D02*
D03*
Y822170D02*
D03*
Y817170D02*
D03*
Y812170D02*
D03*
D19*
X454340Y907170D02*
D03*
X459340D02*
D03*
X464340D02*
D03*
X469340D02*
D03*
X474340D02*
D03*
X479340D02*
D03*
X484340D02*
D03*
X489340D02*
D03*
X494340D02*
D03*
X499340D02*
D03*
X504340D02*
D03*
X509340D02*
D03*
X514340D02*
D03*
X519340D02*
D03*
X524340D02*
D03*
X529340D02*
D03*
Y792170D02*
D03*
X524340D02*
D03*
X519340D02*
D03*
X514340D02*
D03*
X509340D02*
D03*
X504340D02*
D03*
X499340D02*
D03*
X494340D02*
D03*
X489340D02*
D03*
X484340D02*
D03*
X479340D02*
D03*
X474340D02*
D03*
X469340D02*
D03*
X464340D02*
D03*
X459340D02*
D03*
X454340D02*
D03*
D20*
X194970Y842160D02*
D03*
Y835660D02*
D03*
Y829160D02*
D03*
X213970D02*
D03*
Y835660D02*
D03*
D21*
Y842160D02*
D03*
D22*
X430530Y791700D02*
D03*
Y783100D02*
D03*
X415290Y874250D02*
D03*
Y865650D02*
D03*
X566420Y803420D02*
D03*
Y812020D02*
D03*
D23*
X532620Y929640D02*
D03*
X524020D02*
D03*
D25*
X391160Y760730D02*
D03*
Y771906D02*
D03*
D26*
X299990Y858520D02*
D03*
X294370D02*
D03*
X310150Y760730D02*
D03*
X304530D02*
D03*
D27*
X332740Y873000D02*
D03*
Y778000D02*
D03*
D28*
X325501Y928370D02*
D03*
Y941070D02*
D03*
Y953770D02*
D03*
Y966470D02*
D03*
X398399D02*
D03*
Y953770D02*
D03*
Y941070D02*
D03*
Y928370D02*
D03*
D29*
X265510Y772160D02*
D03*
X250110D02*
D03*
X233109Y792098D02*
D03*
X217708D02*
D03*
X260270Y676910D02*
D03*
X275670D02*
D03*
X350520Y680720D02*
D03*
X335120D02*
D03*
X289480Y717550D02*
D03*
X304880D02*
D03*
X228680Y716280D02*
D03*
X213280D02*
D03*
X172640Y678180D02*
D03*
X188040D02*
D03*
X152240Y717550D02*
D03*
X167640D02*
D03*
X134780D02*
D03*
X119380D02*
D03*
X153830Y678180D02*
D03*
X138430D02*
D03*
D30*
X250508Y788520D02*
D03*
Y795020D02*
D03*
Y801520D02*
D03*
X272733D02*
D03*
Y788520D02*
D03*
X222250Y891540D02*
D03*
Y898040D02*
D03*
Y904540D02*
D03*
X244475D02*
D03*
Y891540D02*
D03*
D31*
X258614Y879252D02*
D03*
Y863852D02*
D03*
X208280Y864710D02*
D03*
Y880110D02*
D03*
D32*
X659050Y932080D02*
D03*
Y938580D02*
D03*
Y925580D02*
D03*
Y945080D02*
D03*
Y919080D02*
D03*
D33*
X660300Y963080D02*
D03*
Y901080D02*
D03*
D34*
X685800Y944080D02*
D03*
Y920080D02*
D03*
D35*
Y970080D02*
D03*
Y894080D02*
D03*
D36*
X636270Y923290D02*
D03*
Y932790D02*
D03*
Y942290D02*
D03*
X608965D02*
D03*
Y932790D02*
D03*
Y923290D02*
D03*
M02*
