G04*
G04 #@! TF.GenerationSoftware,Altium Limited,Altium Designer,24.6.1 (21)*
G04*
G04 Layer_Color=32896*
%FSLAX44Y44*%
%MOMM*%
G71*
G04*
G04 #@! TF.SameCoordinates,5BE53EBA-B956-4ED2-84AC-37ABD98E17FE*
G04*
G04*
G04 #@! TF.FilePolarity,Positive*
G04*
G01*
G75*
%ADD11C,0.2540*%
%ADD55C,0.1524*%
%ADD56C,0.2000*%
%ADD57C,0.1270*%
%ADD58C,0.0762*%
G36*
X476245Y783661D02*
X472435D01*
Y781121D01*
X476245D01*
Y783661D01*
D02*
G37*
G36*
X425831Y855265D02*
X423291D01*
Y859075D01*
X425831D01*
Y855265D01*
D02*
G37*
G36*
X471245Y915679D02*
X467435D01*
Y918219D01*
X471245D01*
Y915679D01*
D02*
G37*
G36*
X526245Y783661D02*
X522435D01*
Y781121D01*
X526245D01*
Y783661D01*
D02*
G37*
G36*
X557849Y850265D02*
X560389D01*
Y854075D01*
X557849D01*
Y850265D01*
D02*
G37*
G36*
X521245Y915679D02*
X517435D01*
Y918219D01*
X521245D01*
Y915679D01*
D02*
G37*
D11*
X644147Y855721D02*
X649226D01*
X646686D01*
Y843025D01*
X649226Y840486D01*
X651765D01*
X654304Y843025D01*
X628912Y840486D02*
X639069D01*
X628912Y850643D01*
Y853182D01*
X631451Y855721D01*
X636530D01*
X639069Y853182D01*
X584037Y891072D02*
X571341D01*
X568802Y893611D01*
Y898689D01*
X571341Y901229D01*
X584037D01*
X568802Y916464D02*
Y906307D01*
X578959Y916464D01*
X581498D01*
X584037Y913925D01*
Y908846D01*
X581498Y906307D01*
X216662Y872739D02*
Y860043D01*
X214123Y857504D01*
X209044D01*
X206505Y860043D01*
Y872739D01*
X191270D02*
X201427D01*
Y865122D01*
X196349Y867661D01*
X193809D01*
X191270Y865122D01*
Y860043D01*
X193809Y857504D01*
X198888D01*
X201427Y860043D01*
X22860Y990087D02*
Y974852D01*
X15243D01*
X12703Y977391D01*
Y979930D01*
X15243Y982469D01*
X22860D01*
X15243D01*
X12703Y985009D01*
Y987548D01*
X15243Y990087D01*
X22860D01*
X7625Y974852D02*
X2547D01*
X5086D01*
Y990087D01*
X7625Y987548D01*
X413258Y786130D02*
Y801365D01*
X405640D01*
X403101Y798826D01*
Y793747D01*
X405640Y791208D01*
X413258D01*
X408180D02*
X403101Y786130D01*
X387866D02*
X398023D01*
X387866Y796287D01*
Y798826D01*
X390405Y801365D01*
X395484D01*
X398023Y798826D01*
X270507Y760728D02*
X273046Y763268D01*
X278124D01*
X280663Y760728D01*
Y750572D01*
X278124Y748033D01*
X273046D01*
X270507Y750572D01*
X255272Y748033D02*
X265428D01*
X255272Y758189D01*
Y760728D01*
X257811Y763268D01*
X262889D01*
X265428Y760728D01*
X250193D02*
X247654Y763268D01*
X242576D01*
X240037Y760728D01*
Y750572D01*
X242576Y748033D01*
X247654D01*
X250193Y750572D01*
Y760728D01*
X241049Y819908D02*
X243589Y822447D01*
X248667D01*
X251206Y819908D01*
Y809751D01*
X248667Y807212D01*
X243589D01*
X241049Y809751D01*
X235971Y807212D02*
X230893D01*
X233432D01*
Y822447D01*
X235971Y819908D01*
X223275Y809751D02*
X220736Y807212D01*
X215658D01*
X213118Y809751D01*
Y819908D01*
X215658Y822447D01*
X220736D01*
X223275Y819908D01*
Y817369D01*
X220736Y814829D01*
X213118D01*
X276860Y832099D02*
Y819403D01*
X274321Y816864D01*
X269242D01*
X266703Y819403D01*
Y832099D01*
X251468D02*
X256547Y829560D01*
X261625Y824482D01*
Y819403D01*
X259086Y816864D01*
X254007D01*
X251468Y819403D01*
Y821942D01*
X254007Y824482D01*
X261625D01*
X628653Y971546D02*
X631193Y974085D01*
X636271D01*
X638810Y971546D01*
Y961389D01*
X636271Y958850D01*
X631193D01*
X628653Y961389D01*
X623575Y958850D02*
Y974085D01*
X615957D01*
X613418Y971546D01*
Y966468D01*
X615957Y963928D01*
X623575D01*
X618497D02*
X613418Y958850D01*
X608340D02*
X603261D01*
X605801D01*
Y974085D01*
X608340Y971546D01*
X678180Y863602D02*
X673102D01*
X675641D01*
Y876298D01*
X673102Y878838D01*
X670563D01*
X668023Y876298D01*
X683258Y878838D02*
X688337D01*
X685798D01*
Y863602D01*
X683258Y866142D01*
X309118Y724413D02*
Y726952D01*
X314196Y732030D01*
X319275Y726952D01*
Y724413D01*
X314196Y732030D02*
Y739648D01*
X324353D02*
X329431D01*
X326892D01*
Y724413D01*
X324353Y726952D01*
X330457Y785872D02*
X332996Y788411D01*
X338075D01*
X340614Y785872D01*
Y775715D01*
X338075Y773176D01*
X332996D01*
X330457Y775715D01*
X325379Y773176D02*
X320301D01*
X322840D01*
Y788411D01*
X325379Y785872D01*
X302526Y773176D02*
X312683D01*
X302526Y783333D01*
Y785872D01*
X305065Y788411D01*
X310144D01*
X312683Y785872D01*
X315217Y883662D02*
X317757Y886201D01*
X322835D01*
X325374Y883662D01*
Y873505D01*
X322835Y870966D01*
X317757D01*
X315217Y873505D01*
X310139Y870966D02*
X305061D01*
X307600D01*
Y886201D01*
X310139Y883662D01*
X297443Y870966D02*
X292365D01*
X294904D01*
Y886201D01*
X297443Y883662D01*
X455425Y816352D02*
X457965Y818891D01*
X463043D01*
X465582Y816352D01*
Y806195D01*
X463043Y803656D01*
X457965D01*
X455425Y806195D01*
X450347Y803656D02*
X445269D01*
X447808D01*
Y818891D01*
X450347Y816352D01*
X427494Y818891D02*
X432573Y816352D01*
X437651Y811273D01*
Y806195D01*
X435112Y803656D01*
X430033D01*
X427494Y806195D01*
Y808734D01*
X430033Y811273D01*
X437651D01*
X591315Y836672D02*
X593854Y839211D01*
X598933D01*
X601472Y836672D01*
Y826515D01*
X598933Y823976D01*
X593854D01*
X591315Y826515D01*
X586237Y823976D02*
X581159D01*
X583698D01*
Y839211D01*
X586237Y836672D01*
X563384Y839211D02*
X573541D01*
Y831593D01*
X568463Y834133D01*
X565924D01*
X563384Y831593D01*
Y826515D01*
X565924Y823976D01*
X571002D01*
X573541Y826515D01*
X550167Y955544D02*
X552706Y958083D01*
X557785D01*
X560324Y955544D01*
Y945387D01*
X557785Y942848D01*
X552706D01*
X550167Y945387D01*
X545089Y942848D02*
X540011D01*
X542550D01*
Y958083D01*
X545089Y955544D01*
X524776Y942848D02*
Y958083D01*
X532393Y950465D01*
X522236D01*
X440185Y898902D02*
X442724Y901441D01*
X447803D01*
X450342Y898902D01*
Y888745D01*
X447803Y886206D01*
X442724D01*
X440185Y888745D01*
X435107Y886206D02*
X430029D01*
X432568D01*
Y901441D01*
X435107Y898902D01*
X422411D02*
X419872Y901441D01*
X414794D01*
X412254Y898902D01*
Y896363D01*
X414794Y893823D01*
X417333D01*
X414794D01*
X412254Y891284D01*
Y888745D01*
X414794Y886206D01*
X419872D01*
X422411Y888745D01*
X100329Y722628D02*
X102868Y725167D01*
X107947D01*
X110486Y722628D01*
Y712472D01*
X107947Y709932D01*
X102868D01*
X100329Y712472D01*
X95251Y722628D02*
X92712Y725167D01*
X87633D01*
X85094Y722628D01*
Y720089D01*
X87633Y717550D01*
X85094Y715011D01*
Y712472D01*
X87633Y709932D01*
X92712D01*
X95251Y712472D01*
Y715011D01*
X92712Y717550D01*
X95251Y720089D01*
Y722628D01*
X92712Y717550D02*
X87633D01*
X118109Y683258D02*
X120648Y685798D01*
X125727D01*
X128266Y683258D01*
Y673102D01*
X125727Y670563D01*
X120648D01*
X118109Y673102D01*
X113031Y685798D02*
X102874D01*
Y683258D01*
X113031Y673102D01*
Y670563D01*
X161291Y728982D02*
X158752Y726442D01*
X153673D01*
X151134Y728982D01*
Y739138D01*
X153673Y741677D01*
X158752D01*
X161291Y739138D01*
X176526Y726442D02*
X171448Y728982D01*
X166369Y734060D01*
Y739138D01*
X168908Y741677D01*
X173987D01*
X176526Y739138D01*
Y736599D01*
X173987Y734060D01*
X166369D01*
X213359Y683258D02*
X215898Y685798D01*
X220977D01*
X223516Y683258D01*
Y673102D01*
X220977Y670563D01*
X215898D01*
X213359Y673102D01*
X198124Y685798D02*
X208281D01*
Y678180D01*
X203202Y680719D01*
X200663D01*
X198124Y678180D01*
Y673102D01*
X200663Y670563D01*
X205742D01*
X208281Y673102D01*
X223777Y743962D02*
X226317Y746501D01*
X231395D01*
X233934Y743962D01*
Y733805D01*
X231395Y731266D01*
X226317D01*
X223777Y733805D01*
X211081Y731266D02*
Y746501D01*
X218699Y738884D01*
X208542D01*
X299469Y745232D02*
X302008Y747771D01*
X307087D01*
X309626Y745232D01*
Y735075D01*
X307087Y732536D01*
X302008D01*
X299469Y735075D01*
X294391Y745232D02*
X291852Y747771D01*
X286773D01*
X284234Y745232D01*
Y742693D01*
X286773Y740154D01*
X289313D01*
X286773D01*
X284234Y737614D01*
Y735075D01*
X286773Y732536D01*
X291852D01*
X294391Y735075D01*
X300989Y683258D02*
X303528Y685798D01*
X308607D01*
X311146Y683258D01*
Y673102D01*
X308607Y670563D01*
X303528D01*
X300989Y673102D01*
X285754Y670563D02*
X295911D01*
X285754Y680719D01*
Y683258D01*
X288293Y685798D01*
X293372D01*
X295911Y683258D01*
X340617Y708402D02*
X343157Y710941D01*
X348235D01*
X350774Y708402D01*
Y698245D01*
X348235Y695706D01*
X343157D01*
X340617Y698245D01*
X335539Y695706D02*
X330461D01*
X333000D01*
Y710941D01*
X335539Y708402D01*
X342392Y999993D02*
Y987297D01*
X339853Y984758D01*
X334775D01*
X332235Y987297D01*
Y999993D01*
X327157Y997454D02*
X324618Y999993D01*
X319539D01*
X317000Y997454D01*
Y994915D01*
X319539Y992375D01*
X322079D01*
X319539D01*
X317000Y989836D01*
Y987297D01*
X319539Y984758D01*
X324618D01*
X327157Y987297D01*
X243586Y935223D02*
Y922527D01*
X241047Y919988D01*
X235968D01*
X233429Y922527D01*
Y935223D01*
X220733Y919988D02*
Y935223D01*
X228351Y927606D01*
X218194D01*
X281689Y906776D02*
X284228Y909315D01*
X289307D01*
X291846Y906776D01*
Y896619D01*
X289307Y894080D01*
X284228D01*
X281689Y896619D01*
X276611Y894080D02*
X271533D01*
X274072D01*
Y909315D01*
X276611Y906776D01*
X263915D02*
X261376Y909315D01*
X256297D01*
X253758Y906776D01*
Y896619D01*
X256297Y894080D01*
X261376D01*
X263915Y896619D01*
Y906776D01*
X218697Y907538D02*
X221236Y910077D01*
X226315D01*
X228854Y907538D01*
Y897381D01*
X226315Y894842D01*
X221236D01*
X218697Y897381D01*
X213619D02*
X211080Y894842D01*
X206001D01*
X203462Y897381D01*
Y907538D01*
X206001Y910077D01*
X211080D01*
X213619Y907538D01*
Y904999D01*
X211080Y902459D01*
X203462D01*
D55*
X424093Y812170D02*
G03*
X424093Y812170I-762J0D01*
G01*
X440532Y900978D02*
X449496D01*
X543148Y892014D02*
Y900978D01*
X534184Y798362D02*
X543148D01*
X440532D02*
Y807326D01*
Y892014D02*
Y900978D01*
X534184D02*
X543148D01*
Y798362D02*
Y807326D01*
X440532Y798362D02*
X449496D01*
X196450Y847930D02*
X212490D01*
X196450Y823390D02*
X212490D01*
X168472Y741553D02*
Y796506D01*
X10992Y892073D02*
Y955167D01*
X121819D02*
X168472D01*
X10992Y741553D02*
X61585D01*
X121819D02*
X168472D01*
Y900214D02*
Y955167D01*
X10992D02*
X61585D01*
X10992Y741553D02*
Y804647D01*
X389636Y919734D02*
Y922578D01*
X334264Y975106D02*
X389636D01*
Y972262D02*
Y975106D01*
X334264Y919734D02*
X389636D01*
X334264D02*
Y922578D01*
Y972262D02*
Y975106D01*
X253619Y807339D02*
X269621D01*
Y793372D02*
Y796668D01*
X253619Y782701D02*
X269621D01*
X225361Y910359D02*
X241364D01*
Y896391D02*
Y899689D01*
X225361Y885721D02*
X241364D01*
X612584Y916280D02*
X632650D01*
X612584Y949300D02*
X632650D01*
D56*
X647050Y946080D02*
G03*
X647050Y946080I-1000J0D01*
G01*
D57*
X425730Y782400D02*
Y792400D01*
X435330Y782400D02*
Y792400D01*
X410490Y864950D02*
Y874950D01*
X420090Y864950D02*
Y874950D01*
X523320Y934440D02*
X533320D01*
X523320Y924840D02*
X533320D01*
X571220Y802720D02*
Y812720D01*
X561620Y802720D02*
Y812720D01*
X309240Y768500D02*
Y882500D01*
X356240Y768500D02*
Y882500D01*
X699050Y969580D02*
X700300D01*
Y894580D02*
Y969580D01*
X699050Y894580D02*
X700300D01*
D58*
X319786Y913726D02*
X328250Y922190D01*
X319786D02*
X328250Y913726D01*
X319786Y917958D02*
X328250D01*
X324018Y922190D02*
Y913726D01*
X244792Y776162D02*
X253256Y784626D01*
X244792D02*
X253256Y776162D01*
X244792Y780394D02*
X253256D01*
X249025Y784626D02*
Y776162D01*
X216535Y879182D02*
X224999Y887646D01*
X216535D02*
X224999Y879182D01*
X216535Y883414D02*
X224999D01*
X220767Y887646D02*
Y879182D01*
X603250Y908392D02*
X611714Y916856D01*
X603250D02*
X611714Y908392D01*
X603250Y912624D02*
X611714D01*
X607482Y916856D02*
Y908392D01*
M02*
