G04*
G04 #@! TF.GenerationSoftware,Altium Limited,Altium Designer,24.7.2 (38)*
G04*
G04 Layer_Physical_Order=2*
G04 Layer_Color=16711680*
%FSLAX44Y44*%
%MOMM*%
G71*
G04*
G04 #@! TF.SameCoordinates,966AE77D-DC0C-403A-A995-9434F704E8A8*
G04*
G04*
G04 #@! TF.FilePolarity,Positive*
G04*
G01*
G75*
%ADD10C,0.5080*%
%ADD11C,0.2540*%
%ADD20C,2.3114*%
%ADD24C,0.3810*%
%ADD25C,1.5240*%
%ADD26C,1.2700*%
%ADD27C,2.2000*%
G04:AMPARAMS|DCode=28|XSize=0.6mm|YSize=0.54mm|CornerRadius=0.1431mm|HoleSize=0mm|Usage=FLASHONLY|Rotation=0.000|XOffset=0mm|YOffset=0mm|HoleType=Round|Shape=RoundedRectangle|*
%AMROUNDEDRECTD28*
21,1,0.6000,0.2538,0,0,0.0*
21,1,0.3138,0.5400,0,0,0.0*
1,1,0.2862,0.1569,-0.1269*
1,1,0.2862,-0.1569,-0.1269*
1,1,0.2862,-0.1569,0.1269*
1,1,0.2862,0.1569,0.1269*
%
%ADD28ROUNDEDRECTD28*%
%ADD29C,17.7800*%
%ADD30R,0.7620X0.8128*%
%ADD31R,0.7112X0.9398*%
%ADD32R,0.8000X0.6556*%
G04:AMPARAMS|DCode=33|XSize=0.6mm|YSize=0.54mm|CornerRadius=0.1431mm|HoleSize=0mm|Usage=FLASHONLY|Rotation=90.000|XOffset=0mm|YOffset=0mm|HoleType=Round|Shape=RoundedRectangle|*
%AMROUNDEDRECTD33*
21,1,0.6000,0.2538,0,0,90.0*
21,1,0.3138,0.5400,0,0,90.0*
1,1,0.2862,0.1269,0.1569*
1,1,0.2862,0.1269,-0.1569*
1,1,0.2862,-0.1269,-0.1569*
1,1,0.2862,-0.1269,0.1569*
%
%ADD33ROUNDEDRECTD33*%
%ADD34R,0.8900X0.9300*%
%ADD35R,0.8128X0.7620*%
%ADD36R,0.3048X1.1938*%
%ADD37R,1.1938X0.3048*%
%ADD38R,1.3500X0.4000*%
%ADD39R,1.6000X2.1000*%
%ADD40R,1.9000X1.9000*%
%ADD41R,1.9000X1.8000*%
%ADD42R,1.2192X4.3942*%
%ADD43R,0.9779X0.5588*%
%ADD44R,1.5240X0.5334*%
%ADD45R,0.8763X0.3048*%
%ADD46R,0.6000X0.4200*%
%ADD47O,0.6000X0.4200*%
%ADD48R,0.9300X0.8900*%
%ADD49C,0.4000*%
%ADD50C,0.4064*%
%ADD51R,6.3500X18.2880*%
%ADD52R,1.2700X0.7620*%
%ADD53R,1.9050X1.2700*%
%ADD54R,10.1600X1.7780*%
G36*
X615651Y994942D02*
X598750Y978042D01*
X597612Y978699D01*
X597720Y979102D01*
Y981778D01*
X597028Y984362D01*
X595690Y986678D01*
X593798Y988570D01*
X591482Y989908D01*
X588898Y990600D01*
X586222D01*
X583638Y989908D01*
X581321Y988570D01*
X579430Y986678D01*
X578092Y984362D01*
X577400Y981778D01*
Y979102D01*
X578092Y976518D01*
X579430Y974202D01*
X581321Y972310D01*
X583638Y970972D01*
X585944Y970355D01*
X585776Y969085D01*
X580793D01*
X579884Y970659D01*
X578229Y972314D01*
X576201Y973484D01*
X573940Y974090D01*
X571692D01*
X571435Y974343D01*
X570872Y975210D01*
X571628Y976518D01*
X572320Y979102D01*
Y981778D01*
X571628Y984362D01*
X570290Y986678D01*
X568398Y988570D01*
X566082Y989908D01*
X563498Y990600D01*
X560822D01*
X558238Y989908D01*
X555922Y988570D01*
X554030Y986678D01*
X552692Y984362D01*
X552000Y981778D01*
Y979102D01*
X552692Y976518D01*
X554030Y974202D01*
X555922Y972310D01*
X558238Y970972D01*
X560822Y970280D01*
X563498D01*
X564058Y970430D01*
X564895Y969340D01*
X564486Y968631D01*
X563880Y966370D01*
Y964030D01*
X564486Y961769D01*
X565395Y960195D01*
X564793Y958925D01*
X552847D01*
X544431Y967341D01*
X543171Y968183D01*
X541684Y968479D01*
X507511D01*
X506602Y970053D01*
X504947Y971708D01*
X502920Y972878D01*
X500659Y973484D01*
X498318D01*
X496057Y972878D01*
X494030Y971708D01*
X492375Y970053D01*
X491204Y968026D01*
X490599Y965764D01*
Y963424D01*
X491204Y961163D01*
X492375Y959136D01*
X494030Y957480D01*
X496057Y956310D01*
X498318Y955704D01*
X500659D01*
X502611Y956227D01*
X503208Y955072D01*
X501778Y953642D01*
X500607Y951615D01*
X500028Y949454D01*
X507621D01*
Y957047D01*
X505769Y956551D01*
X505173Y957706D01*
X506602Y959136D01*
X507511Y960710D01*
X540075D01*
X548492Y952293D01*
X549752Y951451D01*
X551238Y951155D01*
X560605D01*
X560945Y949885D01*
X560198Y949454D01*
X558542Y947799D01*
X557372Y945771D01*
X556793Y943610D01*
X574520D01*
X573940Y945771D01*
X572770Y947799D01*
X571115Y949454D01*
X570367Y949885D01*
X570708Y951155D01*
X593962D01*
X595448Y951451D01*
X596708Y952293D01*
X597897Y953482D01*
X598549Y953106D01*
X598559Y953103D01*
X599170Y951683D01*
X598954Y951281D01*
X598937Y951278D01*
X597435Y950274D01*
X596262Y949102D01*
X595259Y947600D01*
X594907Y945829D01*
X594907Y945828D01*
Y940475D01*
X593859Y940267D01*
X592357Y939263D01*
X592357Y939263D01*
X584831Y931738D01*
X583658Y932224D01*
Y932479D01*
X583350Y934028D01*
X582472Y935342D01*
X581158Y936220D01*
X579609Y936528D01*
X577071D01*
X575522Y936220D01*
X575032Y935892D01*
X574040Y935422D01*
X573325Y935761D01*
X572807Y936807D01*
X573023Y937320D01*
X573940Y938909D01*
X574520Y941070D01*
X556793D01*
X557372Y938909D01*
X558542Y936881D01*
X560198Y935226D01*
X562225Y934056D01*
X564486Y933450D01*
X564590Y933323D01*
X564422Y932479D01*
Y932180D01*
X569740D01*
Y929640D01*
X564384D01*
X563635Y929194D01*
X563180Y929109D01*
X562442Y929847D01*
X561182Y930689D01*
X559695Y930985D01*
X553359D01*
X552450Y932559D01*
X550795Y934214D01*
X548768Y935384D01*
X546507Y935990D01*
X544166D01*
X541905Y935384D01*
X539878Y934214D01*
X538793Y933129D01*
X538709Y933102D01*
X537263Y933308D01*
X536752Y934072D01*
X535439Y934950D01*
X533889Y935258D01*
X531351D01*
X529802Y934950D01*
X529312Y934622D01*
X528320Y934152D01*
X527328Y934622D01*
X526838Y934950D01*
X525290Y935258D01*
Y929640D01*
X524020D01*
Y928370D01*
X518702D01*
Y928071D01*
X519010Y926522D01*
X519888Y925208D01*
X520295Y924936D01*
Y919453D01*
X519122Y918967D01*
X452362Y985727D01*
X451102Y986569D01*
X449615Y986865D01*
X317500D01*
X316013Y986569D01*
X314753Y985727D01*
X307514Y978488D01*
X306672Y977228D01*
X306376Y975741D01*
Y938657D01*
X306672Y937170D01*
X307514Y935910D01*
X315341Y928083D01*
Y923163D01*
X335661D01*
Y933577D01*
X320835D01*
X319722Y934690D01*
X320208Y935863D01*
X335661D01*
Y937185D01*
X345035D01*
X345858Y936229D01*
X345436Y934654D01*
Y932313D01*
X346042Y930052D01*
X347213Y928025D01*
X348868Y926370D01*
X350895Y925199D01*
X353156Y924594D01*
X355497D01*
X357758Y925199D01*
X359785Y926370D01*
X361440Y928025D01*
X362611Y930052D01*
X363216Y932313D01*
Y934654D01*
X362611Y936915D01*
X361440Y938942D01*
X359785Y940597D01*
X357758Y941768D01*
X355497Y942374D01*
X353156D01*
X351377Y941897D01*
X349457Y943817D01*
X348197Y944659D01*
X346710Y944955D01*
X335661D01*
Y946277D01*
X315341D01*
Y946277D01*
X314146Y946457D01*
Y948383D01*
X315341Y948563D01*
Y948563D01*
X335661D01*
Y949885D01*
X382911D01*
X388239Y944557D01*
Y935863D01*
X407383D01*
X408399Y934847D01*
X407873Y933577D01*
X388239D01*
Y928657D01*
X382638Y923055D01*
X381961D01*
X380474Y922760D01*
X379214Y921917D01*
X371489Y914192D01*
X370385Y914830D01*
X368124Y915435D01*
X365783D01*
X363522Y914830D01*
X361495Y913659D01*
X359839Y912004D01*
X358669Y909977D01*
X358063Y907716D01*
Y905375D01*
X358669Y903114D01*
X359839Y901087D01*
X361495Y899432D01*
X363522Y898261D01*
X365783Y897655D01*
X368124D01*
X370385Y898261D01*
X372412Y899432D01*
X374067Y901087D01*
X375237Y903114D01*
X375843Y905375D01*
Y907560D01*
X383570Y915286D01*
X384247D01*
X385733Y915582D01*
X386993Y916424D01*
X393733Y923163D01*
X407670D01*
Y922120D01*
X408276Y919859D01*
X409446Y917831D01*
X411101Y916176D01*
X413129Y915006D01*
X415290Y914427D01*
Y923290D01*
X417830D01*
Y914427D01*
X418484Y914602D01*
X436392Y896695D01*
X435866Y895425D01*
X421979D01*
X417076Y900327D01*
X417193Y900763D01*
Y903104D01*
X416587Y905365D01*
X415417Y907392D01*
X413762Y909047D01*
X411734Y910217D01*
X409473Y910823D01*
X407133D01*
X404872Y910217D01*
X402844Y909047D01*
X401189Y907392D01*
X400019Y905365D01*
X399413Y903104D01*
Y900763D01*
X400019Y898502D01*
X401189Y896475D01*
X402844Y894819D01*
X404872Y893649D01*
X407133Y893043D01*
X409473D01*
X411734Y893649D01*
X412389Y894027D01*
X417623Y888793D01*
X418040Y888515D01*
X417654Y887245D01*
X410545D01*
X407636Y890154D01*
X406376Y890996D01*
X404889Y891292D01*
X376668D01*
X374666Y893295D01*
X373405Y894137D01*
X371919Y894432D01*
X364026D01*
X363117Y896006D01*
X361462Y897662D01*
X359435Y898832D01*
X357174Y899438D01*
X354833D01*
X352572Y898832D01*
X350545Y897662D01*
X348890Y896006D01*
X347719Y893979D01*
X347114Y891718D01*
Y889377D01*
X347719Y887116D01*
X348890Y885089D01*
X350545Y883434D01*
X352572Y882263D01*
X354833Y881658D01*
X355997D01*
X356971Y880388D01*
X356870Y880010D01*
Y877670D01*
X357476Y875409D01*
X358646Y873381D01*
X360301Y871726D01*
X362329Y870556D01*
X364590Y869950D01*
X366180D01*
X367182Y868784D01*
X367030Y868217D01*
Y865876D01*
X367636Y863615D01*
X368806Y861588D01*
X370461Y859932D01*
X372489Y858762D01*
X374750Y858156D01*
X377090D01*
X379351Y858762D01*
X381379Y859932D01*
X383034Y861588D01*
X384204Y863615D01*
X384810Y865876D01*
Y868217D01*
X384204Y870478D01*
X383085Y872415D01*
X383262Y873081D01*
X383513Y873685D01*
X400981D01*
X405865Y868801D01*
Y862736D01*
X406161Y861249D01*
X407003Y859989D01*
X409329Y857663D01*
X409554Y857513D01*
X409505Y856018D01*
X408561Y855474D01*
X406906Y853819D01*
X405736Y851791D01*
X405675Y851563D01*
X402830D01*
Y860472D01*
X402780Y860722D01*
Y862988D01*
X400614D01*
X400240Y863062D01*
X396240D01*
X392240D01*
X391866Y862988D01*
X389700D01*
Y860722D01*
X389650Y860472D01*
Y851488D01*
X389700Y851238D01*
Y841884D01*
X388774Y841054D01*
X359509D01*
X336296Y864268D01*
Y907288D01*
X319024D01*
Y865961D01*
X305824D01*
X304337Y865665D01*
X304280Y865627D01*
X292290D01*
Y867536D01*
X279210D01*
Y858182D01*
X279160Y857932D01*
Y848948D01*
X279210Y848698D01*
Y846432D01*
X281376D01*
X281750Y846358D01*
X285750D01*
X289750D01*
X290124Y846432D01*
X292290D01*
Y848698D01*
X292340Y848948D01*
Y857857D01*
X305490D01*
X306977Y858153D01*
X307034Y858191D01*
X322834D01*
X323209Y858266D01*
X331310D01*
X353684Y835892D01*
X354443Y834917D01*
X332655Y813129D01*
X332486D01*
X332111Y813054D01*
X319024D01*
Y802046D01*
X317851Y801560D01*
X306380Y813031D01*
X305120Y813873D01*
X303633Y814169D01*
X292290D01*
Y816290D01*
X292340Y816540D01*
Y825524D01*
X292290Y825774D01*
Y828040D01*
X290124D01*
X289750Y828114D01*
X285750D01*
X281750D01*
X281376Y828040D01*
X279210D01*
Y825774D01*
X279160Y825524D01*
Y816540D01*
X279210Y816290D01*
Y806936D01*
X287429D01*
X287804Y806861D01*
X288232D01*
X288481Y806695D01*
X289968Y806399D01*
X302024D01*
X319024Y789399D01*
Y768494D01*
X317754Y767968D01*
X316609Y769114D01*
X314581Y770284D01*
X312420Y770863D01*
Y763270D01*
X320117D01*
X320701Y764032D01*
X336296D01*
Y806020D01*
X337011Y806497D01*
X358799Y828285D01*
X425831D01*
Y816702D01*
X415520D01*
X414869Y816832D01*
X413086Y816477D01*
X412655Y816189D01*
X412029Y816467D01*
X411860Y816610D01*
X403860D01*
Y807797D01*
X403874Y807767D01*
X391849Y795742D01*
X360709D01*
X360174Y796669D01*
X358519Y798324D01*
X356491Y799494D01*
X354230Y800100D01*
X351890D01*
X349629Y799494D01*
X347601Y798324D01*
X345946Y796669D01*
X344776Y794641D01*
X344170Y792380D01*
Y790040D01*
X344776Y787779D01*
X345946Y785751D01*
X347265Y784433D01*
X347413Y783460D01*
X347230Y782844D01*
X345815Y781429D01*
X344644Y779402D01*
X344038Y777141D01*
Y774800D01*
X344644Y772539D01*
X345815Y770512D01*
X347470Y768857D01*
X349497Y767686D01*
X351758Y767081D01*
X354099D01*
X356360Y767686D01*
X358387Y768857D01*
X360042Y770512D01*
X360203Y770791D01*
X380470D01*
X394193Y757067D01*
X395873Y755945D01*
X396980Y755725D01*
X396855Y754455D01*
X373778D01*
X372292Y754159D01*
X371031Y753317D01*
X366948Y749233D01*
X365625Y749706D01*
X365154Y751461D01*
X363984Y753489D01*
X362329Y755144D01*
X360301Y756314D01*
X358140Y756893D01*
Y748030D01*
X356870D01*
Y746760D01*
X348007D01*
X348586Y744599D01*
X349756Y742571D01*
X351411Y740916D01*
X353439Y739746D01*
X355194Y739276D01*
X355667Y737952D01*
X350579Y732865D01*
X339344D01*
Y740541D01*
X339394Y740791D01*
Y747649D01*
X339344Y747899D01*
Y750697D01*
X332740D01*
X326136D01*
Y747899D01*
X326086Y747649D01*
Y740791D01*
X326136Y740541D01*
Y732865D01*
X308050D01*
Y736832D01*
X309623Y737741D01*
X311279Y739396D01*
X312449Y741423D01*
X313055Y743684D01*
Y746025D01*
X312449Y748286D01*
X311279Y750313D01*
X309702Y751890D01*
X309765Y752422D01*
X309778Y752463D01*
X309880Y752625D01*
Y760730D01*
X302287D01*
X302866Y758569D01*
X304036Y756541D01*
X305613Y754965D01*
X305550Y754433D01*
X305537Y754391D01*
X305128Y753745D01*
X302994D01*
X300733Y753139D01*
X298706Y751969D01*
X297051Y750313D01*
X295881Y748286D01*
X295275Y746025D01*
Y743684D01*
X295629Y742363D01*
X294592Y741326D01*
X293270Y741680D01*
X290930D01*
X288669Y741074D01*
X286641Y739904D01*
X284986Y738249D01*
X283816Y736221D01*
X283210Y733960D01*
Y731620D01*
X283816Y729359D01*
X284986Y727331D01*
X286308Y726010D01*
X285836Y724740D01*
X282490D01*
Y718820D01*
X289480D01*
X296470D01*
Y719898D01*
X297740Y720567D01*
X297890Y720464D01*
Y710360D01*
X302053D01*
X302241Y709658D01*
X302292Y709090D01*
X300480Y707278D01*
X299142Y704962D01*
X298450Y702378D01*
Y699702D01*
X299142Y697118D01*
X300480Y694802D01*
X302372Y692910D01*
X304688Y691572D01*
X307272Y690880D01*
X309725D01*
Y689180D01*
X306620D01*
Y674800D01*
X320600D01*
Y689180D01*
X317495D01*
Y692603D01*
X317199Y694090D01*
X316730Y694792D01*
X316740Y694802D01*
X318078Y697118D01*
X318770Y699702D01*
Y702378D01*
X318078Y704962D01*
X316740Y707278D01*
X314848Y709170D01*
X312532Y710508D01*
X311870Y710685D01*
Y713665D01*
X366691D01*
X375362Y704995D01*
X375342Y704962D01*
X374650Y702378D01*
Y699702D01*
X375342Y697118D01*
X376680Y694802D01*
X378572Y692910D01*
X380888Y691572D01*
X383472Y690880D01*
X386148D01*
X388732Y691572D01*
X391048Y692910D01*
X392940Y694802D01*
X394278Y697118D01*
X394970Y699702D01*
Y702378D01*
X394278Y704962D01*
X392940Y707278D01*
X391048Y709170D01*
X388732Y710508D01*
X386148Y711200D01*
X383472D01*
X380888Y710508D01*
X380855Y710489D01*
X371889Y719455D01*
X377102Y724668D01*
X377384Y724506D01*
X379645Y723900D01*
X381985D01*
X384246Y724506D01*
X386274Y725676D01*
X387929Y727331D01*
X389099Y729359D01*
X389705Y731620D01*
Y733960D01*
X389099Y736221D01*
X387929Y738249D01*
X386274Y739904D01*
X384246Y741074D01*
X381985Y741680D01*
X379645D01*
X377384Y741074D01*
X375356Y739904D01*
X373701Y738249D01*
X372531Y736221D01*
X371925Y733960D01*
Y731620D01*
X372166Y730720D01*
X366691Y725245D01*
X355686D01*
X355565Y725404D01*
X355217Y726515D01*
X375387Y746685D01*
X407197D01*
X407723Y745415D01*
X406906Y744599D01*
X405736Y742571D01*
X405157Y740410D01*
X422883D01*
X422304Y742571D01*
X421134Y744599D01*
X420317Y745415D01*
X420843Y746685D01*
X442358D01*
X443845Y746981D01*
X445105Y747823D01*
X446995Y749713D01*
X447890Y749336D01*
X448176Y749098D01*
Y746875D01*
X448782Y744614D01*
X449953Y742587D01*
X451608Y740932D01*
X453635Y739761D01*
X455896Y739156D01*
X458139D01*
X458271Y739119D01*
X459225Y738105D01*
X459096Y737456D01*
Y736367D01*
X457606Y735967D01*
X455578Y734797D01*
X453923Y733142D01*
X452753Y731115D01*
X452147Y728854D01*
Y726513D01*
X452374Y725664D01*
X452203Y725367D01*
X451324Y724676D01*
X449580Y725143D01*
Y717550D01*
X457173D01*
X456973Y718299D01*
X457144Y718596D01*
X458023Y719287D01*
X459866Y718793D01*
X462207D01*
X464468Y719399D01*
X466496Y720569D01*
X468151Y722225D01*
X469321Y724252D01*
X469927Y726513D01*
Y728854D01*
X469321Y731115D01*
X468151Y733142D01*
X466866Y734427D01*
Y735847D01*
X469339Y738321D01*
X470609Y737795D01*
Y736646D01*
X471215Y734385D01*
X472385Y732358D01*
X474041Y730703D01*
X476068Y729532D01*
X478329Y728927D01*
X480670D01*
X482931Y729532D01*
X484958Y730703D01*
X486613Y732358D01*
X487783Y734385D01*
X488389Y736646D01*
Y738987D01*
X487783Y741248D01*
X487012Y742584D01*
X487087Y742659D01*
X487087Y742659D01*
X487087Y742659D01*
X487399Y743127D01*
X487929Y743919D01*
X487929Y743920D01*
X487929Y743920D01*
X488077Y744667D01*
X488225Y745406D01*
X488224Y745406D01*
X488225Y745406D01*
Y768835D01*
X489317Y769195D01*
X489495Y769203D01*
X491111Y767586D01*
X492685Y766677D01*
Y728973D01*
X470555Y706843D01*
X469296Y707009D01*
X469140Y707278D01*
X467248Y709170D01*
X464932Y710508D01*
X462348Y711200D01*
X459672D01*
X457088Y710508D01*
X456498Y710167D01*
X455590Y711109D01*
X456594Y712849D01*
X457173Y715010D01*
X439447D01*
X440026Y712849D01*
X441030Y711109D01*
X440122Y710167D01*
X439532Y710508D01*
X436948Y711200D01*
X434272D01*
X431688Y710508D01*
X429372Y709170D01*
X427480Y707278D01*
X426142Y704962D01*
X425450Y702378D01*
Y699702D01*
X426142Y697118D01*
X427480Y694802D01*
X429372Y692910D01*
X431688Y691572D01*
X434272Y690880D01*
X436948D01*
X439532Y691572D01*
X441848Y692910D01*
X442906Y693968D01*
X453714D01*
X454772Y692910D01*
X457088Y691572D01*
X459672Y690880D01*
X459861D01*
X460347Y689707D01*
X446355Y675715D01*
X412750D01*
X411263Y675419D01*
X410003Y674577D01*
X409031Y673605D01*
X375368D01*
X374100Y673610D01*
X374100Y674875D01*
Y687990D01*
X365614D01*
X363295Y690309D01*
Y691562D01*
X363332Y691572D01*
X365648Y692910D01*
X367540Y694802D01*
X368878Y697118D01*
X369570Y699702D01*
Y702378D01*
X368878Y704962D01*
X367540Y707278D01*
X365648Y709170D01*
X363332Y710508D01*
X360748Y711200D01*
X358072D01*
X355488Y710508D01*
X353172Y709170D01*
X351280Y707278D01*
X349942Y704962D01*
X349250Y702378D01*
Y699702D01*
X349942Y697118D01*
X351280Y694802D01*
X353172Y692910D01*
X355488Y691572D01*
X355525Y691562D01*
Y688700D01*
X354943Y687990D01*
X344720D01*
Y684605D01*
X336000D01*
Y689180D01*
X332895D01*
Y690880D01*
X335348D01*
X337932Y691572D01*
X340248Y692910D01*
X342140Y694802D01*
X343478Y697118D01*
X344170Y699702D01*
Y702378D01*
X343478Y704962D01*
X342140Y707278D01*
X340248Y709170D01*
X337932Y710508D01*
X335348Y711200D01*
X332672D01*
X330088Y710508D01*
X327772Y709170D01*
X325880Y707278D01*
X324542Y704962D01*
X323850Y702378D01*
Y699702D01*
X324542Y697118D01*
X325880Y694802D01*
X325890Y694792D01*
X325421Y694090D01*
X325125Y692603D01*
Y689180D01*
X322020D01*
Y674800D01*
X336000D01*
Y676835D01*
X344720D01*
Y673610D01*
X358700D01*
Y680892D01*
X359970Y681571D01*
X360120Y681470D01*
Y673610D01*
X364627D01*
X365001Y672867D01*
X365076Y672340D01*
X362530Y669795D01*
X282660D01*
Y684100D01*
X280202D01*
Y685793D01*
X285561Y691152D01*
X287132Y691572D01*
X289448Y692910D01*
X291340Y694802D01*
X292678Y697118D01*
X293370Y699702D01*
Y702378D01*
X292678Y704962D01*
X291340Y707278D01*
X289528Y709090D01*
X289579Y709658D01*
X289767Y710360D01*
X296470D01*
Y716280D01*
X289480D01*
X282490D01*
Y711200D01*
X281872D01*
X279288Y710508D01*
X276972Y709170D01*
X275080Y707278D01*
X273742Y704962D01*
X273050Y702378D01*
Y699702D01*
X273742Y697118D01*
X275080Y694802D01*
X275736Y694145D01*
X272465Y690874D01*
X271483Y689404D01*
X271138Y687670D01*
Y684100D01*
X268680D01*
Y669795D01*
X267260D01*
Y684100D01*
X264984D01*
Y693846D01*
X265940Y694802D01*
X267278Y697118D01*
X267970Y699702D01*
Y702378D01*
X267278Y704962D01*
X265940Y707278D01*
X264048Y709170D01*
X261732Y710508D01*
X259148Y711200D01*
X256472D01*
X253888Y710508D01*
X251572Y709170D01*
X249680Y707278D01*
X248342Y704962D01*
X247650Y702378D01*
Y699702D01*
X248342Y697118D01*
X249680Y694802D01*
X251572Y692910D01*
X253888Y691572D01*
X256472Y690880D01*
X257215D01*
Y684100D01*
X253280D01*
Y669795D01*
X250656D01*
X249169Y669499D01*
X247909Y668657D01*
X229797Y650545D01*
X211978D01*
X211968Y650582D01*
X210630Y652898D01*
X208738Y654790D01*
X206422Y656128D01*
X203838Y656820D01*
X201162D01*
X198578Y656128D01*
X196262Y654790D01*
X194370Y652898D01*
X193032Y650582D01*
X193022Y650545D01*
X146978D01*
X146968Y650582D01*
X145630Y652898D01*
X143738Y654790D01*
X141422Y656128D01*
X138838Y656820D01*
X136162D01*
X133578Y656128D01*
X131262Y654790D01*
X129370Y652898D01*
X128032Y650582D01*
X127340Y647998D01*
Y645322D01*
X128032Y642738D01*
X129370Y640422D01*
X131262Y638530D01*
X133578Y637192D01*
X136162Y636500D01*
X138838D01*
X141422Y637192D01*
X143738Y638530D01*
X145630Y640422D01*
X146968Y642738D01*
X146978Y642775D01*
X191325D01*
X191852Y641505D01*
X188323Y637977D01*
X187481Y636717D01*
X187185Y635230D01*
Y596926D01*
X187481Y595439D01*
X188323Y594179D01*
X198615Y583886D01*
Y558038D01*
X198578Y558028D01*
X196262Y556690D01*
X194370Y554799D01*
X193032Y552482D01*
X193022Y552445D01*
X146978D01*
X146968Y552482D01*
X145630Y554798D01*
X143738Y556690D01*
X141422Y558028D01*
X138838Y558720D01*
X136162D01*
X133578Y558028D01*
X131262Y556690D01*
X129370Y554798D01*
X128032Y552482D01*
X127340Y549898D01*
Y547223D01*
X128032Y544638D01*
X129370Y542322D01*
X131262Y540430D01*
X133578Y539092D01*
X136162Y538400D01*
X138838D01*
X141422Y539092D01*
X143738Y540430D01*
X145630Y542322D01*
X146968Y544638D01*
X146978Y544675D01*
X191325D01*
X191852Y543405D01*
X188323Y539877D01*
X187481Y538617D01*
X187185Y537130D01*
Y482600D01*
X74955D01*
Y495078D01*
X76128Y495564D01*
X76262Y495430D01*
X78578Y494092D01*
X81162Y493400D01*
X83838D01*
X86422Y494092D01*
X88738Y495430D01*
X90630Y497322D01*
X91968Y499638D01*
X91978Y499675D01*
X128022D01*
X128032Y499638D01*
X129370Y497322D01*
X131262Y495430D01*
X133578Y494092D01*
X136162Y493400D01*
X138838D01*
X141422Y494092D01*
X143738Y495430D01*
X145630Y497322D01*
X146968Y499638D01*
X147660Y502222D01*
Y504898D01*
X146968Y507482D01*
X145630Y509798D01*
X143738Y511690D01*
X141422Y513028D01*
X138838Y513720D01*
X136162D01*
X133578Y513028D01*
X131262Y511690D01*
X129370Y509798D01*
X128032Y507482D01*
X128022Y507445D01*
X91978D01*
X91968Y507482D01*
X90630Y509798D01*
X88738Y511690D01*
X86422Y513028D01*
X83838Y513720D01*
X81162D01*
X78578Y513028D01*
X76262Y511690D01*
X76128Y511556D01*
X74955Y512043D01*
Y535521D01*
X78545Y539112D01*
X78578Y539092D01*
X81162Y538400D01*
X83838D01*
X86422Y539092D01*
X88738Y540430D01*
X90630Y542322D01*
X91968Y544638D01*
X92660Y547223D01*
Y549898D01*
X91968Y552482D01*
X90630Y554799D01*
X88738Y556690D01*
X86422Y558028D01*
X83838Y558720D01*
X81162D01*
X78578Y558028D01*
X78545Y558009D01*
X74955Y561599D01*
Y593178D01*
X76128Y593664D01*
X76262Y593530D01*
X78578Y592192D01*
X81162Y591500D01*
X83838D01*
X86422Y592192D01*
X88738Y593530D01*
X90630Y595422D01*
X91968Y597738D01*
X91978Y597775D01*
X128022D01*
X128032Y597738D01*
X129370Y595422D01*
X131262Y593530D01*
X133578Y592192D01*
X136162Y591500D01*
X138838D01*
X141422Y592192D01*
X143738Y593530D01*
X145630Y595422D01*
X146968Y597738D01*
X147660Y600322D01*
Y602998D01*
X146968Y605582D01*
X145630Y607898D01*
X143738Y609790D01*
X141422Y611128D01*
X138838Y611820D01*
X136162D01*
X133578Y611128D01*
X131262Y609790D01*
X129370Y607898D01*
X128032Y605582D01*
X128022Y605545D01*
X91978D01*
X91968Y605582D01*
X90630Y607898D01*
X88738Y609790D01*
X86422Y611128D01*
X83838Y611820D01*
X81162D01*
X78578Y611128D01*
X76262Y609790D01*
X76128Y609656D01*
X74955Y610143D01*
Y633621D01*
X78545Y637212D01*
X78578Y637192D01*
X81162Y636500D01*
X83838D01*
X86422Y637192D01*
X88738Y638530D01*
X90630Y640422D01*
X91968Y642738D01*
X92660Y645322D01*
Y647998D01*
X91968Y650582D01*
X90630Y652898D01*
X88738Y654790D01*
X86422Y656128D01*
X83838Y656820D01*
X81162D01*
X78578Y656128D01*
X76262Y654790D01*
X74370Y652898D01*
X73032Y650582D01*
X73022Y650545D01*
X26978D01*
X26968Y650582D01*
X25630Y652898D01*
X23738Y654790D01*
X21422Y656128D01*
X18838Y656820D01*
X16162D01*
X13578Y656128D01*
X11262Y654790D01*
X9370Y652898D01*
X8032Y650582D01*
X7340Y647998D01*
Y645322D01*
X8032Y642738D01*
X9370Y640422D01*
X11262Y638530D01*
X13578Y637192D01*
X16162Y636500D01*
X18838D01*
X21422Y637192D01*
X23738Y638530D01*
X25630Y640422D01*
X26968Y642738D01*
X26978Y642775D01*
X71325D01*
X71852Y641505D01*
X68323Y637977D01*
X67481Y636717D01*
X67185Y635230D01*
Y559990D01*
X67481Y558503D01*
X68323Y557243D01*
X71852Y553715D01*
X71326Y552445D01*
X26978D01*
X26968Y552482D01*
X25630Y554798D01*
X23738Y556690D01*
X21422Y558028D01*
X18838Y558720D01*
X16162D01*
X13578Y558028D01*
X11262Y556690D01*
X9370Y554798D01*
X8032Y552482D01*
X7340Y549898D01*
Y547223D01*
X8032Y544638D01*
X9370Y542322D01*
X11262Y540430D01*
X13578Y539092D01*
X16162Y538400D01*
X18838D01*
X21422Y539092D01*
X23738Y540430D01*
X25630Y542322D01*
X26968Y544638D01*
X26978Y544675D01*
X71325D01*
X71852Y543405D01*
X68323Y539877D01*
X67481Y538617D01*
X67185Y537130D01*
Y482600D01*
X3885D01*
Y755600D01*
X65710D01*
X66187Y754787D01*
X66265Y754359D01*
X64922Y753016D01*
X63066Y749801D01*
X62105Y746216D01*
Y742504D01*
X63066Y738919D01*
X64922Y735704D01*
X67546Y733080D01*
X70761Y731224D01*
X74346Y730263D01*
X78058D01*
X81643Y731224D01*
X84858Y733080D01*
X87482Y735704D01*
X89338Y738919D01*
X89409Y739181D01*
X93996D01*
X94066Y738919D01*
X95922Y735704D01*
X98546Y733080D01*
X101761Y731224D01*
X105346Y730263D01*
X109058D01*
X112643Y731224D01*
X115858Y733080D01*
X118483Y735704D01*
X120338Y738919D01*
X120971Y741280D01*
X121755D01*
X122242Y741183D01*
X124014Y741535D01*
X125515Y742539D01*
X198243Y815267D01*
X198243Y815267D01*
X199247Y816768D01*
X199599Y818540D01*
X199599Y818540D01*
Y826389D01*
X200241Y827350D01*
X200480Y828551D01*
X201830Y828997D01*
X204413Y826413D01*
X205673Y825571D01*
X207160Y825275D01*
X210532D01*
X211260Y824789D01*
X213070Y824429D01*
X214870D01*
X216681Y824789D01*
X218215Y825815D01*
X219241Y827350D01*
X219601Y829160D01*
X219241Y830971D01*
X218279Y832410D01*
X219241Y833850D01*
X219601Y835660D01*
X219484Y836250D01*
X219487Y836414D01*
X220504Y837628D01*
X221702D01*
X221702Y837628D01*
X221702Y837628D01*
X222564Y837799D01*
X223436Y837973D01*
X223436Y837973D01*
X223436Y837973D01*
X224125Y838433D01*
X224907Y838955D01*
X224907Y838955D01*
X225900Y839949D01*
X227688Y839470D01*
X230029D01*
X232290Y840076D01*
X234317Y841246D01*
X235972Y842901D01*
X236622Y844027D01*
X237892Y843687D01*
Y822970D01*
X238188Y821484D01*
X239030Y820223D01*
X252400Y806854D01*
X251873Y805584D01*
X243746D01*
X241340Y807990D01*
X241419Y808284D01*
Y810625D01*
X240813Y812886D01*
X239643Y814913D01*
X237987Y816568D01*
X235960Y817738D01*
X233699Y818344D01*
X231359D01*
X229097Y817738D01*
X227070Y816568D01*
X225415Y814913D01*
X224245Y812886D01*
X223639Y810625D01*
Y808284D01*
X224245Y806023D01*
X225415Y803996D01*
X227070Y802340D01*
X229097Y801170D01*
X231359Y800564D01*
X233699D01*
X235960Y801170D01*
X236728Y801614D01*
X237881Y800461D01*
X237395Y799288D01*
X226119D01*
Y784908D01*
X235317D01*
X236687Y784635D01*
X243586D01*
Y784456D01*
X257429D01*
Y786642D01*
X260176Y789389D01*
X260176Y789389D01*
X260176Y789389D01*
X260622Y790057D01*
X261018Y790649D01*
X261018Y790649D01*
X261018Y790649D01*
X261178Y791453D01*
X261314Y792135D01*
X261314Y792135D01*
X261314Y792136D01*
Y807318D01*
X261018Y808805D01*
X260176Y810065D01*
X245662Y824579D01*
Y849810D01*
X245366Y851297D01*
X244524Y852557D01*
X223707Y873373D01*
Y874643D01*
X224997Y875933D01*
X225839Y877193D01*
X226135Y878680D01*
Y887476D01*
X229172D01*
Y888464D01*
X230044Y889047D01*
X231225Y890228D01*
X232399Y889742D01*
Y885983D01*
X232695Y884496D01*
X233537Y883236D01*
X251424Y865349D01*
Y865123D01*
X258614D01*
X265804D01*
Y870843D01*
X257943D01*
X257843Y870993D01*
X258522Y872262D01*
X265804D01*
Y874955D01*
X269031D01*
X270517Y875251D01*
X270940Y875533D01*
X271061Y875463D01*
X273322Y874857D01*
X275663D01*
X277924Y875463D01*
X279951Y876634D01*
X281607Y878289D01*
X282777Y880316D01*
X283383Y882577D01*
Y884918D01*
X282777Y887179D01*
X281607Y889206D01*
X279951Y890861D01*
X277924Y892031D01*
X275663Y892637D01*
X273322D01*
X271061Y892031D01*
X269034Y890861D01*
X267379Y889206D01*
X266209Y887179D01*
X266208Y887178D01*
X266143Y886994D01*
X265804Y886243D01*
X258076D01*
X257981Y886385D01*
X251397Y892970D01*
Y895604D01*
X240168D01*
Y900476D01*
X251397D01*
Y908604D01*
X237554D01*
Y908367D01*
X236380Y907881D01*
X231640Y912621D01*
X230380Y913463D01*
X228894Y913759D01*
X216290D01*
X216290Y913759D01*
X216290Y913759D01*
X215591Y913620D01*
X214804Y913463D01*
X214803Y913463D01*
X214803Y913463D01*
X214197Y913058D01*
X213543Y912621D01*
X213543Y912621D01*
X213543Y912621D01*
X211311Y910389D01*
X210828Y909665D01*
X210470Y909129D01*
X210469Y909128D01*
X210469Y909128D01*
X210313Y908340D01*
X210174Y907642D01*
Y901438D01*
X210470Y899951D01*
X211312Y898691D01*
X211312Y897897D01*
X205533Y892119D01*
X204691Y890859D01*
X204691Y890858D01*
X204395Y889372D01*
Y887100D01*
X201090D01*
Y881380D01*
X208280D01*
Y878840D01*
X201090D01*
Y873120D01*
X204724D01*
X205100Y873045D01*
X205476Y873120D01*
X208172D01*
X208851Y871850D01*
X208750Y871700D01*
X201090D01*
Y864129D01*
X191765Y854805D01*
X190783Y853334D01*
X190438Y851600D01*
Y845076D01*
X189699Y843970D01*
X189339Y842160D01*
X189699Y840349D01*
X190661Y838910D01*
X189699Y837470D01*
X189339Y835660D01*
X189699Y833850D01*
X190661Y832410D01*
X189699Y830971D01*
X189339Y829160D01*
X189699Y827350D01*
X190341Y826389D01*
Y820457D01*
X187913Y818029D01*
X186740Y818515D01*
Y828040D01*
X186543Y829031D01*
X185981Y829871D01*
X185141Y830433D01*
X184150Y830630D01*
X182908D01*
X182102Y831611D01*
X182761Y834927D01*
X183642Y843868D01*
Y847090D01*
X92202D01*
Y849630D01*
X183642D01*
Y852852D01*
X182761Y861793D01*
X181009Y870605D01*
X178401Y879202D01*
X174963Y887503D01*
X170727Y895426D01*
X165736Y902896D01*
X160036Y909841D01*
X153683Y916194D01*
X149878Y919318D01*
X149910Y919480D01*
Y937260D01*
X149713Y938251D01*
X149151Y939091D01*
X148311Y939653D01*
X147320Y939850D01*
X116182D01*
X115910Y940864D01*
X115898Y941120D01*
X118483Y943704D01*
X120338Y946919D01*
X121299Y950504D01*
Y954216D01*
X120338Y957801D01*
X118483Y961016D01*
X115858Y963640D01*
X112643Y965496D01*
X109058Y966457D01*
X105346D01*
X101761Y965496D01*
X98546Y963640D01*
X95922Y961016D01*
X94066Y957801D01*
X93996Y957539D01*
X89409D01*
X89338Y957801D01*
X87482Y961016D01*
X84858Y963640D01*
X81643Y965496D01*
X78058Y966457D01*
X74346D01*
X70761Y965496D01*
X67546Y963640D01*
X64922Y961016D01*
X63066Y957801D01*
X62105Y954216D01*
Y950504D01*
X63066Y946919D01*
X64214Y944930D01*
X63481Y943660D01*
X3885D01*
Y996115D01*
X615165D01*
X615651Y994942D01*
D02*
G37*
G36*
X694690Y995680D02*
Y981620D01*
X687070D01*
Y970080D01*
Y958540D01*
X694690D01*
Y956120D01*
X687070D01*
Y944080D01*
X685800D01*
Y942810D01*
X673760D01*
Y932040D01*
Y921350D01*
X685800D01*
Y920080D01*
X687070D01*
Y908040D01*
X694690D01*
Y905620D01*
X687070D01*
Y894080D01*
Y882540D01*
X694690D01*
Y714543D01*
X693517Y714057D01*
X676985Y730589D01*
Y802294D01*
X676689Y803781D01*
X675847Y805041D01*
X666395Y814493D01*
X666604Y816080D01*
X666638Y816100D01*
X668530Y817992D01*
X669868Y820308D01*
X670560Y822892D01*
Y825568D01*
X669868Y828152D01*
X668530Y830468D01*
X666638Y832360D01*
X664322Y833698D01*
X661738Y834390D01*
X659062D01*
X656478Y833698D01*
X654162Y832360D01*
X652270Y830468D01*
X651502Y829139D01*
X650196Y829416D01*
X649983Y830487D01*
X649141Y831748D01*
X645829Y835059D01*
X629558Y851330D01*
X629976Y852708D01*
X630572Y852827D01*
X631833Y853669D01*
X632905Y854741D01*
X634109Y854046D01*
X636370Y853440D01*
X638710D01*
X640971Y854046D01*
X642999Y855216D01*
X644654Y856871D01*
X645824Y858899D01*
X646430Y861160D01*
Y863500D01*
X645824Y865761D01*
X644654Y867789D01*
X642999Y869444D01*
X640971Y870614D01*
X638710Y871220D01*
X636370D01*
X634109Y870614D01*
X632081Y869444D01*
X630426Y867789D01*
X629256Y865761D01*
X628650Y863500D01*
Y861474D01*
X627477Y860300D01*
X616326D01*
X601855Y874771D01*
Y880013D01*
X603125Y880470D01*
X604899Y879446D01*
X607060Y878867D01*
Y887730D01*
X608330D01*
Y889000D01*
X617193D01*
X616614Y891161D01*
X615444Y893189D01*
X615275Y893358D01*
X615761Y894531D01*
X626110D01*
X626110Y894531D01*
X627881Y894883D01*
X629383Y895887D01*
X634463Y900967D01*
X634463Y900967D01*
X635321Y902251D01*
X636702Y902665D01*
X637161Y902206D01*
X639189Y901036D01*
X641450Y900430D01*
X643790D01*
X646051Y901036D01*
X648079Y902206D01*
X648490Y902618D01*
X649135Y902350D01*
X660300D01*
X670840D01*
Y914120D01*
X669436D01*
X668340Y914540D01*
Y917810D01*
X659050D01*
Y920350D01*
X668340D01*
Y921040D01*
Y927540D01*
Y934040D01*
Y940540D01*
Y949620D01*
X669436Y950040D01*
X670840D01*
Y961810D01*
X660300D01*
X649760D01*
Y955507D01*
X648490Y954828D01*
X648308Y954949D01*
X648308Y954949D01*
X648308Y954949D01*
X647240Y955162D01*
X646326Y955344D01*
X646326Y955344D01*
X646326Y955344D01*
X640080D01*
Y956210D01*
X639474Y958471D01*
X638304Y960499D01*
X636649Y962154D01*
X634621Y963324D01*
X634059Y963475D01*
Y980771D01*
X639826D01*
X640076Y980821D01*
X649986D01*
Y984175D01*
X652653D01*
Y981456D01*
X663071D01*
X663321Y981406D01*
X670179D01*
X670429Y981456D01*
X673760D01*
Y971350D01*
X684530D01*
Y981620D01*
X680847D01*
Y986790D01*
X674497D01*
Y988060D01*
X673227D01*
Y994664D01*
X670429D01*
X670179Y994714D01*
X663321D01*
X663071Y994664D01*
X652653D01*
Y991945D01*
X649986D01*
Y995299D01*
X650918Y996115D01*
X694510D01*
X694690Y995680D01*
D02*
G37*
G36*
X408768Y977825D02*
X408733Y977803D01*
X407891Y976542D01*
X407595Y975056D01*
Y972895D01*
X405892D01*
X404405Y972599D01*
X403145Y971757D01*
X403065Y971677D01*
X388239D01*
Y961263D01*
X408559D01*
Y965125D01*
X411480D01*
X412967Y965421D01*
X413946Y966075D01*
X414927Y965732D01*
X415215Y965512D01*
Y963930D01*
X415511Y962443D01*
X416353Y961183D01*
X417613Y960341D01*
X419100Y960045D01*
X423521D01*
X424262Y958775D01*
X423987Y958290D01*
X408559D01*
Y958977D01*
X388239D01*
Y957174D01*
X386969Y956716D01*
X386007Y957359D01*
X384520Y957655D01*
X354301D01*
X353961Y958925D01*
X354709Y959356D01*
X356364Y961011D01*
X357534Y963039D01*
X358113Y965200D01*
X340387D01*
X340966Y963039D01*
X342136Y961011D01*
X343791Y959356D01*
X344539Y958925D01*
X344199Y957655D01*
X335661D01*
Y958977D01*
X315341D01*
Y958977D01*
X314146Y959157D01*
Y961083D01*
X315341Y961263D01*
X315416Y961263D01*
X324231D01*
Y966470D01*
Y971677D01*
X315416D01*
X315341Y971677D01*
X314146Y971857D01*
Y974132D01*
X319109Y979095D01*
X408382D01*
X408768Y977825D01*
D02*
G37*
G36*
X563174Y918128D02*
X562701Y916805D01*
X560946Y916334D01*
X558918Y915164D01*
X557263Y913509D01*
X556093Y911481D01*
X555487Y909220D01*
Y906880D01*
X556093Y904619D01*
X557002Y903045D01*
X556400Y901775D01*
X543586D01*
X542100Y901479D01*
X540840Y900637D01*
X526093Y885891D01*
X525077Y886670D01*
X525174Y886839D01*
X525780Y889100D01*
Y891440D01*
X525174Y893701D01*
X524004Y895729D01*
X522349Y897384D01*
X522336Y897391D01*
X522676Y898661D01*
X523405D01*
Y907170D01*
X525276D01*
Y898661D01*
X533404D01*
Y904879D01*
X534504Y905514D01*
X534970Y905245D01*
X537231Y904639D01*
X539572D01*
X541833Y905245D01*
X543860Y906415D01*
X545515Y908071D01*
X546685Y910098D01*
X547291Y912359D01*
Y914700D01*
X546685Y916961D01*
X546659Y917007D01*
X547307Y918424D01*
X548768Y918816D01*
X550795Y919986D01*
X552450Y921641D01*
X553359Y923215D01*
X558086D01*
X563174Y918128D01*
D02*
G37*
G36*
X540831Y882456D02*
Y873106D01*
Y863106D01*
Y850251D01*
X540234Y850004D01*
X539561Y849838D01*
X537592Y850975D01*
X535331Y851581D01*
X532990D01*
X530729Y850975D01*
X528702Y849804D01*
X527046Y848149D01*
X525876Y846122D01*
X525270Y843861D01*
Y841520D01*
X525876Y839259D01*
X527046Y837232D01*
X528702Y835577D01*
X530729Y834407D01*
X532990Y833801D01*
X535331D01*
X535939Y833964D01*
X536946Y833191D01*
Y781724D01*
X535773Y781238D01*
X535300Y781710D01*
X533863Y782540D01*
X533404Y783661D01*
X533404Y783661D01*
X533404Y783661D01*
Y800679D01*
X478131D01*
X477663Y801201D01*
X477994Y802390D01*
X478172Y802585D01*
X478196Y802590D01*
X479456Y803432D01*
X484077Y808053D01*
X484919Y809313D01*
X485215Y810800D01*
Y858163D01*
X486485Y858765D01*
X488059Y857856D01*
X490320Y857250D01*
X492660D01*
X494921Y857856D01*
X496949Y859026D01*
X498604Y860681D01*
X499774Y862709D01*
X500380Y864970D01*
Y867310D01*
X499774Y869571D01*
X498865Y871145D01*
X499467Y872415D01*
X527385D01*
X528872Y872711D01*
X530132Y873553D01*
X539561Y882982D01*
X540831Y882456D01*
D02*
G37*
G36*
X586665Y846645D02*
Y819623D01*
X585395Y819097D01*
X584579Y819914D01*
X582551Y821084D01*
X580390Y821663D01*
Y812800D01*
Y803937D01*
X582551Y804516D01*
X584579Y805686D01*
X585395Y806503D01*
X586665Y805977D01*
Y754351D01*
X585395Y754011D01*
X584964Y754759D01*
X583309Y756414D01*
X583030Y756575D01*
Y791990D01*
X582635Y793972D01*
X582635Y793972D01*
X582635Y793972D01*
X582071Y794816D01*
X581513Y795652D01*
X572520Y804646D01*
X572561Y804990D01*
X573049Y805299D01*
X573907Y805544D01*
X575689Y804516D01*
X577850Y803937D01*
Y812800D01*
Y822800D01*
X577790Y822893D01*
X577790Y822894D01*
X578440Y824020D01*
X579046Y826281D01*
Y828622D01*
X578440Y830883D01*
X577270Y832910D01*
X575614Y834565D01*
X574029Y835480D01*
X573634Y836469D01*
X573670Y837028D01*
X574687Y838790D01*
X575293Y841051D01*
Y843392D01*
X574687Y845653D01*
X573517Y847680D01*
X571861Y849336D01*
X570183Y850305D01*
X570042Y851371D01*
X570131Y851741D01*
X571301Y852417D01*
X572957Y854072D01*
X574127Y856099D01*
X574399Y857115D01*
X575816Y857495D01*
X586665Y846645D01*
D02*
G37*
G36*
X626870Y817992D02*
X628762Y816100D01*
X631078Y814762D01*
X633662Y814070D01*
X636338D01*
X638922Y814762D01*
X641238Y816100D01*
X643130Y817992D01*
X643815Y819178D01*
X645085Y818838D01*
Y813981D01*
X645381Y812494D01*
X646223Y811234D01*
X647711Y809746D01*
X648971Y808904D01*
X650458Y808608D01*
X654476D01*
X654817Y807338D01*
X654162Y806960D01*
X652270Y805068D01*
X650932Y802752D01*
X650240Y800168D01*
Y797492D01*
X650932Y794908D01*
X652270Y792592D01*
X654162Y790700D01*
X656478Y789362D01*
X659062Y788670D01*
X661738D01*
X664322Y789362D01*
X666638Y790700D01*
X667945Y792007D01*
X669215Y791481D01*
Y780779D01*
X667945Y780253D01*
X666638Y781560D01*
X664322Y782898D01*
X661738Y783590D01*
X661670D01*
Y773430D01*
Y763270D01*
X661738D01*
X664322Y763962D01*
X666638Y765300D01*
X667945Y766607D01*
X669215Y766081D01*
Y728980D01*
X669511Y727493D01*
X670353Y726233D01*
X690805Y705781D01*
Y654519D01*
X689535Y653993D01*
X688738Y654790D01*
X686422Y656128D01*
X683838Y656820D01*
X681162D01*
X678578Y656128D01*
X676262Y654790D01*
X674370Y652898D01*
X673032Y650582D01*
X673023Y650545D01*
X626978D01*
X626968Y650582D01*
X625630Y652898D01*
X623738Y654790D01*
X621422Y656128D01*
X621385Y656138D01*
Y661801D01*
X631397Y671814D01*
X632239Y673074D01*
X632425Y674007D01*
X633710Y674468D01*
X633764Y674463D01*
X634621Y673606D01*
X636649Y672436D01*
X638910Y671830D01*
X641250D01*
X643511Y672436D01*
X645539Y673606D01*
X647194Y675261D01*
X648364Y677289D01*
X648970Y679550D01*
Y681890D01*
X648364Y684151D01*
X647194Y686179D01*
X645539Y687834D01*
X643511Y689004D01*
X643330Y689053D01*
Y713704D01*
X644269Y714246D01*
X645924Y715901D01*
X647094Y717929D01*
X647700Y720190D01*
Y722530D01*
X647094Y724791D01*
X645924Y726819D01*
X644269Y728474D01*
X642241Y729644D01*
X639980Y730250D01*
X637640D01*
X635379Y729644D01*
X633805Y728735D01*
X632535Y729337D01*
Y762529D01*
X633542Y763302D01*
X633662Y763270D01*
X633730D01*
Y773430D01*
X635000D01*
D01*
X633730D01*
Y783590D01*
X633662D01*
X631078Y782898D01*
X628762Y781560D01*
X626870Y779668D01*
X626185Y778481D01*
X624915Y778822D01*
Y793438D01*
X626185Y793779D01*
X626870Y792592D01*
X628762Y790700D01*
X631078Y789362D01*
X633662Y788670D01*
X636338D01*
X638922Y789362D01*
X641238Y790700D01*
X643130Y792592D01*
X644468Y794908D01*
X645160Y797492D01*
Y800168D01*
X644468Y802752D01*
X643130Y805068D01*
X641238Y806960D01*
X638922Y808298D01*
X636338Y808990D01*
X633662D01*
X631078Y808298D01*
X628762Y806960D01*
X626870Y805068D01*
X626185Y803881D01*
X624915Y804222D01*
Y818838D01*
X626185Y819179D01*
X626870Y817992D01*
D02*
G37*
G36*
X460275Y783661D02*
X465456D01*
Y779161D01*
X449498Y763203D01*
X448175Y763676D01*
X447704Y765431D01*
X446534Y767459D01*
X444879Y769114D01*
X442851Y770284D01*
X440590Y770890D01*
X438250D01*
X435989Y770284D01*
X433961Y769114D01*
X432306Y767459D01*
X431412Y765910D01*
X419539D01*
X419372Y767179D01*
X421261Y767686D01*
X423289Y768856D01*
X424944Y770511D01*
X426114Y772539D01*
X426606Y774376D01*
X427791Y775167D01*
X429260Y776636D01*
Y783100D01*
X431800D01*
Y777782D01*
X432099D01*
X433648Y778090D01*
X434962Y778968D01*
X435810Y780237D01*
X436035Y780274D01*
X437125Y780235D01*
X437486Y778889D01*
X438656Y776861D01*
X440311Y775206D01*
X442339Y774036D01*
X444600Y773430D01*
X446940D01*
X449201Y774036D01*
X451229Y775206D01*
X452884Y776861D01*
X454054Y778889D01*
X454660Y781150D01*
Y783490D01*
X454791Y783661D01*
X458405D01*
Y792170D01*
X460275D01*
Y783661D01*
D02*
G37*
G36*
X549900Y806450D02*
X550047Y805711D01*
X550196Y804964D01*
X550196Y804964D01*
X550196Y804963D01*
X550619Y804330D01*
X551038Y803703D01*
X554068Y800673D01*
X554068Y800673D01*
X554068Y800673D01*
X554694Y800254D01*
X554988Y800058D01*
X555007Y799835D01*
X554773Y798746D01*
X554772Y798745D01*
X552829Y798224D01*
X550801Y797054D01*
X549146Y795399D01*
X547976Y793371D01*
X547397Y791210D01*
X556260D01*
Y789940D01*
X557530D01*
Y780687D01*
X557766Y779825D01*
X556372Y779020D01*
X554480Y777128D01*
X553142Y774812D01*
X552450Y772228D01*
Y769552D01*
X553142Y766968D01*
X554480Y764652D01*
X556372Y762760D01*
X558688Y761422D01*
X561272Y760730D01*
X563948D01*
X566532Y761422D01*
X568848Y762760D01*
X570740Y764652D01*
X571400Y765796D01*
X572671Y765455D01*
Y756575D01*
X572391Y756414D01*
X570736Y754759D01*
X569566Y752731D01*
X568960Y750470D01*
Y748130D01*
X569566Y745869D01*
X570736Y743841D01*
X572391Y742186D01*
X574419Y741016D01*
X576680Y740410D01*
X579020D01*
X581281Y741016D01*
X583309Y742186D01*
X584964Y743841D01*
X585395Y744589D01*
X586665Y744249D01*
Y726411D01*
X585395Y726071D01*
X584964Y726819D01*
X583309Y728474D01*
X581281Y729644D01*
X579020Y730250D01*
X576680D01*
X574924Y729780D01*
X544716Y759988D01*
Y808106D01*
X549900D01*
Y806450D01*
D02*
G37*
%LPC*%
G36*
X132598Y990600D02*
X129923D01*
X127338Y989908D01*
X125022Y988570D01*
X123130Y986678D01*
X121792Y984362D01*
X121100Y981778D01*
Y979102D01*
X121792Y976518D01*
X123130Y974202D01*
X125022Y972310D01*
X127338Y970972D01*
X129923Y970280D01*
X132598D01*
X135182Y970972D01*
X137499Y972310D01*
X139390Y974202D01*
X140728Y976518D01*
X141420Y979102D01*
Y981778D01*
X140728Y984362D01*
X139390Y986678D01*
X137499Y988570D01*
X135182Y989908D01*
X132598Y990600D01*
D02*
G37*
G36*
X107198D02*
X104522D01*
X101938Y989908D01*
X99622Y988570D01*
X97730Y986678D01*
X96392Y984362D01*
X95700Y981778D01*
Y979102D01*
X96392Y976518D01*
X97730Y974202D01*
X99622Y972310D01*
X101938Y970972D01*
X104522Y970280D01*
X107198D01*
X109782Y970972D01*
X112099Y972310D01*
X113990Y974202D01*
X115328Y976518D01*
X116020Y979102D01*
Y981778D01*
X115328Y984362D01*
X113990Y986678D01*
X112099Y988570D01*
X109782Y989908D01*
X107198Y990600D01*
D02*
G37*
G36*
X33020Y974063D02*
Y966470D01*
X40613D01*
X40034Y968631D01*
X38864Y970659D01*
X37209Y972314D01*
X35181Y973484D01*
X33020Y974063D01*
D02*
G37*
G36*
X30480D02*
X28319Y973484D01*
X26291Y972314D01*
X24636Y970659D01*
X23466Y968631D01*
X22887Y966470D01*
X30480D01*
Y974063D01*
D02*
G37*
G36*
X40613Y963930D02*
X33020D01*
Y956337D01*
X35181Y956916D01*
X37209Y958086D01*
X38864Y959741D01*
X40034Y961769D01*
X40613Y963930D01*
D02*
G37*
G36*
X30480D02*
X22887D01*
X23466Y961769D01*
X24636Y959741D01*
X26291Y958086D01*
X28319Y956916D01*
X30480Y956337D01*
Y963930D01*
D02*
G37*
G36*
X510161Y957047D02*
Y949454D01*
X517755D01*
X517176Y951615D01*
X516005Y953642D01*
X514350Y955298D01*
X512323Y956468D01*
X510161Y957047D01*
D02*
G37*
G36*
X184150Y950187D02*
Y942594D01*
X191743D01*
X191164Y944755D01*
X189994Y946783D01*
X188339Y948438D01*
X186311Y949608D01*
X184150Y950187D01*
D02*
G37*
G36*
X181610D02*
X179449Y949608D01*
X177421Y948438D01*
X175766Y946783D01*
X174596Y944755D01*
X174017Y942594D01*
X181610D01*
Y950187D01*
D02*
G37*
G36*
X517755Y946914D02*
X510161D01*
Y939321D01*
X512323Y939900D01*
X514350Y941070D01*
X516005Y942725D01*
X517176Y944752D01*
X517755Y946914D01*
D02*
G37*
G36*
X507621D02*
X500028D01*
X500607Y944752D01*
X501778Y942725D01*
X503433Y941070D01*
X505460Y939900D01*
X507621Y939321D01*
Y946914D01*
D02*
G37*
G36*
X191743Y940054D02*
X184150D01*
Y932461D01*
X186311Y933040D01*
X188339Y934210D01*
X189994Y935865D01*
X191164Y937893D01*
X191743Y940054D01*
D02*
G37*
G36*
X181610D02*
X174017D01*
X174596Y937893D01*
X175766Y935865D01*
X177421Y934210D01*
X179449Y933040D01*
X181610Y932461D01*
Y940054D01*
D02*
G37*
G36*
X522750Y935258D02*
X521201Y934950D01*
X519888Y934072D01*
X519010Y932758D01*
X518702Y931209D01*
Y930910D01*
X522750D01*
Y935258D01*
D02*
G37*
G36*
X278130Y934693D02*
Y927100D01*
X285723D01*
X285144Y929261D01*
X283974Y931289D01*
X282319Y932944D01*
X280291Y934114D01*
X278130Y934693D01*
D02*
G37*
G36*
X275590D02*
X273429Y934114D01*
X271401Y932944D01*
X269746Y931289D01*
X268576Y929261D01*
X267997Y927100D01*
X275590D01*
Y934693D01*
D02*
G37*
G36*
X285723Y924560D02*
X278130D01*
Y916967D01*
X280291Y917546D01*
X282319Y918716D01*
X283974Y920371D01*
X285144Y922399D01*
X285723Y924560D01*
D02*
G37*
G36*
X275590D02*
X267997D01*
X268576Y922399D01*
X269746Y920371D01*
X271401Y918716D01*
X273429Y917546D01*
X275590Y916967D01*
Y924560D01*
D02*
G37*
G36*
X402780Y870076D02*
X397510D01*
Y865528D01*
X402780D01*
Y870076D01*
D02*
G37*
G36*
X394970D02*
X389700D01*
Y865528D01*
X394970D01*
Y870076D01*
D02*
G37*
G36*
X257344Y862582D02*
X251424D01*
Y856862D01*
X257344D01*
Y862582D01*
D02*
G37*
G36*
X265804D02*
X259884D01*
Y856740D01*
X260623Y855945D01*
X260428Y854652D01*
X259941Y854371D01*
X258286Y852716D01*
X257116Y850689D01*
X256537Y848528D01*
X274263D01*
X273684Y850689D01*
X272514Y852716D01*
X270859Y854371D01*
X269285Y855280D01*
Y857267D01*
X269285Y857267D01*
X269285Y857268D01*
X269151Y857941D01*
X268989Y858753D01*
X268989Y858754D01*
X268989Y858754D01*
X268565Y859387D01*
X268147Y860014D01*
X268147Y860014D01*
X268146Y860014D01*
X266893Y861267D01*
X265804Y862356D01*
Y862582D01*
D02*
G37*
G36*
X292290Y843892D02*
X287020D01*
Y839344D01*
X292290D01*
Y843892D01*
D02*
G37*
G36*
X284480D02*
X279210D01*
Y839344D01*
X284480D01*
Y843892D01*
D02*
G37*
G36*
X274263Y845988D02*
X266670D01*
Y838394D01*
X268831Y838973D01*
X270859Y840144D01*
X272514Y841799D01*
X273684Y843826D01*
X274263Y845988D01*
D02*
G37*
G36*
X264130D02*
X256537D01*
X257116Y843826D01*
X258286Y841799D01*
X259941Y840144D01*
X261969Y838973D01*
X264130Y838394D01*
Y845988D01*
D02*
G37*
G36*
X292290Y835128D02*
X287020D01*
Y830580D01*
X292290D01*
Y835128D01*
D02*
G37*
G36*
X284480D02*
X279210D01*
Y830580D01*
X284480D01*
Y835128D01*
D02*
G37*
G36*
X403860Y826743D02*
Y819150D01*
X411453D01*
X410874Y821311D01*
X409704Y823339D01*
X408049Y824994D01*
X406021Y826164D01*
X403860Y826743D01*
D02*
G37*
G36*
X401320D02*
X399159Y826164D01*
X397131Y824994D01*
X395476Y823339D01*
X394306Y821311D01*
X393727Y819150D01*
X401320D01*
Y826743D01*
D02*
G37*
G36*
Y816610D02*
X393727D01*
X394306Y814449D01*
X395476Y812421D01*
X397131Y810766D01*
X399159Y809596D01*
X401320Y809017D01*
Y816610D01*
D02*
G37*
G36*
X279654Y805584D02*
X265811D01*
Y797456D01*
X279654D01*
Y805584D01*
D02*
G37*
G36*
X224699Y799288D02*
X218979D01*
Y793368D01*
X224699D01*
Y799288D01*
D02*
G37*
G36*
X216439D02*
X210718D01*
Y793368D01*
X216439D01*
Y799288D01*
D02*
G37*
G36*
X224699Y790828D02*
X218979D01*
Y784908D01*
X224699D01*
Y790828D01*
D02*
G37*
G36*
X216439D02*
X210718D01*
Y784908D01*
X216439D01*
Y790828D01*
D02*
G37*
G36*
X257100Y779350D02*
X251380D01*
Y773430D01*
X257100D01*
Y779350D01*
D02*
G37*
G36*
X248840D02*
X243120D01*
Y773430D01*
X248840D01*
Y779350D01*
D02*
G37*
G36*
X299620Y800908D02*
X297280D01*
X295019Y800302D01*
X292991Y799131D01*
X291336Y797476D01*
X290166Y795449D01*
X289560Y793188D01*
Y790847D01*
X290166Y788586D01*
X291336Y786559D01*
X292991Y784904D01*
X293918Y784369D01*
Y771497D01*
X292807Y770387D01*
X291669Y771044D01*
X291956Y772115D01*
Y774456D01*
X291350Y776717D01*
X290180Y778744D01*
X288524Y780399D01*
X286497Y781570D01*
X284236Y782176D01*
X281895D01*
X279634Y781570D01*
X277607Y780399D01*
X275952Y778744D01*
X275092Y777255D01*
X272500D01*
Y779350D01*
X269395D01*
Y782546D01*
X271305Y784456D01*
X279654D01*
Y792584D01*
X265811D01*
Y789950D01*
X262763Y786902D01*
X262377Y786323D01*
X261921Y785641D01*
X261921Y785641D01*
X261921Y785641D01*
X261791Y784987D01*
X261626Y784155D01*
Y779350D01*
X258520D01*
Y764970D01*
X272500D01*
Y768191D01*
X275742D01*
X275952Y767827D01*
X277607Y766172D01*
X279634Y765002D01*
X281895Y764396D01*
X284236D01*
X285307Y764683D01*
X285965Y763544D01*
X274862Y752441D01*
X274699Y752604D01*
X272671Y753774D01*
X270410Y754380D01*
X268070D01*
X265809Y753774D01*
X263781Y752604D01*
X262126Y750949D01*
X260956Y748921D01*
X260350Y746660D01*
Y744320D01*
X260956Y742059D01*
X262126Y740031D01*
X263781Y738376D01*
X265809Y737206D01*
X268070Y736600D01*
X270410D01*
X272671Y737206D01*
X274699Y738376D01*
X276354Y740031D01*
X277524Y742059D01*
X277782Y743022D01*
X279226Y743986D01*
X301655Y766415D01*
X302637Y767886D01*
X302982Y769620D01*
Y784369D01*
X303909Y784904D01*
X305564Y786559D01*
X306734Y788586D01*
X307340Y790847D01*
Y793188D01*
X306734Y795449D01*
X305564Y797476D01*
X303909Y799131D01*
X301881Y800302D01*
X299620Y800908D01*
D02*
G37*
G36*
X257100Y770890D02*
X251380D01*
Y764970D01*
X257100D01*
Y770890D01*
D02*
G37*
G36*
X248840D02*
X243120D01*
Y764970D01*
X248840D01*
Y770890D01*
D02*
G37*
G36*
X309880Y770863D02*
X307719Y770284D01*
X305691Y769114D01*
X304036Y767459D01*
X302866Y765431D01*
X302287Y763270D01*
X309880D01*
Y770863D01*
D02*
G37*
G36*
X339344Y758317D02*
X334010D01*
Y753237D01*
X339344D01*
Y758317D01*
D02*
G37*
G36*
X331470D02*
X326136D01*
Y753237D01*
X331470D01*
Y758317D01*
D02*
G37*
G36*
X320013Y760730D02*
X312420D01*
Y753137D01*
X314581Y753716D01*
X316609Y754886D01*
X318264Y756541D01*
X319434Y758569D01*
X320013Y760730D01*
D02*
G37*
G36*
X355600Y756893D02*
X353439Y756314D01*
X351411Y755144D01*
X349756Y753489D01*
X348586Y751461D01*
X348007Y749300D01*
X355600D01*
Y756893D01*
D02*
G37*
G36*
X422883Y737870D02*
X415290D01*
Y730277D01*
X417451Y730856D01*
X419479Y732026D01*
X421134Y733681D01*
X422304Y735709D01*
X422883Y737870D01*
D02*
G37*
G36*
X412750D02*
X405157D01*
X405736Y735709D01*
X406906Y733681D01*
X408561Y732026D01*
X410589Y730856D01*
X412750Y730277D01*
Y737870D01*
D02*
G37*
G36*
X50800Y737843D02*
Y730250D01*
X58393D01*
X57814Y732411D01*
X56644Y734439D01*
X54989Y736094D01*
X52961Y737264D01*
X50800Y737843D01*
D02*
G37*
G36*
X48260D02*
X46099Y737264D01*
X44071Y736094D01*
X42416Y734439D01*
X41246Y732411D01*
X40667Y730250D01*
X48260D01*
Y737843D01*
D02*
G37*
G36*
X226135Y723557D02*
X225935D01*
X225496Y723470D01*
X221690D01*
Y720966D01*
X221540Y720789D01*
X220270Y721256D01*
Y723470D01*
X206290D01*
Y711200D01*
X205672D01*
X203088Y710508D01*
X200772Y709170D01*
X198880Y707278D01*
X197542Y704962D01*
X196850Y702378D01*
Y699702D01*
X197542Y697118D01*
X198880Y694802D01*
X200772Y692910D01*
X203088Y691572D01*
X205672Y690880D01*
X208348D01*
X210932Y691572D01*
X213248Y692910D01*
X215140Y694802D01*
X216478Y697118D01*
X217170Y699702D01*
Y702378D01*
X216478Y704962D01*
X215140Y707278D01*
X214598Y707820D01*
X215124Y709090D01*
X220270D01*
Y716795D01*
X221540Y717261D01*
X221690Y717085D01*
Y709090D01*
X224432D01*
X224918Y707917D01*
X224280Y707278D01*
X222942Y704962D01*
X222250Y702378D01*
Y702310D01*
X232410D01*
X242570D01*
Y702378D01*
X241878Y704962D01*
X240540Y707278D01*
X238648Y709170D01*
X236332Y710508D01*
X235670Y710685D01*
Y712216D01*
X235933Y713535D01*
X235670Y714854D01*
Y715010D01*
X228680D01*
Y716280D01*
X227410D01*
Y723470D01*
X226574D01*
X226135Y723557D01*
D02*
G37*
G36*
X58393Y727710D02*
X50800D01*
Y720117D01*
X52961Y720696D01*
X54989Y721866D01*
X56644Y723521D01*
X57814Y725549D01*
X58393Y727710D01*
D02*
G37*
G36*
X48260D02*
X40667D01*
X41246Y725549D01*
X42416Y723521D01*
X44071Y721866D01*
X46099Y720696D01*
X48260Y720117D01*
Y727710D01*
D02*
G37*
G36*
X159230Y724740D02*
X153510D01*
Y718820D01*
X159230D01*
Y719657D01*
X159317Y720095D01*
X159230Y720533D01*
Y724740D01*
D02*
G37*
G36*
X141770D02*
X136050D01*
Y718820D01*
X141770D01*
Y724740D01*
D02*
G37*
G36*
X133510D02*
X127790D01*
Y718820D01*
X133510D01*
Y724740D01*
D02*
G37*
G36*
X150970D02*
X145250D01*
Y718820D01*
X150970D01*
Y724740D01*
D02*
G37*
G36*
X447040Y725143D02*
X444879Y724564D01*
X442851Y723394D01*
X441196Y721739D01*
X440026Y719711D01*
X439447Y717550D01*
X447040D01*
Y725143D01*
D02*
G37*
G36*
X235670Y723470D02*
X229950D01*
Y717550D01*
X235670D01*
Y723470D01*
D02*
G37*
G36*
X174630Y724740D02*
X160650D01*
Y712840D01*
X159380Y712072D01*
X159230Y712150D01*
Y716280D01*
X152240D01*
X145250D01*
Y710360D01*
X149653D01*
X149841Y709658D01*
X149892Y709090D01*
X148080Y707278D01*
X146742Y704962D01*
X146050Y702378D01*
Y699702D01*
X146742Y697118D01*
X148080Y694802D01*
X149972Y692910D01*
X152288Y691572D01*
X154872Y690880D01*
X157548D01*
X160132Y691572D01*
X162448Y692910D01*
X164340Y694802D01*
X165678Y697118D01*
X166370Y699702D01*
Y702378D01*
X166203Y703000D01*
X170387Y707183D01*
X171229Y708443D01*
X171525Y709930D01*
Y710360D01*
X174630D01*
Y724740D01*
D02*
G37*
G36*
X126370D02*
X112390D01*
Y715854D01*
X108383Y711847D01*
X107768Y710927D01*
X106748Y711200D01*
X104072D01*
X101488Y710508D01*
X99172Y709170D01*
X97280Y707278D01*
X95942Y704962D01*
X95250Y702378D01*
Y699702D01*
X95942Y697118D01*
X97280Y694802D01*
X99172Y692910D01*
X101488Y691572D01*
X104072Y690880D01*
X106748D01*
X109332Y691572D01*
X111648Y692910D01*
X113540Y694802D01*
X114878Y697118D01*
X115570Y699702D01*
Y702378D01*
X115015Y704450D01*
Y707491D01*
X117884Y710360D01*
X124093D01*
X124460Y709448D01*
X124492Y709090D01*
X122680Y707278D01*
X121342Y704962D01*
X120650Y702378D01*
Y699702D01*
X121342Y697118D01*
X122680Y694802D01*
X124572Y692910D01*
X126888Y691572D01*
X129472Y690880D01*
X132148D01*
X132654Y691016D01*
X134545Y689124D01*
Y685370D01*
X131440D01*
Y670990D01*
X145420D01*
Y685370D01*
X142315D01*
Y690733D01*
X142019Y692220D01*
X141177Y693480D01*
X139275Y695382D01*
X140278Y697118D01*
X140970Y699702D01*
Y702378D01*
X140278Y704962D01*
X138940Y707278D01*
X137128Y709090D01*
X137179Y709658D01*
X137367Y710360D01*
X141770D01*
Y716280D01*
X127790D01*
Y712150D01*
X127640Y712072D01*
X126370Y712840D01*
Y724740D01*
D02*
G37*
G36*
X411548Y711200D02*
X411480D01*
Y702310D01*
X420370D01*
Y702378D01*
X419678Y704962D01*
X418340Y707278D01*
X416448Y709170D01*
X414132Y710508D01*
X411548Y711200D01*
D02*
G37*
G36*
X408940D02*
X408872D01*
X406288Y710508D01*
X403972Y709170D01*
X402080Y707278D01*
X400742Y704962D01*
X400050Y702378D01*
Y702310D01*
X408940D01*
Y711200D01*
D02*
G37*
G36*
X420370Y699770D02*
X411480D01*
Y690880D01*
X411548D01*
X414132Y691572D01*
X416448Y692910D01*
X418340Y694802D01*
X419678Y697118D01*
X420370Y699702D01*
Y699770D01*
D02*
G37*
G36*
X408940D02*
X400050D01*
Y699702D01*
X400742Y697118D01*
X402080Y694802D01*
X403972Y692910D01*
X406288Y691572D01*
X408872Y690880D01*
X408940D01*
Y699770D01*
D02*
G37*
G36*
X242570D02*
X233680D01*
Y690880D01*
X233748D01*
X236332Y691572D01*
X238648Y692910D01*
X240540Y694802D01*
X241878Y697118D01*
X242570Y699702D01*
Y699770D01*
D02*
G37*
G36*
X231140D02*
X222250D01*
Y699702D01*
X222942Y697118D01*
X224280Y694802D01*
X226172Y692910D01*
X228488Y691572D01*
X231072Y690880D01*
X231140D01*
Y699770D01*
D02*
G37*
G36*
X31783Y713540D02*
X28217D01*
X24774Y712617D01*
X21686Y710835D01*
X19165Y708314D01*
X17383Y705226D01*
X16460Y701783D01*
Y698217D01*
X17383Y694774D01*
X19165Y691686D01*
X21686Y689165D01*
X24774Y687383D01*
X28217Y686460D01*
X31783D01*
X35226Y687383D01*
X38314Y689165D01*
X40835Y691686D01*
X42617Y694774D01*
X43540Y698217D01*
Y701783D01*
X42617Y705226D01*
X40835Y708314D01*
X38314Y710835D01*
X35226Y712617D01*
X31783Y713540D01*
D02*
G37*
G36*
X179630Y685370D02*
X173910D01*
Y679450D01*
X179630D01*
Y685370D01*
D02*
G37*
G36*
X160820D02*
X155100D01*
Y679450D01*
X160820D01*
Y685370D01*
D02*
G37*
G36*
X152560D02*
X146840D01*
Y679450D01*
X152560D01*
Y685370D01*
D02*
G37*
G36*
X171370D02*
X165650D01*
Y679450D01*
X171370D01*
Y685370D01*
D02*
G37*
G36*
X182948Y711200D02*
X180272D01*
X177688Y710508D01*
X175372Y709170D01*
X173480Y707278D01*
X172142Y704962D01*
X171450Y702378D01*
Y699702D01*
X172142Y697118D01*
X173480Y694802D01*
X175372Y692910D01*
X177688Y691572D01*
X180272Y690880D01*
X181015D01*
Y681320D01*
X181015Y681320D01*
X181015Y681320D01*
X181050Y681143D01*
Y670990D01*
X195030D01*
Y685370D01*
X188785D01*
Y693846D01*
X189740Y694802D01*
X191078Y697118D01*
X191770Y699702D01*
Y702378D01*
X191078Y704962D01*
X189740Y707278D01*
X187848Y709170D01*
X185532Y710508D01*
X182948Y711200D01*
D02*
G37*
G36*
X160820Y676910D02*
X155100D01*
Y670990D01*
X160820D01*
Y676910D01*
D02*
G37*
G36*
X152560D02*
X146840D01*
Y670990D01*
X152560D01*
Y676910D01*
D02*
G37*
G36*
X179630D02*
X172640D01*
X165650D01*
Y670990D01*
X171299D01*
X171980Y669970D01*
X173451Y668988D01*
X175185Y668643D01*
X176919Y668988D01*
X178389Y669970D01*
X179071Y670990D01*
X179630D01*
Y672740D01*
X179717Y673175D01*
Y675635D01*
X179630Y676070D01*
Y676910D01*
D02*
G37*
G36*
X18838Y611820D02*
X16162D01*
X13578Y611128D01*
X11262Y609790D01*
X9370Y607898D01*
X8032Y605582D01*
X7340Y602998D01*
Y600322D01*
X8032Y597738D01*
X9370Y595422D01*
X11262Y593530D01*
X13578Y592192D01*
X16162Y591500D01*
X18838D01*
X21422Y592192D01*
X23738Y593530D01*
X25630Y595422D01*
X26968Y597738D01*
X27660Y600322D01*
Y602998D01*
X26968Y605582D01*
X25630Y607898D01*
X23738Y609790D01*
X21422Y611128D01*
X18838Y611820D01*
D02*
G37*
G36*
Y513720D02*
X16162D01*
X13578Y513028D01*
X11262Y511690D01*
X9370Y509798D01*
X8032Y507482D01*
X7340Y504898D01*
Y502222D01*
X8032Y499638D01*
X9370Y497322D01*
X11262Y495430D01*
X13578Y494092D01*
X16162Y493400D01*
X18838D01*
X21422Y494092D01*
X23738Y495430D01*
X25630Y497322D01*
X26968Y499638D01*
X27660Y502222D01*
Y504898D01*
X26968Y507482D01*
X25630Y509798D01*
X23738Y511690D01*
X21422Y513028D01*
X18838Y513720D01*
D02*
G37*
G36*
X680847Y994664D02*
X675767D01*
Y989330D01*
X680847D01*
Y994664D01*
D02*
G37*
G36*
X670840Y976120D02*
X661570D01*
Y964350D01*
X670840D01*
Y976120D01*
D02*
G37*
G36*
X659030D02*
X649760D01*
Y964350D01*
X659030D01*
Y976120D01*
D02*
G37*
G36*
X684530Y968810D02*
X673760D01*
Y958540D01*
X684530D01*
Y968810D01*
D02*
G37*
G36*
Y956120D02*
X673760D01*
Y945350D01*
X684530D01*
Y956120D01*
D02*
G37*
G36*
Y918810D02*
X673760D01*
Y908040D01*
X684530D01*
Y918810D01*
D02*
G37*
G36*
Y905620D02*
X673760D01*
Y895350D01*
X684530D01*
Y905620D01*
D02*
G37*
G36*
X670840Y899810D02*
X661570D01*
Y888040D01*
X670840D01*
Y899810D01*
D02*
G37*
G36*
X659030D02*
X649760D01*
Y888040D01*
X659030D01*
Y899810D01*
D02*
G37*
G36*
X684530Y892810D02*
X673760D01*
Y882540D01*
X684530D01*
Y892810D01*
D02*
G37*
G36*
X617193Y886460D02*
X609600D01*
Y878867D01*
X611761Y879446D01*
X613789Y880616D01*
X615444Y882271D01*
X616614Y884299D01*
X617193Y886460D01*
D02*
G37*
G36*
X656590Y882623D02*
Y875030D01*
X664183D01*
X663604Y877191D01*
X662434Y879219D01*
X660779Y880874D01*
X658751Y882044D01*
X656590Y882623D01*
D02*
G37*
G36*
X654050D02*
X651889Y882044D01*
X649861Y880874D01*
X648206Y879219D01*
X647036Y877191D01*
X646457Y875030D01*
X654050D01*
Y882623D01*
D02*
G37*
G36*
X664183Y872490D02*
X656590D01*
Y864897D01*
X658751Y865476D01*
X660779Y866646D01*
X662434Y868301D01*
X663604Y870329D01*
X664183Y872490D01*
D02*
G37*
G36*
X654050D02*
X646457D01*
X647036Y870329D01*
X648206Y868301D01*
X649861Y866646D01*
X651889Y865476D01*
X654050Y864897D01*
Y872490D01*
D02*
G37*
G36*
X350520Y975333D02*
Y967740D01*
X358113D01*
X357534Y969901D01*
X356364Y971929D01*
X354709Y973584D01*
X352681Y974754D01*
X350520Y975333D01*
D02*
G37*
G36*
X347980D02*
X345819Y974754D01*
X343791Y973584D01*
X342136Y971929D01*
X340966Y969901D01*
X340387Y967740D01*
X347980D01*
Y975333D01*
D02*
G37*
G36*
X326898Y971752D02*
X326771Y971726D01*
Y967740D01*
X335661D01*
Y971677D01*
X327273D01*
X326898Y971752D01*
D02*
G37*
G36*
X335661Y965200D02*
X326771D01*
Y961263D01*
X335661D01*
Y965200D01*
D02*
G37*
G36*
X501650Y857223D02*
Y849630D01*
X509243D01*
X508664Y851791D01*
X507494Y853819D01*
X505839Y855474D01*
X503811Y856644D01*
X501650Y857223D01*
D02*
G37*
G36*
X499110D02*
X496949Y856644D01*
X494921Y855474D01*
X493266Y853819D01*
X492096Y851791D01*
X491517Y849630D01*
X499110D01*
Y857223D01*
D02*
G37*
G36*
X509243Y847090D02*
X501650D01*
Y839497D01*
X503811Y840076D01*
X505839Y841246D01*
X507494Y842901D01*
X508664Y844929D01*
X509243Y847090D01*
D02*
G37*
G36*
X499110D02*
X491517D01*
X492096Y844929D01*
X493266Y842901D01*
X494921Y841246D01*
X496949Y840076D01*
X499110Y839497D01*
Y847090D01*
D02*
G37*
G36*
X524510Y830553D02*
Y822960D01*
X532103D01*
X531524Y825121D01*
X530354Y827149D01*
X528699Y828804D01*
X526671Y829974D01*
X524510Y830553D01*
D02*
G37*
G36*
X521970D02*
X519809Y829974D01*
X517781Y828804D01*
X516126Y827149D01*
X514956Y825121D01*
X514377Y822960D01*
X521970D01*
Y830553D01*
D02*
G37*
G36*
X532103Y820420D02*
X524510D01*
Y812827D01*
X526671Y813406D01*
X528699Y814576D01*
X530354Y816231D01*
X531524Y818259D01*
X532103Y820420D01*
D02*
G37*
G36*
X521970D02*
X514377D01*
X514956Y818259D01*
X516126Y816231D01*
X517781Y814576D01*
X519809Y813406D01*
X521970Y812827D01*
Y820420D01*
D02*
G37*
G36*
X636338Y783590D02*
X636270D01*
Y774700D01*
X645160D01*
Y774768D01*
X644468Y777352D01*
X643130Y779668D01*
X641238Y781560D01*
X638922Y782898D01*
X636338Y783590D01*
D02*
G37*
G36*
X659130D02*
X659062D01*
X656478Y782898D01*
X654162Y781560D01*
X652270Y779668D01*
X650932Y777352D01*
X650240Y774768D01*
Y774700D01*
X659130D01*
Y783590D01*
D02*
G37*
G36*
Y772160D02*
X650240D01*
Y772092D01*
X650932Y769508D01*
X652270Y767192D01*
X654162Y765300D01*
X656478Y763962D01*
X659062Y763270D01*
X659130D01*
Y772160D01*
D02*
G37*
G36*
X645160D02*
X636270D01*
Y763270D01*
X636338D01*
X638922Y763962D01*
X641238Y765300D01*
X643130Y767192D01*
X644468Y769508D01*
X645160Y772092D01*
Y772160D01*
D02*
G37*
G36*
X671783Y713540D02*
X668217D01*
X664774Y712617D01*
X661686Y710835D01*
X659165Y708314D01*
X657383Y705226D01*
X656460Y701783D01*
Y698217D01*
X657383Y694774D01*
X659165Y691686D01*
X661686Y689165D01*
X664774Y687383D01*
X668217Y686460D01*
X671783D01*
X675226Y687383D01*
X678314Y689165D01*
X680835Y691686D01*
X682617Y694774D01*
X683540Y698217D01*
Y701783D01*
X682617Y705226D01*
X680835Y708314D01*
X678314Y710835D01*
X675226Y712617D01*
X671783Y713540D01*
D02*
G37*
G36*
X554990Y788670D02*
X547397D01*
X547976Y786509D01*
X549146Y784481D01*
X550801Y782826D01*
X552829Y781656D01*
X554990Y781077D01*
Y788670D01*
D02*
G37*
%LPD*%
D10*
X629276Y950164D02*
X646326D01*
X650869Y945620D02*
X662940D01*
X646326Y950164D02*
X648990Y947500D01*
X650869Y945620D01*
X397855Y760730D02*
X438150D01*
X439420Y762000D01*
X382615Y775971D02*
X397855Y760730D01*
X352928Y775971D02*
X382615D01*
X577850Y749300D02*
Y791990D01*
X568051Y801790D02*
X577850Y791990D01*
X76202Y952360D02*
X107202D01*
X76202Y744360D02*
X107202D01*
D11*
X534420Y920260D02*
Y921000D01*
Y920260D02*
X538401Y916279D01*
X545336Y927100D02*
X559695D01*
X538401Y913529D02*
Y916279D01*
X551238Y955040D02*
X593962D01*
X541684Y964594D02*
X551238Y955040D01*
X499489Y964594D02*
X541684D01*
X607468Y931953D02*
X607695Y932180D01*
X595630Y923338D02*
Y927100D01*
X600483Y931953D01*
X607468D01*
X593251Y920959D02*
X595630Y923338D01*
X593251Y918210D02*
Y920959D01*
X595630Y935990D02*
X595632Y935992D01*
X591403Y965200D02*
X622772Y996569D01*
X641404D01*
X643636Y994337D01*
Y988314D02*
Y994337D01*
Y988314D02*
X643890Y988060D01*
X593962Y955040D02*
X600312Y961390D01*
X600708Y947001D02*
X601741D01*
X600312Y961390D02*
X601980D01*
X628895Y955040D02*
X631190D01*
X601741Y947001D02*
X603743Y949003D01*
X572770Y965200D02*
X591403D01*
X416560Y922020D02*
X439919Y898661D01*
X416560Y922020D02*
Y923290D01*
X456916Y898661D02*
X459086Y900831D01*
X439919Y898661D02*
X456916D01*
X459086Y900831D02*
Y906916D01*
X459340Y907170D01*
X524180Y907330D02*
Y929480D01*
Y907330D02*
X524340Y907170D01*
X524020Y929640D02*
X524180Y929480D01*
X604520Y668020D02*
Y850449D01*
X583160Y646660D02*
X604520Y668020D01*
X596034Y687070D02*
X600710Y691746D01*
X586541Y868428D02*
X604520Y850449D01*
X600710Y691746D02*
Y708660D01*
X599440Y709930D02*
X600710Y708660D01*
X379730Y732790D02*
X380815D01*
X368300Y721360D02*
X379730Y732790D01*
X232529Y809454D02*
X234382D01*
X242316Y801520D01*
X445770Y854312D02*
X452992Y847090D01*
X444500Y861916D02*
X445952Y860464D01*
X453986D01*
X452992Y847090D02*
X459740D01*
X445770Y854312D02*
Y854710D01*
X434594Y861916D02*
X444500D01*
X453986Y860464D02*
X455930Y858520D01*
X443310Y857170D02*
X445770Y854710D01*
X434340Y862170D02*
X434594Y861916D01*
X438785Y872170D02*
X439721Y873106D01*
X441361D02*
X447095Y878840D01*
X431298Y872170D02*
X438785D01*
X454660Y878840D02*
X471170Y862330D01*
X439721Y873106D02*
X441361D01*
X447095Y878840D02*
X454660D01*
X375920Y867046D02*
Y876082D01*
X409750Y862736D02*
Y870410D01*
X402590Y877570D02*
X409750Y870410D01*
X375920Y876082D02*
X377408Y877570D01*
X402590D01*
X415290Y865650D02*
X422691D01*
X424212Y867170D01*
X434340D01*
X566420Y812410D02*
X578730D01*
X557849Y813781D02*
Y814746D01*
X553785Y817170D02*
X554721Y816234D01*
X559610Y812020D02*
X566420D01*
X557849Y813781D02*
X559610Y812020D01*
X556361Y816234D02*
X557849Y814746D01*
X554721Y816234D02*
X556361D01*
X549340Y817170D02*
X553785D01*
X578730Y812410D02*
X579120Y812800D01*
X645187Y932080D02*
X659050D01*
X643699Y922680D02*
Y930592D01*
X645187Y932080D01*
X637095Y922680D02*
X643699D01*
X635000D02*
X637095D01*
X543866Y842691D02*
X544133Y842424D01*
X534160Y842691D02*
X543866D01*
X549086Y842424D02*
X549340Y842170D01*
X544133Y842424D02*
X549086D01*
X643890Y988060D02*
X658495D01*
X630174Y956056D02*
Y987806D01*
Y956056D02*
X631190Y955040D01*
X629920Y988060D02*
X630174Y987806D01*
X396240Y845820D02*
X398098Y847678D01*
X396240Y845820D02*
Y847678D01*
X398098D02*
X413338D01*
X414020Y848360D01*
X420370Y891540D02*
X459740D01*
X416339Y860410D02*
X424180Y852568D01*
X409750Y862736D02*
X412076Y860410D01*
X416339D01*
X367571Y878840D02*
X372328Y883597D01*
X403311D01*
X365760Y878840D02*
X367571D01*
X356004Y890548D02*
X371919D01*
X375059Y887407D01*
X366953Y906545D02*
X369336D01*
X375059Y887407D02*
X404889D01*
X369336Y906545D02*
X381961Y919171D01*
X403311Y883597D02*
X407358Y879550D01*
X404889Y887407D02*
X408936Y883360D01*
X616022Y924798D02*
X632905Y941680D01*
X616022Y911687D02*
Y924798D01*
X638619Y916070D02*
Y921156D01*
Y916070D02*
X642620Y912069D01*
Y909320D02*
Y912069D01*
X632905Y941680D02*
X637095D01*
Y922680D02*
X638619Y921156D01*
X555679Y847424D02*
X565843Y857588D01*
X549340Y887170D02*
X563348D01*
X549340Y877170D02*
X562572D01*
X643082Y832312D02*
X646394Y829001D01*
Y825138D02*
Y829001D01*
X597971Y873162D02*
X614717Y856416D01*
X563214Y881916D02*
X578921Y866209D01*
X575111Y863693D02*
Y864631D01*
X565843Y857588D02*
Y859531D01*
X635000Y862330D02*
X637540D01*
X629086Y856416D02*
X635000Y862330D01*
X614717Y856416D02*
X629086D01*
X597971Y873162D02*
Y888825D01*
X594360Y710827D02*
Y849832D01*
X582731Y866850D02*
X599440Y850141D01*
X543586Y897890D02*
X563404D01*
X590351Y870006D02*
Y870944D01*
Y870006D02*
X623761Y836595D01*
X563404Y897890D02*
X590351Y870944D01*
X582731Y866850D02*
Y867787D01*
X562572Y877170D02*
X575111Y864631D01*
X563096Y892810D02*
X586541Y869365D01*
Y868428D02*
Y869365D01*
X575111Y863693D02*
X590550Y848254D01*
X543895Y892810D02*
X563096D01*
X623761Y834491D02*
Y836595D01*
X613139Y852606D02*
X622789D01*
X559695Y927100D02*
X597971Y888825D01*
X563348Y887170D02*
X582731Y867787D01*
X599440Y709930D02*
Y850141D01*
X594161Y871584D02*
Y878266D01*
X578921Y865272D02*
Y866209D01*
X549594Y881916D02*
X563214D01*
X622789Y852606D02*
X643082Y832312D01*
X578921Y865272D02*
X594360Y849832D01*
X564377Y908050D02*
X594161Y878266D01*
X621030Y831760D02*
X623761Y834491D01*
X590550Y719692D02*
Y848254D01*
X594161Y871584D02*
X613139Y852606D01*
X646394Y825138D02*
X648970Y822562D01*
Y813981D02*
Y822562D01*
X640196Y938580D02*
X659050D01*
X637095Y941680D02*
X640196Y938580D01*
X359410Y688700D02*
X367110Y681000D01*
Y680800D02*
Y681000D01*
X359410Y688700D02*
Y701040D01*
X351630Y680720D02*
X351710Y680800D01*
X330280Y680720D02*
X351630D01*
X329010Y681990D02*
X330280Y680720D01*
X334010Y697603D02*
Y701040D01*
X329010Y681990D02*
Y692603D01*
X334010Y697603D01*
X313610Y681990D02*
Y692603D01*
X308610Y697603D02*
X313610Y692603D01*
X308610Y697603D02*
Y701040D01*
X336768Y721360D02*
X368300D01*
X304880Y717550D02*
X368300D01*
X384810Y701040D01*
X333388Y724740D02*
X336768Y721360D01*
X367949Y669720D02*
X410640D01*
X322500Y646660D02*
X322500Y646660D01*
X364140Y665910D02*
X367949Y669720D01*
X369528Y665910D02*
X492845D01*
X361118Y657500D02*
X369528Y665910D01*
X202500Y646660D02*
X202500Y646660D01*
X442358Y750570D02*
X469340Y777552D01*
Y792170D01*
X373778Y750570D02*
X442358D01*
X457066Y750436D02*
X474340Y767710D01*
X462981Y737456D02*
X479340Y753816D01*
X484340Y745406D02*
Y792170D01*
X479499Y740566D02*
X484340Y745406D01*
X462981Y729627D02*
Y737456D01*
X461037Y727683D02*
X462981Y729627D01*
X457066Y748046D02*
Y750436D01*
X479499Y737817D02*
Y740566D01*
X474340Y767710D02*
Y792170D01*
X444500Y783590D02*
X445770Y784860D01*
Y791700D01*
X352188Y728980D02*
X373778Y750570D01*
X332740Y728980D02*
X352188D01*
X417830Y775970D02*
X419774Y777914D01*
X430230Y783100D02*
X430530D01*
X425044Y777914D02*
X430230Y783100D01*
X419774Y777914D02*
X425044D01*
X401320Y775842D02*
X411480Y786002D01*
X401320Y773430D02*
Y775842D01*
X411480Y786002D02*
Y786002D01*
X431657Y806179D01*
X476709D01*
X182880Y939038D02*
Y943610D01*
X434340Y857170D02*
X443310D01*
X434340Y852170D02*
X434594Y851916D01*
X440679D01*
X459740Y847090D02*
X470667Y836163D01*
X440679Y851916D02*
X466394Y826202D01*
Y818847D02*
X467360Y817880D01*
X466394Y818847D02*
Y826202D01*
X470667Y836163D02*
X470801D01*
X476709Y806179D02*
X481330Y810800D01*
Y870912D01*
X285750Y861742D02*
X305490D01*
X305824Y862076D02*
X322834D01*
X305490Y861742D02*
X305824Y862076D01*
X327660Y866902D02*
Y882777D01*
X322834Y862076D02*
X327660Y866902D01*
X303633Y810284D02*
X325374Y788543D01*
X289968Y810284D02*
X303633D01*
X287020Y811530D02*
X287804Y810746D01*
X289506D01*
X289968Y810284D01*
X532620Y922800D02*
X534420Y921000D01*
X621030Y771236D02*
Y831760D01*
X628560Y763706D02*
X628650D01*
X621030Y771236D02*
X628560Y763706D01*
X496352Y702093D02*
X509340Y715080D01*
Y792170D01*
X514086Y741697D02*
X519340Y746951D01*
X486410Y701040D02*
X487463Y702093D01*
X496352D01*
X514086Y699514D02*
Y741697D01*
Y699514D02*
X515100Y698500D01*
X650458Y812493D02*
X662902D01*
X648970Y813981D02*
X650458Y812493D01*
X662902D02*
X673100Y802294D01*
Y728980D02*
Y802294D01*
X694690Y122178D02*
Y707390D01*
X673100Y728980D02*
X694690Y707390D01*
X683672Y111160D02*
X694690Y122178D01*
X682500Y111160D02*
X683672D01*
X671070Y340930D02*
X682500Y352360D01*
X617500Y254260D02*
X682500D01*
X671070Y167590D02*
Y242830D01*
Y302626D02*
X682500Y291196D01*
X671070Y302626D02*
Y340930D01*
Y596926D02*
X682500Y585496D01*
X671070Y635230D02*
X682500Y646660D01*
X671070Y167590D02*
X682500Y156160D01*
Y254260D02*
Y291196D01*
X682500Y156160D02*
X682500Y156160D01*
X671070Y596926D02*
Y635230D01*
X617500Y548560D02*
X682500D01*
X671070Y498826D02*
X682500Y487396D01*
Y548560D02*
Y585496D01*
X671070Y498826D02*
Y537130D01*
X682500Y450460D02*
Y487396D01*
X671070Y242830D02*
X682500Y254260D01*
X671070Y537130D02*
X682500Y548560D01*
X306288Y728980D02*
X332740D01*
Y736473D01*
X332486Y862076D02*
X332994D01*
X357900Y837170D02*
X434340D01*
X328459Y866103D02*
X332486Y862076D01*
X332994D02*
X357900Y837170D01*
X327660Y804418D02*
X332486Y809244D01*
X327660Y788543D02*
Y804418D01*
X334264Y809244D02*
X357190Y832170D01*
X434340D01*
X332486Y809244D02*
X334264D01*
X264146Y858520D02*
X265400Y857267D01*
X304165Y731103D02*
Y744855D01*
X292100Y732790D02*
X300150Y724740D01*
X304165Y731103D02*
X306288Y728980D01*
X470148Y952253D02*
X473547Y948853D01*
X468239Y954161D02*
X470148Y952253D01*
X464647Y950568D02*
X468239Y954161D01*
X459259Y955957D02*
X464647Y950568D01*
X459259Y955957D02*
X465255Y961952D01*
X459866Y967340D02*
X465255Y961952D01*
X457463Y964937D02*
X459866Y967340D01*
X456565Y965835D02*
X457463Y964937D01*
X639445Y681355D02*
Y720725D01*
X638810Y721360D02*
X639445Y720725D01*
Y681355D02*
X640080Y680720D01*
X231406Y646660D02*
X250656Y665910D01*
X364140D01*
X410640Y669720D02*
X412750Y671830D01*
X492845Y665910D02*
X523240Y696305D01*
X333340Y657500D02*
X361118D01*
X322500Y646660D02*
X333340Y657500D01*
X551070Y635230D02*
X562500Y646660D01*
X497500D02*
X562500D01*
X497500Y646660D02*
X497500Y646660D01*
X682500D02*
X682500Y646660D01*
X617500Y646660D02*
X682500D01*
X617500Y646660D02*
X617500Y646660D01*
X682500Y548560D02*
X682500Y548560D01*
X617500Y548560D02*
X617500Y548560D01*
X551070Y537130D02*
X562500Y548560D01*
X497500Y548560D02*
X497500Y548560D01*
X562500D01*
X562500Y548560D01*
X431070Y537130D02*
X442500Y548560D01*
X377500D02*
X442500D01*
X442500Y548560D01*
X377500Y548560D02*
X377500Y548560D01*
X311070Y635230D02*
X322500Y646660D01*
X257500D02*
X322500D01*
X257500Y646660D02*
X257500Y646660D01*
X311070Y537130D02*
X322500Y548560D01*
X322500Y548560D01*
X257500Y548560D02*
X257500Y548560D01*
X322500D01*
X191070Y635230D02*
X202500Y646660D01*
X137500D02*
X202500D01*
X137500Y646660D02*
X137500Y646660D01*
X191070Y537130D02*
X202500Y548560D01*
X137500Y548560D02*
X137500Y548560D01*
X202500D01*
X202500Y548560D01*
X71070Y537130D02*
X82500Y548560D01*
X17500D02*
X82500D01*
X17500Y548560D02*
X17500Y548560D01*
X82500D02*
X82500Y548560D01*
X142500Y450460D02*
X142500Y450460D01*
X77500Y450460D02*
X77500Y450460D01*
X142500D01*
X322500D02*
X322500Y450460D01*
X311070Y439030D02*
X322500Y450460D01*
X257500Y450460D02*
X257500Y450460D01*
X322500D01*
X431070Y439030D02*
X442500Y450460D01*
X377500Y450460D02*
X377500Y450460D01*
X442500D01*
X442500Y450460D01*
X562500Y450460D02*
X562500Y450460D01*
X551070Y439030D02*
X562500Y450460D01*
X497500D02*
X562500D01*
X497500Y450460D02*
X497500Y450460D01*
X617500D02*
X682500D01*
X682500Y450460D01*
X617500Y450460D02*
X617500Y450460D01*
X221070Y340930D02*
X232500Y352360D01*
X167500D02*
X232500D01*
X232500Y352360D01*
X167500Y352360D02*
X167500Y352360D01*
X71070Y340930D02*
X82500Y352360D01*
X17500Y352360D02*
X17500Y352360D01*
X82500D01*
X82500Y352360D01*
X71070Y242830D02*
X82500Y254260D01*
X17500Y254260D02*
X17500Y254260D01*
X82500D01*
X82500Y254260D01*
X82500Y156160D02*
X82500Y156160D01*
X71070Y144730D02*
X82500Y156160D01*
X17500D02*
X82500D01*
X17500Y156160D02*
X17500Y156160D01*
X221070Y144730D02*
X232500Y156160D01*
X167500D02*
X232500D01*
X167500Y156160D02*
X167500Y156160D01*
X232500D02*
X232500Y156160D01*
X221070Y242830D02*
X232500Y254260D01*
X167500D02*
X232500D01*
X232500Y254260D01*
X167500Y254260D02*
X167500Y254260D01*
X371070Y242830D02*
X382500Y254260D01*
X317500Y254260D02*
X317500Y254260D01*
X382500D01*
X382500Y254260D01*
X382500Y156160D02*
X382500Y156160D01*
X371070Y144730D02*
X382500Y156160D01*
X317500Y156160D02*
X317500Y156160D01*
X382500D01*
X617500Y254260D02*
X617500Y254260D01*
X682500D02*
X682500Y254260D01*
X521070Y242830D02*
X532500Y254260D01*
X467500Y254260D02*
X467500Y254260D01*
X532500D01*
X532500Y254260D01*
X521070Y144730D02*
X532500Y156160D01*
X467500D02*
X532500D01*
X532500Y156160D01*
X467500Y156160D02*
X467500Y156160D01*
X671070Y144730D02*
X682500Y156160D01*
X617500Y156160D02*
X617500Y156160D01*
X682500D01*
Y58060D02*
X682500Y58060D01*
X617500Y58060D02*
X617500Y58060D01*
X682500D01*
X617500Y13060D02*
X682500D01*
X532500Y58060D02*
X532500Y58060D01*
X467500Y58060D02*
X467500Y58060D01*
X532500D01*
X467500Y13060D02*
X532500D01*
X317500Y58060D02*
X382500D01*
X317500Y58060D02*
X317500Y58060D01*
X382500D02*
X382500Y58060D01*
X317500Y13060D02*
X382500D01*
X167500Y58060D02*
X232500D01*
X167500Y58060D02*
X167500Y58060D01*
X232500D02*
X232500Y58060D01*
X167500Y13060D02*
X232500D01*
X17500Y58060D02*
X17500Y58060D01*
X82500D01*
X82500Y58060D01*
X17500Y13060D02*
X82500D01*
X671070Y69490D02*
Y144730D01*
X521070Y302626D02*
Y340930D01*
X467500Y352360D02*
X532500D01*
X467500Y352360D02*
X467500Y352360D01*
X431070Y388790D02*
X467500Y352360D01*
X521070Y340930D02*
X532500Y352360D01*
X532500Y352360D01*
X617500Y663410D02*
X628650Y674560D01*
X617500Y646660D02*
Y663410D01*
X562500Y646660D02*
X583160D01*
X551070Y559990D02*
Y635230D01*
Y559990D02*
X562500Y548560D01*
X551070Y461890D02*
X562500Y450460D01*
X551070Y461890D02*
Y537130D01*
Y400726D02*
Y439030D01*
Y400726D02*
X574038Y377758D01*
X592102D01*
X617500Y352360D01*
X682500Y352360D02*
X682500Y352360D01*
X617500Y352360D02*
X617500Y352360D01*
X682500D01*
X671070Y69490D02*
X682500Y58060D01*
X431070Y635230D02*
X442500Y646660D01*
X377500D02*
X442500D01*
X377500Y646660D02*
X377500Y646660D01*
X442500D02*
X442500Y646660D01*
X431070Y584911D02*
Y635230D01*
X442500Y548560D02*
Y573481D01*
X431070Y584911D02*
X442500Y573481D01*
X431070Y461890D02*
X442500Y450460D01*
X431070Y461890D02*
Y537130D01*
Y388790D02*
Y439030D01*
X532500Y254260D02*
Y291196D01*
X521070Y302626D02*
X532500Y291196D01*
X521070Y167590D02*
Y242830D01*
Y167590D02*
X532500Y156160D01*
X521070Y69490D02*
X532500Y58060D01*
X521070Y69490D02*
Y144730D01*
X311070Y596926D02*
Y635230D01*
X322500Y548560D02*
Y585496D01*
X311070Y596926D02*
X322500Y585496D01*
X311070Y498826D02*
X322500Y487396D01*
Y450460D02*
Y487396D01*
X311070Y498826D02*
Y537130D01*
Y362094D02*
X317500Y355664D01*
X311070Y362094D02*
Y439030D01*
X317500Y352360D02*
Y355664D01*
X371070Y340930D02*
X382500Y352360D01*
X317500D02*
X382500D01*
X382500Y352360D01*
X317500Y352360D02*
X317500Y352360D01*
X371070Y302626D02*
X382500Y291196D01*
X371070Y302626D02*
Y340930D01*
X382500Y254260D02*
Y291196D01*
X371070Y167590D02*
Y242830D01*
Y167590D02*
X382500Y156160D01*
X371070Y69490D02*
X382500Y58060D01*
X371070Y69490D02*
Y144730D01*
X221070Y106426D02*
X232500Y94995D01*
Y58060D02*
Y94995D01*
X221070Y106426D02*
Y144730D01*
X232500Y156160D02*
Y193095D01*
X221070Y204526D02*
X232500Y193095D01*
X221070Y204526D02*
Y242830D01*
Y302626D02*
Y340930D01*
X232500Y254260D02*
Y291196D01*
X221070Y302626D02*
X232500Y291196D01*
X185420Y441960D02*
X191070Y447610D01*
Y537130D01*
X162836Y441960D02*
X185420D01*
X131070Y410195D02*
X162836Y441960D01*
X131070Y400726D02*
Y410195D01*
Y400726D02*
X154038Y377758D01*
X207102D01*
X232500Y352360D01*
X191070Y596926D02*
Y635230D01*
X202500Y548560D02*
Y585496D01*
X191070Y596926D02*
X202500Y585496D01*
Y646660D02*
X231406D01*
X71070Y106426D02*
X82500Y94995D01*
Y58060D02*
Y94995D01*
X71070Y106426D02*
Y144730D01*
Y167590D02*
Y242830D01*
Y167590D02*
X82500Y156160D01*
Y254260D02*
Y291196D01*
X71070Y302626D02*
X82500Y291196D01*
X71070Y302626D02*
Y340930D01*
X66070Y368790D02*
X82500Y352360D01*
X66070Y368790D02*
Y439030D01*
X77500Y450460D01*
X82500Y646660D02*
X82500Y646660D01*
X71070Y635230D02*
X82500Y646660D01*
X71070Y559990D02*
X82500Y548560D01*
X71070Y559990D02*
Y635230D01*
Y460195D02*
X77500Y453764D01*
X71070Y460195D02*
Y537130D01*
X77500Y450460D02*
Y453764D01*
X532500Y13060D02*
X617500D01*
X382500D02*
X467500D01*
X232500D02*
X317500D01*
X82500D02*
X167500D01*
X82500Y111160D02*
X167500D01*
X232500D02*
X317500D01*
X382500D02*
X467500D01*
X532500D02*
X617500D01*
X532500Y209260D02*
X617500D01*
X382500D02*
X467500D01*
X232500D02*
X317500D01*
X82500D02*
X167500D01*
X82500Y307360D02*
X167500D01*
X232500D02*
X317500D01*
X382500D02*
X467500D01*
X532500D02*
X617500D01*
X562500Y405460D02*
X617500D01*
X442500D02*
X497500D01*
X322500D02*
X377500D01*
X142500D02*
X257500D01*
X82500Y503560D02*
X137500D01*
X202500D02*
X257500D01*
X322500D02*
X377500D01*
X442500D02*
X497500D01*
X562500D02*
X617500D01*
X562500Y601660D02*
X617500D01*
X442500D02*
X497500D01*
X322500D02*
X377500D01*
X202500D02*
X257500D01*
X82500D02*
X137500D01*
X17500Y646660D02*
X82500D01*
X17500Y646660D02*
X17500Y646660D01*
X628650Y674560D02*
Y763706D01*
X300150Y724740D02*
X333388D01*
X428001Y847424D02*
X434086D01*
X424180Y851245D02*
Y852568D01*
X434086Y847424D02*
X434340Y847170D01*
X424180Y851245D02*
X428001Y847424D01*
X412750Y671830D02*
X447965D01*
X472440Y696305D02*
Y703234D01*
X496570Y727365D01*
Y774700D01*
X447965Y671830D02*
X472440Y696305D01*
X529842Y773432D02*
Y774597D01*
X523240Y766830D02*
X529842Y773432D01*
X523240Y696305D02*
Y766830D01*
X418444Y879550D02*
X419634Y878360D01*
X407358Y879550D02*
X418444D01*
X423690Y878360D02*
X424879Y877170D01*
X419634Y878360D02*
X423690D01*
X424879Y877170D02*
X434340D01*
X420022Y883360D02*
X421212Y882170D01*
X434340D01*
X408936Y883360D02*
X420022D01*
X428001Y872424D02*
X431044D01*
X431298Y872170D01*
X465072Y887170D02*
X481330Y870912D01*
X434340Y887170D02*
X465072D01*
X454086Y791700D02*
Y796361D01*
X445770Y791700D02*
X454086D01*
X430530D02*
X445770D01*
X469340Y888290D02*
Y907170D01*
Y888290D02*
X491490Y866140D01*
X483870Y881290D02*
X488860Y876300D01*
X483870Y881290D02*
Y895615D01*
X516890Y890270D02*
Y893019D01*
X514340Y895570D02*
X516890Y893019D01*
X514340Y895570D02*
Y907170D01*
X499086Y907424D02*
X499225Y907286D01*
Y891214D02*
Y907286D01*
X499110Y891098D02*
X499225Y891214D01*
X525806Y880110D02*
X543586Y897890D01*
X483870Y895615D02*
X488404Y900149D01*
X527385Y876300D02*
X540831Y889746D01*
X490438Y880110D02*
X525806D01*
X488950Y881598D02*
Y895307D01*
X488860Y876300D02*
X527385D01*
X488950Y881598D02*
X490438Y880110D01*
X479340Y753816D02*
Y792170D01*
X590440Y699360D02*
Y706906D01*
X594360Y710827D01*
X582058Y711200D02*
X590550Y719692D01*
X540831Y758379D02*
X577850Y721360D01*
X540831Y758379D02*
Y834746D01*
X543001Y836916D01*
X549086D01*
X234840Y697640D02*
Y698610D01*
X232410Y701040D02*
X234840Y698610D01*
X454660Y915670D02*
X461010Y922020D01*
X457200Y933450D02*
X463956D01*
X478790Y911860D02*
Y918616D01*
X463956Y933450D02*
X478790Y918616D01*
X461010Y922020D02*
Y922028D01*
X454660Y914306D02*
Y915670D01*
X454340Y907170D02*
X454594Y907424D01*
Y914240D01*
X454660Y914306D01*
X570015Y827310D02*
X570156Y827451D01*
X549481Y827310D02*
X570015D01*
X556605Y832424D02*
X566403Y842222D01*
X549594Y847424D02*
X555679D01*
X549340Y847170D02*
X549594Y847424D01*
X441960Y969010D02*
X450215D01*
X441960Y965200D02*
Y969010D01*
X434340Y965200D02*
X441960D01*
X434340D02*
Y975056D01*
X426720D02*
X434340D01*
X426720Y963930D02*
Y975056D01*
X419100Y963930D02*
X426720D01*
X419100D02*
Y975056D01*
X411480D02*
X419100D01*
X411480Y969010D02*
Y975056D01*
X410210Y969010D02*
X411480D01*
X504340Y911660D02*
Y915520D01*
X471170Y948690D02*
X504340Y915520D01*
X453390Y969010D02*
X456565Y965835D01*
X450215Y969010D02*
X453390D01*
X405892D02*
X410210D01*
X450850Y933450D02*
X457200D01*
X450850Y915885D02*
Y933450D01*
X443230Y915885D02*
X450850D01*
X443230D02*
Y938530D01*
X435610D02*
X443230D01*
X435610Y915978D02*
Y938530D01*
X427990Y915978D02*
X435610D01*
X427990D02*
Y938530D01*
X420370D02*
X427990D01*
X420370Y933450D02*
Y938530D01*
X419100Y933450D02*
X420370D01*
X415290D02*
X419100D01*
X408940Y939800D02*
X415290Y933450D01*
X346710Y941070D02*
X354330Y933450D01*
X111130Y700930D02*
Y709100D01*
X210300Y698500D02*
Y713300D01*
X325501Y953770D02*
X335280D01*
X356438D02*
X384520D01*
X335280D02*
X356438D01*
X565900Y698500D02*
Y704330D01*
X399669Y939800D02*
X408940D01*
X392013Y946277D02*
X407071D01*
X384520Y953770D02*
X392013Y946277D01*
X407071D02*
X408468Y944880D01*
X458470D01*
X488950Y895307D02*
X493404Y899761D01*
Y901789D01*
X494340Y902725D02*
Y907170D01*
X493404Y901789D02*
X494340Y902725D01*
X488404Y900149D02*
Y901789D01*
X489340Y902725D02*
Y907170D01*
X488404Y901789D02*
X489340Y902725D01*
X409977Y901933D02*
X420370Y891540D01*
X408303Y901933D02*
X409977D01*
X325501Y941070D02*
X346710D01*
X398399D02*
X399669Y939800D01*
X458470Y944880D02*
X484086Y919264D01*
X399034Y954405D02*
X432435D01*
X433070Y955040D01*
X310261Y975741D02*
X317500Y982980D01*
X310261Y938657D02*
Y975741D01*
Y938657D02*
X320548Y928370D01*
X542319Y891234D02*
X543895Y892810D01*
X540831Y889746D02*
Y889746D01*
X542319Y891234D02*
X542319D01*
X540831Y889746D02*
X542319Y891234D01*
X565900Y704330D02*
X572770Y711200D01*
X582058D01*
X474086Y792424D02*
X474340Y792170D01*
X532620Y922800D02*
Y929253D01*
Y929640D01*
X464086Y895886D02*
Y906916D01*
X459740Y891540D02*
X464086Y895886D01*
X474086Y792424D02*
Y798509D01*
X471916Y800679D02*
X474086Y798509D01*
X456764Y800679D02*
X471916D01*
X455276Y799191D02*
X456764Y800679D01*
X455276Y797551D02*
Y799191D01*
X454086Y796361D02*
X455276Y797551D01*
X566420Y803420D02*
X566633D01*
X568051Y802002D01*
Y801790D02*
Y802002D01*
X549340Y827170D02*
X549481Y827310D01*
X419100Y844550D02*
X421480Y842170D01*
X434340D01*
X325501Y966470D02*
X326898Y967867D01*
X317500Y982980D02*
X449615D01*
X519086Y913509D01*
X265400Y847258D02*
Y857267D01*
X241777Y822970D02*
X257429Y807318D01*
Y792136D02*
Y807318D01*
X254067Y788774D02*
X257429Y792136D01*
X250762Y788774D02*
X254067D01*
X241777Y822970D02*
Y849810D01*
X217578Y874008D02*
X241777Y849810D01*
X222250Y878680D02*
Y891540D01*
X217578Y874008D02*
X222250Y878680D01*
X208280Y864710D02*
X217578Y874008D01*
X208080Y864710D02*
X208280D01*
X201801Y834519D02*
X207160Y829160D01*
X213970D01*
X201801Y834519D02*
Y836290D01*
X195932Y842160D02*
X201801Y836290D01*
X194970Y842160D02*
X195932D01*
X242316Y801520D02*
X250508D01*
X464086Y906916D02*
X464340Y907170D01*
X424491Y872170D02*
X427319D01*
X549340Y882170D02*
X549594Y881916D01*
X398399Y953770D02*
X399034Y954405D01*
X398399Y966470D02*
X403352D01*
X405892Y969010D01*
X484086Y907424D02*
Y919264D01*
Y907424D02*
X484340Y907170D01*
X167640Y709930D02*
Y717550D01*
X158750Y701040D02*
X167640Y709930D01*
X557530Y687070D02*
X596034D01*
X519340Y746951D02*
Y792170D01*
X250508Y788520D02*
X250762Y788774D01*
X269031Y878840D02*
X273938Y883747D01*
X274493D01*
X259027Y878840D02*
X269031D01*
X258614Y879252D02*
X259027Y878840D01*
X381961Y919171D02*
X384247D01*
X548295Y696305D02*
X557530Y687070D01*
X542694Y696305D02*
X548295D01*
X422411Y874250D02*
X424491Y872170D01*
X415290Y874250D02*
X422411D01*
X529340Y925973D02*
X532620Y929253D01*
X529340Y907170D02*
Y925973D01*
X553785Y806450D02*
Y811916D01*
X549340Y812170D02*
X553531D01*
X553785Y806450D02*
X556815Y803420D01*
X553531Y812170D02*
X553785Y811916D01*
X556815Y803420D02*
X566420D01*
X549594Y832424D02*
X556605D01*
X549340Y832170D02*
X549594Y832424D01*
X258614Y863852D02*
X258814D01*
X258414D02*
X258614D01*
X258814D02*
X264146Y858520D01*
X393446Y928370D02*
X398399D01*
X384247Y919171D02*
X393446Y928370D01*
X540500Y698500D02*
X542694Y696305D01*
X519086Y907424D02*
X519340Y907170D01*
X519086Y907424D02*
Y913509D01*
X320548Y928370D02*
X325501D01*
X320548Y941070D02*
X325501D01*
X265510Y772160D02*
Y784155D01*
X269875Y788520D01*
X272733D01*
X236289Y788718D02*
X236489D01*
X236687Y788520D02*
X250508D01*
X233109Y791898D02*
Y792098D01*
Y791898D02*
X236289Y788718D01*
X236489D02*
X236687Y788520D01*
X208280Y889372D02*
X217202Y898294D01*
X208280Y880110D02*
Y889372D01*
X214058Y901438D02*
X217202Y898294D01*
X214058Y901438D02*
Y907642D01*
X216290Y909874D02*
X228894D01*
X214058Y907642D02*
X216290Y909874D01*
X228894D02*
X236283Y902484D01*
Y885983D02*
Y902484D01*
Y885983D02*
X258414Y863852D01*
X255234Y882433D02*
Y883639D01*
Y882433D02*
X258414Y879252D01*
X258614D01*
X244475Y891540D02*
X247332D01*
X255234Y883639D01*
X205100Y876930D02*
X208280Y880110D01*
X222504Y904286D02*
X227297D01*
X230441Y894938D02*
Y901142D01*
X227297Y904286D02*
X230441Y901142D01*
X227297Y891794D02*
X230441Y894938D01*
X222250Y904540D02*
X222504Y904286D01*
Y891794D02*
X227297D01*
X222250Y891540D02*
X222504Y891794D01*
X131817Y720713D02*
X134780Y717750D01*
X260270Y676910D02*
X261100Y677740D01*
Y698500D01*
X275670Y676910D02*
Y677110D01*
X210300Y713300D02*
X213280Y716280D01*
X184900Y681320D02*
Y698500D01*
Y681320D02*
X188040Y678180D01*
X134100Y695063D02*
Y698500D01*
X138430Y678180D02*
Y690733D01*
X134100Y695063D02*
X138430Y690733D01*
X119380Y717350D02*
Y717550D01*
X111130Y709100D02*
X119380Y717350D01*
X108700Y698500D02*
X111130Y700930D01*
D20*
X107202Y744360D02*
D03*
X76202D02*
D03*
X107202Y952360D02*
D03*
X76202D02*
D03*
D24*
X108654Y745812D02*
X122242D01*
X134780Y717750D02*
X134980Y717550D01*
X438900Y698500D02*
X464300D01*
X353060Y791210D02*
X393909D01*
X414869Y812170D02*
X434340D01*
X298450Y769620D02*
Y792018D01*
X275670Y676910D02*
Y687670D01*
X286500Y698500D01*
X213970Y842160D02*
X221702D01*
X227901Y848360D01*
X228859D01*
X194970Y842160D02*
Y851600D01*
X208080Y864710D01*
X107202Y744360D02*
X108654Y745812D01*
X269240Y745490D02*
X270941Y747191D01*
X276021D01*
X298450Y769620D01*
X282503Y772723D02*
X283066Y773286D01*
X265510Y772160D02*
X266073Y772723D01*
X282503D01*
X152240Y717550D02*
X154785Y720095D01*
X225935Y719025D02*
X226135D01*
X228680Y716480D01*
X228668Y716093D02*
X231225Y713535D01*
X231401D01*
X172640Y678180D02*
X175185Y675635D01*
Y673175D02*
Y675635D01*
D25*
X156210Y701040D02*
D03*
X588010D02*
D03*
X562610D02*
D03*
X537210D02*
D03*
X461010D02*
D03*
X435610D02*
D03*
X410210D02*
D03*
X384810D02*
D03*
X334010D02*
D03*
X308610D02*
D03*
X257810D02*
D03*
X283210D02*
D03*
X232410D02*
D03*
X207010D02*
D03*
X181610D02*
D03*
X105410D02*
D03*
X105860Y980440D02*
D03*
X131260D02*
D03*
X562160D02*
D03*
X587560D02*
D03*
X486410Y701040D02*
D03*
X511810D02*
D03*
X130810D02*
D03*
X359410D02*
D03*
X635000Y824230D02*
D03*
Y798830D02*
D03*
Y773430D02*
D03*
X660400Y824230D02*
D03*
Y798830D02*
D03*
Y773430D02*
D03*
X617500Y58060D02*
D03*
Y13060D02*
D03*
X682500Y58060D02*
D03*
Y13060D02*
D03*
X467500Y58060D02*
D03*
Y13060D02*
D03*
X532500Y58060D02*
D03*
Y13060D02*
D03*
X317500Y58060D02*
D03*
Y13060D02*
D03*
X382500Y58060D02*
D03*
Y13060D02*
D03*
X167500Y58060D02*
D03*
Y13060D02*
D03*
X232500Y58060D02*
D03*
Y13060D02*
D03*
X17500Y58060D02*
D03*
Y13060D02*
D03*
X82500Y58060D02*
D03*
Y13060D02*
D03*
X17500Y156160D02*
D03*
Y111160D02*
D03*
X82500Y156160D02*
D03*
Y111160D02*
D03*
X167500Y156160D02*
D03*
Y111160D02*
D03*
X232500Y156160D02*
D03*
Y111160D02*
D03*
X317500Y156160D02*
D03*
Y111160D02*
D03*
X382500Y156160D02*
D03*
Y111160D02*
D03*
X467500Y156160D02*
D03*
Y111160D02*
D03*
X532500Y156160D02*
D03*
Y111160D02*
D03*
X617500Y156160D02*
D03*
Y111160D02*
D03*
X682500Y156160D02*
D03*
Y111160D02*
D03*
X617500Y254260D02*
D03*
Y209260D02*
D03*
X682500Y254260D02*
D03*
Y209260D02*
D03*
X467500Y254260D02*
D03*
Y209260D02*
D03*
X532500Y254260D02*
D03*
Y209260D02*
D03*
X317500Y254260D02*
D03*
Y209260D02*
D03*
X382500Y254260D02*
D03*
Y209260D02*
D03*
X167500Y254260D02*
D03*
Y209260D02*
D03*
X232500Y254260D02*
D03*
Y209260D02*
D03*
X17500Y254260D02*
D03*
Y209260D02*
D03*
X82500Y254260D02*
D03*
Y209260D02*
D03*
X17500Y352360D02*
D03*
Y307360D02*
D03*
X82500Y352360D02*
D03*
Y307360D02*
D03*
X167500Y352360D02*
D03*
Y307360D02*
D03*
X232500Y352360D02*
D03*
Y307360D02*
D03*
X317500Y352360D02*
D03*
Y307360D02*
D03*
X382500Y352360D02*
D03*
Y307360D02*
D03*
X467500Y352360D02*
D03*
Y307360D02*
D03*
X532500Y352360D02*
D03*
Y307360D02*
D03*
X617500Y352360D02*
D03*
Y307360D02*
D03*
X682500Y352360D02*
D03*
Y307360D02*
D03*
X617500Y450460D02*
D03*
Y405460D02*
D03*
X682500Y450460D02*
D03*
Y405460D02*
D03*
X497500Y450460D02*
D03*
Y405460D02*
D03*
X562500Y450460D02*
D03*
Y405460D02*
D03*
X377500Y450460D02*
D03*
Y405460D02*
D03*
X442500Y450460D02*
D03*
Y405460D02*
D03*
X257500Y450460D02*
D03*
Y405460D02*
D03*
X322500Y450460D02*
D03*
Y405460D02*
D03*
X77500Y450460D02*
D03*
Y405460D02*
D03*
X142500Y450460D02*
D03*
Y405460D02*
D03*
X17500Y548560D02*
D03*
Y503560D02*
D03*
X82500Y548560D02*
D03*
Y503560D02*
D03*
X137500Y548560D02*
D03*
Y503560D02*
D03*
X202500Y548560D02*
D03*
Y503560D02*
D03*
X257500Y548560D02*
D03*
Y503560D02*
D03*
X322500Y548560D02*
D03*
Y503560D02*
D03*
X377500Y548560D02*
D03*
Y503560D02*
D03*
X442500Y548560D02*
D03*
Y503560D02*
D03*
X497500Y548560D02*
D03*
Y503560D02*
D03*
X562500Y548560D02*
D03*
Y503560D02*
D03*
X617500Y548560D02*
D03*
Y503560D02*
D03*
X682500Y548560D02*
D03*
Y503560D02*
D03*
X617500Y646660D02*
D03*
Y601660D02*
D03*
X682500Y646660D02*
D03*
Y601660D02*
D03*
X497500Y646660D02*
D03*
Y601660D02*
D03*
X562500Y646660D02*
D03*
Y601660D02*
D03*
X377500Y646660D02*
D03*
Y601660D02*
D03*
X442500Y646660D02*
D03*
Y601660D02*
D03*
X257500Y646660D02*
D03*
Y601660D02*
D03*
X322500Y646660D02*
D03*
Y601660D02*
D03*
X137500Y646660D02*
D03*
Y601660D02*
D03*
X202500Y646660D02*
D03*
Y601660D02*
D03*
X17500Y646660D02*
D03*
Y601660D02*
D03*
X82500Y646660D02*
D03*
Y601660D02*
D03*
X562610Y770890D02*
D03*
D26*
X545336Y927100D02*
D03*
X565656Y942340D02*
D03*
X538401Y913529D02*
D03*
X499489Y964594D02*
D03*
X593251Y918210D02*
D03*
X601980Y961390D02*
D03*
X416560Y923290D02*
D03*
X608330Y887730D02*
D03*
X380815Y732790D02*
D03*
X232529Y809454D02*
D03*
X182880Y941324D02*
D03*
X455930Y858520D02*
D03*
X534160Y842691D02*
D03*
X572770Y965200D02*
D03*
X375920Y867046D02*
D03*
X365760Y878840D02*
D03*
X356004Y890548D02*
D03*
X366953Y906545D02*
D03*
X616022Y911687D02*
D03*
X642620Y909320D02*
D03*
X631190Y955040D02*
D03*
X637540Y862330D02*
D03*
X565843Y859531D02*
D03*
X349250Y966470D02*
D03*
X448310Y716280D02*
D03*
X439420Y762000D02*
D03*
X479499Y737817D02*
D03*
X457066Y748046D02*
D03*
X445770Y782320D02*
D03*
X311150Y762000D02*
D03*
X523240Y821690D02*
D03*
X500380Y848360D02*
D03*
X31750Y965200D02*
D03*
X49530Y728980D02*
D03*
X276860Y925830D02*
D03*
X655320Y873760D02*
D03*
X579120Y812800D02*
D03*
X556260Y789940D02*
D03*
X356870Y748030D02*
D03*
X414020Y739140D02*
D03*
X402590Y817880D02*
D03*
X417830Y775970D02*
D03*
X401320Y773430D02*
D03*
X470801Y836163D02*
D03*
X353060Y791210D02*
D03*
X304165Y744855D02*
D03*
X292100Y732790D02*
D03*
X640080Y680720D02*
D03*
X638810Y721360D02*
D03*
X496570Y774700D02*
D03*
X467360Y817880D02*
D03*
X529842Y774597D02*
D03*
X352928Y775971D02*
D03*
X471170Y862330D02*
D03*
X491490Y866140D02*
D03*
X564377Y908050D02*
D03*
X516890Y890270D02*
D03*
X499110Y891098D02*
D03*
X577850Y749300D02*
D03*
Y721360D02*
D03*
X298450Y792018D02*
D03*
X461010Y922028D02*
D03*
X570156Y827451D02*
D03*
X566403Y842222D02*
D03*
X508891Y948184D02*
D03*
X408303Y901933D02*
D03*
X354326Y933484D02*
D03*
X433070Y955040D02*
D03*
X461037Y727683D02*
D03*
X414020Y848360D02*
D03*
X265400Y847258D02*
D03*
X228859Y848360D02*
D03*
X274493Y883747D02*
D03*
X283066Y773286D02*
D03*
X269240Y745490D02*
D03*
D27*
X30000Y700000D02*
D03*
X670000D02*
D03*
D28*
X415290Y865650D02*
D03*
Y874250D02*
D03*
X430530Y783100D02*
D03*
Y791700D02*
D03*
X566420Y803420D02*
D03*
Y812020D02*
D03*
D29*
X92202Y848360D02*
D03*
D30*
X659003Y988060D02*
D03*
X674497D02*
D03*
D31*
X643890D02*
D03*
X629920D02*
D03*
D32*
X396240Y864258D02*
D03*
Y847702D02*
D03*
X285750Y812754D02*
D03*
Y829310D02*
D03*
Y861718D02*
D03*
Y845162D02*
D03*
D33*
X578340Y930910D02*
D03*
X569740D02*
D03*
X532620Y929640D02*
D03*
X524020D02*
D03*
D34*
X351710Y680800D02*
D03*
X367110D02*
D03*
X313610Y681990D02*
D03*
X329010D02*
D03*
X304880Y717550D02*
D03*
X289480D02*
D03*
X217708Y792098D02*
D03*
X233109D02*
D03*
X265510Y772160D02*
D03*
X250110D02*
D03*
X260270Y676910D02*
D03*
X275670D02*
D03*
X228680Y716280D02*
D03*
X213280D02*
D03*
X172640Y678180D02*
D03*
X188040D02*
D03*
X152240Y717550D02*
D03*
X167640D02*
D03*
X134780D02*
D03*
X119380D02*
D03*
X153830Y678180D02*
D03*
X138430D02*
D03*
D35*
X332740Y736473D02*
D03*
Y751967D02*
D03*
D36*
X454340Y792170D02*
D03*
X459340D02*
D03*
X464340D02*
D03*
X469340D02*
D03*
X474340D02*
D03*
X479340D02*
D03*
X484340D02*
D03*
X489340D02*
D03*
X494340D02*
D03*
X499340D02*
D03*
X504340D02*
D03*
X509340D02*
D03*
X514340D02*
D03*
X519340D02*
D03*
X524340D02*
D03*
X529340D02*
D03*
Y907170D02*
D03*
X524340D02*
D03*
X519340D02*
D03*
X514340D02*
D03*
X509340D02*
D03*
X504340D02*
D03*
X499340D02*
D03*
X494340D02*
D03*
X489340D02*
D03*
X484340D02*
D03*
X479340D02*
D03*
X474340D02*
D03*
X469340D02*
D03*
X464340D02*
D03*
X459340D02*
D03*
X454340D02*
D03*
D37*
X549340Y812170D02*
D03*
Y817170D02*
D03*
Y822170D02*
D03*
Y827170D02*
D03*
Y832170D02*
D03*
Y837170D02*
D03*
Y842170D02*
D03*
Y847170D02*
D03*
Y852170D02*
D03*
Y857170D02*
D03*
Y862170D02*
D03*
Y867170D02*
D03*
Y872170D02*
D03*
Y877170D02*
D03*
Y882170D02*
D03*
Y887170D02*
D03*
X434340D02*
D03*
Y882170D02*
D03*
Y877170D02*
D03*
Y872170D02*
D03*
Y867170D02*
D03*
Y862170D02*
D03*
Y857170D02*
D03*
Y852170D02*
D03*
Y847170D02*
D03*
Y842170D02*
D03*
Y837170D02*
D03*
Y832170D02*
D03*
Y827170D02*
D03*
Y822170D02*
D03*
Y817170D02*
D03*
Y812170D02*
D03*
D38*
X659050Y932080D02*
D03*
Y938580D02*
D03*
Y925580D02*
D03*
Y945080D02*
D03*
Y919080D02*
D03*
D39*
X660300Y963080D02*
D03*
Y901080D02*
D03*
D40*
X685800Y944080D02*
D03*
Y920080D02*
D03*
D41*
Y970080D02*
D03*
Y894080D02*
D03*
D42*
X327660Y788543D02*
D03*
Y882777D02*
D03*
D43*
X607695Y922680D02*
D03*
Y932180D02*
D03*
Y941680D02*
D03*
X635000D02*
D03*
Y932180D02*
D03*
Y922680D02*
D03*
D44*
X398399Y928370D02*
D03*
Y941070D02*
D03*
Y953770D02*
D03*
Y966470D02*
D03*
X325501D02*
D03*
Y953770D02*
D03*
Y941070D02*
D03*
Y928370D02*
D03*
D45*
X272733Y788520D02*
D03*
Y801520D02*
D03*
X250508D02*
D03*
Y795020D02*
D03*
Y788520D02*
D03*
X244475Y891540D02*
D03*
Y904540D02*
D03*
X222250D02*
D03*
Y898040D02*
D03*
Y891540D02*
D03*
D46*
X213970Y842160D02*
D03*
D47*
Y835660D02*
D03*
Y829160D02*
D03*
X194970D02*
D03*
Y835660D02*
D03*
Y842160D02*
D03*
D48*
X208280Y880110D02*
D03*
Y864710D02*
D03*
X258614Y879252D02*
D03*
Y863852D02*
D03*
D49*
X579040Y922100D02*
X580390Y920750D01*
X578340Y930910D02*
X579040Y930210D01*
Y922100D02*
Y930210D01*
X599535Y938333D02*
Y945829D01*
X580390Y915670D02*
Y920750D01*
X597192Y935990D02*
X599535Y938333D01*
X595630Y935990D02*
X597192D01*
X599535Y945829D02*
X600708Y947001D01*
X580390Y920750D02*
X595630Y935990D01*
X603743Y949003D02*
X622858D01*
X628895Y955040D01*
X596900Y899160D02*
X626110D01*
X580390Y915670D02*
X596900Y899160D01*
X634206Y931386D02*
X635000Y932180D01*
X624840Y925830D02*
X630396Y931386D01*
X634206D01*
X624840Y920519D02*
Y925830D01*
Y920519D02*
X631190Y914169D01*
Y904240D02*
Y914169D01*
X626110Y899160D02*
X631190Y904240D01*
X122242Y745812D02*
X194970Y818540D01*
Y829160D01*
D50*
X393909Y791210D02*
X414869Y812170D01*
D51*
X34290Y849630D02*
D03*
D52*
X171450Y814070D02*
D03*
D53*
X174625Y821690D02*
D03*
D54*
X96520Y928370D02*
D03*
M02*
