G04*
G04 #@! TF.GenerationSoftware,Altium Limited,Altium Designer,24.7.2 (38)*
G04*
G04 Layer_Color=8388736*
%FSLAX44Y44*%
%MOMM*%
G71*
G04*
G04 #@! TF.SameCoordinates,966AE77D-DC0C-403A-A995-9434F704E8A8*
G04*
G04*
G04 #@! TF.FilePolarity,Negative*
G04*
G01*
G75*
%ADD20C,2.3114*%
%ADD21C,1.7272*%
%ADD22C,1.4732*%
%ADD23C,2.4032*%
D20*
X107202Y744360D02*
D03*
X76202D02*
D03*
X107202Y952360D02*
D03*
X76202D02*
D03*
D21*
X156210Y701040D02*
D03*
X588010D02*
D03*
X562610D02*
D03*
X537210D02*
D03*
X461010D02*
D03*
X435610D02*
D03*
X410210D02*
D03*
X384810D02*
D03*
X334010D02*
D03*
X308610D02*
D03*
X257810D02*
D03*
X283210D02*
D03*
X232410D02*
D03*
X207010D02*
D03*
X181610D02*
D03*
X105410D02*
D03*
X105860Y980440D02*
D03*
X131260D02*
D03*
X562160D02*
D03*
X587560D02*
D03*
X486410Y701040D02*
D03*
X511810D02*
D03*
X130810D02*
D03*
X359410D02*
D03*
X635000Y824230D02*
D03*
Y798830D02*
D03*
Y773430D02*
D03*
X660400Y824230D02*
D03*
Y798830D02*
D03*
Y773430D02*
D03*
X617500Y58060D02*
D03*
Y13060D02*
D03*
X682500Y58060D02*
D03*
Y13060D02*
D03*
X467500Y58060D02*
D03*
Y13060D02*
D03*
X532500Y58060D02*
D03*
Y13060D02*
D03*
X317500Y58060D02*
D03*
Y13060D02*
D03*
X382500Y58060D02*
D03*
Y13060D02*
D03*
X167500Y58060D02*
D03*
Y13060D02*
D03*
X232500Y58060D02*
D03*
Y13060D02*
D03*
X17500Y58060D02*
D03*
Y13060D02*
D03*
X82500Y58060D02*
D03*
Y13060D02*
D03*
X17500Y156160D02*
D03*
Y111160D02*
D03*
X82500Y156160D02*
D03*
Y111160D02*
D03*
X167500Y156160D02*
D03*
Y111160D02*
D03*
X232500Y156160D02*
D03*
Y111160D02*
D03*
X317500Y156160D02*
D03*
Y111160D02*
D03*
X382500Y156160D02*
D03*
Y111160D02*
D03*
X467500Y156160D02*
D03*
Y111160D02*
D03*
X532500Y156160D02*
D03*
Y111160D02*
D03*
X617500Y156160D02*
D03*
Y111160D02*
D03*
X682500Y156160D02*
D03*
Y111160D02*
D03*
X617500Y254260D02*
D03*
Y209260D02*
D03*
X682500Y254260D02*
D03*
Y209260D02*
D03*
X467500Y254260D02*
D03*
Y209260D02*
D03*
X532500Y254260D02*
D03*
Y209260D02*
D03*
X317500Y254260D02*
D03*
Y209260D02*
D03*
X382500Y254260D02*
D03*
Y209260D02*
D03*
X167500Y254260D02*
D03*
Y209260D02*
D03*
X232500Y254260D02*
D03*
Y209260D02*
D03*
X17500Y254260D02*
D03*
Y209260D02*
D03*
X82500Y254260D02*
D03*
Y209260D02*
D03*
X17500Y352360D02*
D03*
Y307360D02*
D03*
X82500Y352360D02*
D03*
Y307360D02*
D03*
X167500Y352360D02*
D03*
Y307360D02*
D03*
X232500Y352360D02*
D03*
Y307360D02*
D03*
X317500Y352360D02*
D03*
Y307360D02*
D03*
X382500Y352360D02*
D03*
Y307360D02*
D03*
X467500Y352360D02*
D03*
Y307360D02*
D03*
X532500Y352360D02*
D03*
Y307360D02*
D03*
X617500Y352360D02*
D03*
Y307360D02*
D03*
X682500Y352360D02*
D03*
Y307360D02*
D03*
X617500Y450460D02*
D03*
Y405460D02*
D03*
X682500Y450460D02*
D03*
Y405460D02*
D03*
X497500Y450460D02*
D03*
Y405460D02*
D03*
X562500Y450460D02*
D03*
Y405460D02*
D03*
X377500Y450460D02*
D03*
Y405460D02*
D03*
X442500Y450460D02*
D03*
Y405460D02*
D03*
X257500Y450460D02*
D03*
Y405460D02*
D03*
X322500Y450460D02*
D03*
Y405460D02*
D03*
X77500Y450460D02*
D03*
Y405460D02*
D03*
X142500Y450460D02*
D03*
Y405460D02*
D03*
X17500Y548560D02*
D03*
Y503560D02*
D03*
X82500Y548560D02*
D03*
Y503560D02*
D03*
X137500Y548560D02*
D03*
Y503560D02*
D03*
X202500Y548560D02*
D03*
Y503560D02*
D03*
X257500Y548560D02*
D03*
Y503560D02*
D03*
X322500Y548560D02*
D03*
Y503560D02*
D03*
X377500Y548560D02*
D03*
Y503560D02*
D03*
X442500Y548560D02*
D03*
Y503560D02*
D03*
X497500Y548560D02*
D03*
Y503560D02*
D03*
X562500Y548560D02*
D03*
Y503560D02*
D03*
X617500Y548560D02*
D03*
Y503560D02*
D03*
X682500Y548560D02*
D03*
Y503560D02*
D03*
X617500Y646660D02*
D03*
Y601660D02*
D03*
X682500Y646660D02*
D03*
Y601660D02*
D03*
X497500Y646660D02*
D03*
Y601660D02*
D03*
X562500Y646660D02*
D03*
Y601660D02*
D03*
X377500Y646660D02*
D03*
Y601660D02*
D03*
X442500Y646660D02*
D03*
Y601660D02*
D03*
X257500Y646660D02*
D03*
Y601660D02*
D03*
X322500Y646660D02*
D03*
Y601660D02*
D03*
X137500Y646660D02*
D03*
Y601660D02*
D03*
X202500Y646660D02*
D03*
Y601660D02*
D03*
X17500Y646660D02*
D03*
Y601660D02*
D03*
X82500Y646660D02*
D03*
Y601660D02*
D03*
X562610Y770890D02*
D03*
D22*
X545336Y927100D02*
D03*
X565656Y942340D02*
D03*
X538401Y913529D02*
D03*
X499489Y964594D02*
D03*
X593251Y918210D02*
D03*
X601980Y961390D02*
D03*
X416560Y923290D02*
D03*
X608330Y887730D02*
D03*
X380815Y732790D02*
D03*
X232529Y809454D02*
D03*
X182880Y941324D02*
D03*
X455930Y858520D02*
D03*
X534160Y842691D02*
D03*
X572770Y965200D02*
D03*
X375920Y867046D02*
D03*
X365760Y878840D02*
D03*
X356004Y890548D02*
D03*
X366953Y906545D02*
D03*
X616022Y911687D02*
D03*
X642620Y909320D02*
D03*
X631190Y955040D02*
D03*
X637540Y862330D02*
D03*
X565843Y859531D02*
D03*
X349250Y966470D02*
D03*
X448310Y716280D02*
D03*
X439420Y762000D02*
D03*
X479499Y737817D02*
D03*
X457066Y748046D02*
D03*
X445770Y782320D02*
D03*
X311150Y762000D02*
D03*
X523240Y821690D02*
D03*
X500380Y848360D02*
D03*
X31750Y965200D02*
D03*
X49530Y728980D02*
D03*
X276860Y925830D02*
D03*
X655320Y873760D02*
D03*
X579120Y812800D02*
D03*
X556260Y789940D02*
D03*
X356870Y748030D02*
D03*
X414020Y739140D02*
D03*
X402590Y817880D02*
D03*
X417830Y775970D02*
D03*
X401320Y773430D02*
D03*
X470801Y836163D02*
D03*
X353060Y791210D02*
D03*
X304165Y744855D02*
D03*
X292100Y732790D02*
D03*
X640080Y680720D02*
D03*
X638810Y721360D02*
D03*
X496570Y774700D02*
D03*
X467360Y817880D02*
D03*
X529842Y774597D02*
D03*
X352928Y775971D02*
D03*
X471170Y862330D02*
D03*
X491490Y866140D02*
D03*
X564377Y908050D02*
D03*
X516890Y890270D02*
D03*
X499110Y891098D02*
D03*
X577850Y749300D02*
D03*
Y721360D02*
D03*
X298450Y792018D02*
D03*
X461010Y922028D02*
D03*
X570156Y827451D02*
D03*
X566403Y842222D02*
D03*
X508891Y948184D02*
D03*
X408303Y901933D02*
D03*
X354326Y933484D02*
D03*
X433070Y955040D02*
D03*
X461037Y727683D02*
D03*
X414020Y848360D02*
D03*
X265400Y847258D02*
D03*
X228859Y848360D02*
D03*
X274493Y883747D02*
D03*
X283066Y773286D02*
D03*
X269240Y745490D02*
D03*
D23*
X30000Y700000D02*
D03*
X670000D02*
D03*
M02*
