G04*
G04 #@! TF.GenerationSoftware,Altium Limited,Altium Designer,24.6.1 (21)*
G04*
G04 Layer_Physical_Order=2*
G04 Layer_Color=16711680*
%FSLAX44Y44*%
%MOMM*%
G71*
G04*
G04 #@! TF.SameCoordinates,5BE53EBA-B956-4ED2-84AC-37ABD98E17FE*
G04*
G04*
G04 #@! TF.FilePolarity,Positive*
G04*
G01*
G75*
%ADD10C,0.5080*%
%ADD11C,0.2540*%
%ADD13C,2.3114*%
%ADD15C,0.3810*%
%ADD16C,1.5240*%
%ADD17C,1.2700*%
%ADD18R,1.1938X0.3048*%
%ADD19R,0.3048X1.1938*%
%ADD20O,0.6000X0.4200*%
%ADD21R,0.6000X0.4200*%
G04:AMPARAMS|DCode=22|XSize=0.6mm|YSize=0.54mm|CornerRadius=0.1431mm|HoleSize=0mm|Usage=FLASHONLY|Rotation=0.000|XOffset=0mm|YOffset=0mm|HoleType=Round|Shape=RoundedRectangle|*
%AMROUNDEDRECTD22*
21,1,0.6000,0.2538,0,0,0.0*
21,1,0.3138,0.5400,0,0,0.0*
1,1,0.2862,0.1569,-0.1269*
1,1,0.2862,-0.1569,-0.1269*
1,1,0.2862,-0.1569,0.1269*
1,1,0.2862,0.1569,0.1269*
%
%ADD22ROUNDEDRECTD22*%
G04:AMPARAMS|DCode=23|XSize=0.6mm|YSize=0.54mm|CornerRadius=0.1431mm|HoleSize=0mm|Usage=FLASHONLY|Rotation=270.000|XOffset=0mm|YOffset=0mm|HoleType=Round|Shape=RoundedRectangle|*
%AMROUNDEDRECTD23*
21,1,0.6000,0.2538,0,0,270.0*
21,1,0.3138,0.5400,0,0,270.0*
1,1,0.2862,-0.1269,-0.1569*
1,1,0.2862,-0.1269,0.1569*
1,1,0.2862,0.1269,0.1569*
1,1,0.2862,0.1269,-0.1569*
%
%ADD23ROUNDEDRECTD23*%
%ADD24C,17.7800*%
%ADD25R,0.5080X0.6604*%
%ADD26R,0.3800X0.4000*%
%ADD27R,2.1000X5.6000*%
%ADD28R,1.5240X0.5334*%
%ADD29R,0.8900X0.9300*%
%ADD30R,0.8763X0.3048*%
%ADD31R,0.9300X0.8900*%
%ADD32R,1.3500X0.4000*%
%ADD33R,1.6000X2.1000*%
%ADD34R,1.9000X1.9000*%
%ADD35R,1.9000X1.8000*%
%ADD36R,0.9779X0.5588*%
%ADD37R,1.0160X0.6350*%
%ADD38R,1.5240X1.3970*%
%ADD39R,1.7780X1.7780*%
%ADD40R,1.1430X1.0160*%
%ADD41R,1.0160X1.9050*%
%ADD42R,0.8890X2.3530*%
%ADD43R,1.7780X2.4130*%
%ADD44R,2.6670X1.1430*%
D10*
X577850Y749300D02*
Y791990D01*
X629276Y950164D02*
X646326D01*
X568051Y801790D02*
X577850Y791990D01*
X203213Y796277D02*
X207392Y792098D01*
X201943Y810247D02*
X203213Y808977D01*
Y796277D02*
Y808977D01*
X400050Y872490D02*
X401508Y871032D01*
X406878D01*
X412260Y865650D01*
X76202Y952360D02*
X107202D01*
X210820Y760730D02*
Y776130D01*
X210416Y751436D02*
Y760326D01*
X192843Y733863D02*
X210416Y751436D01*
X210820Y776130D02*
X217494Y782804D01*
X210416Y760326D02*
X210820Y760730D01*
X162400Y727710D02*
X168553Y733863D01*
X154785Y720095D02*
X162400Y727710D01*
X168553Y733863D02*
X192843D01*
X217494Y791883D02*
X217708Y792098D01*
X217494Y782804D02*
Y791883D01*
X207392Y792098D02*
X217708D01*
X92202Y854082D02*
X196770Y958650D01*
X215350Y948179D02*
Y955670D01*
X77591Y719443D02*
X104989D01*
X112826Y727280D01*
X128910Y723620D02*
X131817Y720713D01*
X112826Y727280D02*
X125934D01*
X128910Y724304D01*
X59565Y737469D02*
X77591Y719443D01*
X128910Y723620D02*
Y724304D01*
X59565Y737469D02*
Y772035D01*
X60835Y773305D01*
X76202Y744360D02*
X107202D01*
X626301Y936020D02*
X629276Y933044D01*
X626301Y936020D02*
Y947188D01*
X636016Y933044D02*
X636270Y932790D01*
X629276Y933044D02*
X636016D01*
X626301Y947188D02*
X629276Y950164D01*
X646326D02*
X648990Y947500D01*
X650690D01*
D11*
X527385Y876300D02*
X540831Y889746D01*
X543895Y892810D02*
X564496D01*
X573386Y883920D01*
X542319Y891234D02*
X543895Y892810D01*
X540831Y889746D02*
Y889746D01*
X543587Y897890D02*
X564804D01*
X542319Y891234D02*
X542319D01*
X540831Y889746D02*
X542319Y891234D01*
X525807Y880110D02*
X543587Y897890D01*
X506730Y880110D02*
X525807D01*
X573386Y883920D02*
X604520D01*
X489594Y891858D02*
Y906916D01*
X549340Y887170D02*
X564747D01*
X549594Y881916D02*
X564613D01*
X564804Y897890D02*
X573695Y889000D01*
X505152Y876300D02*
X527385D01*
X594360Y710827D02*
Y852169D01*
X489594Y891858D02*
X505152Y876300D01*
X564747Y887170D02*
X599440Y852477D01*
Y709930D02*
Y852477D01*
X564613Y881916D02*
X594360Y852169D01*
X325501Y953770D02*
X384520D01*
X461037Y727683D02*
Y740038D01*
X479340Y758342D01*
Y792170D01*
X469340Y774140D02*
Y792170D01*
X474340Y767710D02*
Y792170D01*
X455930Y749300D02*
X474340Y767710D01*
X455930Y760730D02*
X469340Y774140D01*
X576789Y722421D02*
Y732790D01*
X590550Y719692D02*
Y849630D01*
X565900Y704330D02*
X572770Y711200D01*
X582058D02*
X590550Y719692D01*
X573578Y736002D02*
X576789Y732790D01*
Y722421D02*
X577850Y721360D01*
X565900Y698500D02*
Y704330D01*
X572770Y711200D02*
X582058D01*
X573578Y736002D02*
Y738332D01*
X479499Y740566D02*
X484340Y745406D01*
Y792170D01*
X479499Y737817D02*
Y740566D01*
X538893Y773018D02*
X573578Y738332D01*
X391160Y760730D02*
X455930D01*
X474086Y792424D02*
X474340Y792170D01*
X111130Y700930D02*
Y709100D01*
X210300Y698500D02*
Y713300D01*
X454086Y791700D02*
Y796361D01*
X590440Y699360D02*
Y706906D01*
X515100Y698500D02*
Y742711D01*
X489700Y698500D02*
Y735011D01*
X532620Y922800D02*
X541020Y914400D01*
X532620Y922800D02*
Y929253D01*
Y929640D01*
X459086Y900831D02*
Y906916D01*
X439919Y898661D02*
X456916D01*
X417830Y920750D02*
X439919Y898661D01*
X459086Y906916D02*
X459340Y907170D01*
X456916Y898661D02*
X459086Y900831D01*
X420370Y891540D02*
X424491Y887419D01*
X464086Y895886D02*
Y906916D01*
X420370Y891540D02*
X459740D01*
X464086Y895886D01*
X408940Y902970D02*
X420370Y891540D01*
X474086Y792424D02*
Y798509D01*
X471916Y800679D02*
X474086Y798509D01*
X456764Y800679D02*
X471916D01*
X455276Y799191D02*
X456764Y800679D01*
X455276Y797551D02*
Y799191D01*
X454086Y796361D02*
X455276Y797551D01*
X566420Y803420D02*
X566633D01*
X568051Y802002D01*
Y801790D02*
Y802002D01*
X538893Y773018D02*
Y836916D01*
X519404Y811622D02*
Y841112D01*
X549481Y827310D02*
X570015D01*
X549340Y827170D02*
X549481Y827310D01*
X570015D02*
X570156Y827451D01*
X519404Y841112D02*
X526652Y848360D01*
X538893Y836916D02*
X549086D01*
X549340Y837170D01*
X556605Y832424D02*
X566403Y842222D01*
X419100Y844550D02*
X421480Y842170D01*
X434340D01*
X326898Y967867D02*
X336677D01*
X325501Y966470D02*
X326898Y967867D01*
X336677D02*
X339090Y970280D01*
X310261Y938657D02*
Y975741D01*
X317500Y982980D02*
X449615D01*
X310261Y975741D02*
X317500Y982980D01*
X449615D02*
X519086Y913509D01*
X265400Y847258D02*
Y857267D01*
X264146Y858520D02*
X265400Y857267D01*
X241777Y822970D02*
X257429Y807318D01*
Y792136D02*
Y807318D01*
X254067Y788774D02*
X257429Y792136D01*
X250762Y788774D02*
X254067D01*
X241777Y822970D02*
Y849810D01*
X217578Y874008D02*
X241777Y849810D01*
X222250Y878680D02*
Y891540D01*
X217578Y874008D02*
X222250Y878680D01*
X208280Y864710D02*
X217578Y874008D01*
X208080Y864710D02*
X208280D01*
X201801Y834519D02*
X207160Y829160D01*
X213970D01*
X201801Y834519D02*
Y836290D01*
X195932Y842160D02*
X201801Y836290D01*
X194970Y842160D02*
X195932D01*
X415290Y865650D02*
X422692D01*
X412260D02*
X415290D01*
X242625Y795274D02*
X250254D01*
X238611Y799288D02*
X242625Y795274D01*
X224699Y799288D02*
X238611D01*
X217708Y792298D02*
X224699Y799288D01*
X217708Y792098D02*
Y792298D01*
X234382Y809454D02*
X242316Y801520D01*
X250508D01*
X494594Y892246D02*
Y895350D01*
X374650Y935990D02*
X458470D01*
X464086Y906916D02*
X464340Y907170D01*
X424491Y875934D02*
Y887419D01*
X428001Y872424D02*
X434086D01*
X424491Y875934D02*
X428001Y872424D01*
X424491Y872170D02*
X427319D01*
X434086Y872424D02*
X434340Y872170D01*
X458470Y935990D02*
X478790Y915670D01*
Y911860D02*
Y915670D01*
X373162Y937478D02*
Y939582D01*
Y937478D02*
X374650Y935990D01*
X373162Y939582D02*
X374650Y941070D01*
X398399D01*
X514086Y892546D02*
Y906916D01*
X513080Y891540D02*
X514086Y892546D01*
Y906916D02*
X514340Y907170D01*
X494594Y892246D02*
X506730Y880110D01*
X608330Y889000D02*
X613410Y883920D01*
X573695Y889000D02*
X608330D01*
X604520Y883920D02*
X608330Y880110D01*
X549340Y882170D02*
X549594Y881916D01*
X399034Y954405D02*
X432435D01*
X433070Y955040D01*
X447395Y965200D02*
X499086Y913509D01*
X411008Y965200D02*
X447395D01*
X398399Y953770D02*
X399034Y954405D01*
X407071Y961263D02*
X411008Y965200D01*
X398399Y966470D02*
X403352D01*
X405892Y969010D01*
X453390D02*
X504340Y918060D01*
Y911660D02*
X504419Y911582D01*
X405892Y969010D02*
X453390D01*
X319115Y961263D02*
X407071D01*
X315341Y957489D02*
X319115Y961263D01*
X458470Y944880D02*
X484086Y919264D01*
X408468Y944880D02*
X458470D01*
X407071Y946277D02*
X408468Y944880D01*
X392013Y946277D02*
X407071D01*
X384520Y953770D02*
X392013Y946277D01*
X484086Y907424D02*
Y919264D01*
Y907424D02*
X484340Y907170D01*
X499086Y907424D02*
X499340Y907170D01*
X499086Y907424D02*
Y913509D01*
X504340Y911660D02*
Y918060D01*
X167640Y709930D02*
Y717550D01*
X158750Y701040D02*
X167640Y709930D01*
X298450Y732790D02*
X363220D01*
X390210Y832170D02*
X434340D01*
X557530Y687070D02*
X596034D01*
X519340Y746951D02*
Y792170D01*
X548640Y933450D02*
X608305D01*
X609346Y651820D02*
X685546D01*
X609346Y553720D02*
X685546D01*
X675386Y602770D02*
Y641660D01*
Y501000D02*
Y543560D01*
X608076Y449550D02*
X684276D01*
X613410Y659321D02*
Y883920D01*
X371602Y651820D02*
X447802D01*
X437642Y590346D02*
Y641660D01*
X371602Y553720D02*
X447802D01*
X437642Y486036D02*
Y543560D01*
X365252Y449550D02*
X441452D01*
X459652Y351450D02*
Y431350D01*
Y351450D02*
X535852D01*
X469812Y289975D02*
Y341290D01*
X459652Y253350D02*
X535852D01*
X469812Y191876D02*
Y243190D01*
X459652Y155250D02*
X535852D01*
X469812Y93776D02*
Y145090D01*
X459652Y57150D02*
X535852D01*
X309880Y353762D02*
Y439390D01*
X312192Y351450D02*
X388392D01*
X322352Y289975D02*
Y341290D01*
X312192Y253350D02*
X388392D01*
X322352Y191876D02*
Y243190D01*
X312192Y155250D02*
X388392D01*
X322352Y93776D02*
Y145090D01*
X312192Y57150D02*
X388392D01*
X243840Y449550D02*
X320040D01*
X318770Y450820D02*
Y543560D01*
X252730Y553720D02*
X328930D01*
X318770Y563880D02*
Y641660D01*
X252730Y651820D02*
X328930D01*
X133858D02*
X210058D01*
X199898Y602770D02*
Y641660D01*
X133858Y553720D02*
X210058D01*
X199898Y392484D02*
Y543560D01*
X164732Y351450D02*
X240932D01*
X230772Y289975D02*
Y341290D01*
X164732Y253350D02*
X240932D01*
X230772Y191876D02*
Y243190D01*
X164732Y155250D02*
X240932D01*
X230772Y106200D02*
Y145090D01*
X164732Y57150D02*
X240932D01*
X17272Y155250D02*
X93472D01*
X17272Y253350D02*
X93472D01*
X17272Y351450D02*
X93472D01*
X65532Y449550D02*
X141732D01*
X17526Y553720D02*
X93726D01*
X17526Y651820D02*
X93726D01*
X83566Y590346D02*
Y641660D01*
X79629Y463647D02*
Y539623D01*
X93472Y351450D02*
Y421610D01*
X83312Y302400D02*
Y341290D01*
Y204300D02*
Y243190D01*
Y106200D02*
Y145090D01*
X17272Y57150D02*
X93472D01*
X635000Y773430D02*
X660400D01*
X609346Y655257D02*
X613410Y659321D01*
X609346Y651820D02*
Y655257D01*
X588320Y651820D02*
X608330Y671830D01*
Y880110D01*
X250508Y788520D02*
X250762Y788774D01*
X515620Y939800D02*
X542290D01*
X548640Y933450D01*
X590550Y943610D02*
X591210Y942950D01*
X608305Y933450D02*
X608965Y932790D01*
X608305Y942950D02*
X608965Y942290D01*
X591210Y942950D02*
X608305D01*
X515620Y938427D02*
Y939800D01*
X524020Y929640D02*
Y930027D01*
X515620Y938427D02*
X524020Y930027D01*
X590440Y706906D02*
X594360Y710827D01*
X563010Y877170D02*
X590550Y849630D01*
X576090Y812020D02*
X576580Y811530D01*
X566420Y812020D02*
X576090D01*
X232529Y809454D02*
X234382D01*
X269031Y878840D02*
X273938Y883747D01*
X274493D01*
X259027Y878840D02*
X269031D01*
X258614Y879252D02*
X259027Y878840D01*
X368300Y905510D02*
X381961Y919171D01*
X384247D01*
X548295Y696305D02*
X557530Y687070D01*
X542694Y696305D02*
X548295D01*
X526652Y848360D02*
X535068D01*
X536259Y847170D02*
X549340D01*
X535068Y848360D02*
X536259Y847170D01*
X489340Y907170D02*
X489594Y906916D01*
X566674Y651820D02*
X588320D01*
X549340Y877170D02*
X563010D01*
X305160Y758228D02*
X324248Y739140D01*
X353060D01*
X304530Y760730D02*
X305160Y760100D01*
Y758228D02*
Y760100D01*
X385826Y771906D02*
X391160D01*
X353060Y739140D02*
X385826Y771906D01*
X430530Y791700D02*
X454086D01*
X430530Y777240D02*
X450495D01*
X396494D02*
X430530D01*
Y783100D01*
X422411Y874250D02*
X424491Y872170D01*
X415290Y874250D02*
X422411D01*
X422692Y865650D02*
X424212Y867170D01*
X434340D01*
X524180Y907330D02*
Y929480D01*
X524020Y929640D02*
X524180Y929480D01*
Y907330D02*
X524340Y907170D01*
X529340Y925973D02*
X532620Y929253D01*
X529340Y907170D02*
Y925973D01*
X553785Y806450D02*
Y811916D01*
X549340Y812170D02*
X553531D01*
X553785Y806450D02*
X556815Y803420D01*
X553531Y812170D02*
X553785Y811916D01*
X556815Y803420D02*
X566420D01*
X562938Y813351D02*
X565089D01*
X549340Y817170D02*
X559119D01*
X562938Y813351D01*
X565089D02*
X566420Y812020D01*
X411689Y808990D02*
X414869Y812170D01*
X434340D01*
X408940Y808990D02*
X411689D01*
X217708Y791898D02*
X237447Y772160D01*
X92202Y848360D02*
Y854082D01*
X196770Y958650D02*
Y958850D01*
X218440Y942340D02*
Y945089D01*
X212170Y958850D02*
X215350Y955670D01*
Y948179D02*
X218440Y945089D01*
X153830Y678180D02*
Y678380D01*
X315341Y946277D02*
Y957489D01*
X549594Y832424D02*
X556605D01*
X549340Y832170D02*
X549594Y832424D01*
X594360Y923290D02*
X608965D01*
X391160Y759968D02*
Y760730D01*
X389890Y758698D02*
X391160Y759968D01*
X389128Y758698D02*
X389890D01*
X363220Y732790D02*
X389128Y758698D01*
X393192Y773938D02*
X396494Y777240D01*
X391160Y771906D02*
Y772668D01*
X392430Y773938D01*
X393192D01*
X450495Y777240D02*
X459086Y785831D01*
Y791916D01*
X459340Y792170D01*
X273050Y716280D02*
Y729160D01*
X304530Y760640D01*
X258614Y863852D02*
X258814D01*
X258414D02*
X258614D01*
X264146Y858520D02*
X294370D01*
X258814Y863852D02*
X264146Y858520D01*
X332740Y867750D02*
Y873000D01*
X299990Y858520D02*
X323510D01*
X332740Y867750D01*
X310150Y760730D02*
X323510D01*
X332740Y769960D01*
Y778000D01*
X341970Y804730D02*
X362770D01*
X389890Y831850D01*
X403847Y837170D02*
X434340D01*
X388620Y831850D02*
X389890D01*
X390210Y832170D01*
X332740Y778000D02*
Y795500D01*
X341970Y804730D01*
X368018Y873000D02*
X403847Y837170D01*
X332740Y873000D02*
X368018D01*
X393446Y928370D02*
X398399D01*
X384247Y919171D02*
X393446Y928370D01*
X489700Y735011D02*
X509340Y754651D01*
Y792170D01*
X515100Y742711D02*
X519340Y746951D01*
X602730Y693765D02*
Y706640D01*
X599440Y709930D02*
X602730Y706640D01*
X596034Y687070D02*
X602730Y693765D01*
X540500Y698500D02*
X542694Y696305D01*
X519086Y907424D02*
X519340Y907170D01*
X519086Y907424D02*
Y913509D01*
X310261Y938657D02*
X320548Y928370D01*
X325501D01*
X315341Y946277D02*
X320548Y941070D01*
X325501D01*
X265510Y772160D02*
Y784155D01*
X269875Y788520D01*
X272733D01*
X237447Y772160D02*
X250110D01*
X217708Y791898D02*
Y792098D01*
X236289Y788718D02*
X236489D01*
X236687Y788520D02*
X250508D01*
X233109Y791898D02*
Y792098D01*
Y791898D02*
X236289Y788718D01*
X236489D02*
X236687Y788520D01*
X250254Y795274D02*
X250508Y795020D01*
X208280Y889372D02*
X217202Y898294D01*
X208280Y880110D02*
Y889372D01*
X214058Y901438D02*
X217202Y898294D01*
X214058Y901438D02*
Y907642D01*
X216290Y909874D02*
X228894D01*
X214058Y907642D02*
X216290Y909874D01*
X228894D02*
X236283Y902484D01*
Y885983D02*
Y902484D01*
Y885983D02*
X258414Y863852D01*
X255234Y882433D02*
Y883639D01*
Y882433D02*
X258414Y879252D01*
X258614D01*
X244475Y891540D02*
X247332D01*
X255234Y883639D01*
X205100Y876930D02*
X208280Y880110D01*
X222504Y904286D02*
X227297D01*
X230441Y894938D02*
Y901142D01*
X227297Y904286D02*
X230441Y901142D01*
X227297Y891794D02*
X230441Y894938D01*
X222250Y904540D02*
X222504Y904286D01*
Y891794D02*
X227297D01*
X222250Y891540D02*
X222504Y891794D01*
X131817Y720713D02*
X134780Y717750D01*
X60835Y773305D02*
Y816993D01*
X92202Y848360D01*
X347340Y683900D02*
Y688460D01*
X337300Y698500D02*
X347340Y688460D01*
Y683900D02*
X350520Y680720D01*
X326300Y684100D02*
X331940D01*
X335120Y680720D02*
Y680920D01*
X331940Y684100D02*
X335120Y680920D01*
X311900Y698500D02*
X326300Y684100D01*
X260270Y676910D02*
X261100Y677740D01*
Y698500D01*
X275670Y676910D02*
Y677110D01*
X288290Y716280D02*
X289560Y715010D01*
X210300Y713300D02*
X213280Y716280D01*
X184900Y681320D02*
Y698500D01*
Y681320D02*
X188040Y678180D01*
X134100Y695063D02*
Y698500D01*
X138430Y678180D02*
Y690733D01*
X134100Y695063D02*
X138430Y690733D01*
X119380Y717350D02*
Y717550D01*
X111130Y709100D02*
X119380Y717350D01*
X108700Y698500D02*
X111130Y700930D01*
X610489Y931266D02*
X613054D01*
X660300Y901080D02*
Y903580D01*
X608965Y932790D02*
X610489Y931266D01*
X653570Y910310D02*
X660300Y903580D01*
X650690Y947500D02*
X651880D01*
X653570Y945810D02*
X658320D01*
X659050Y945080D01*
X651880Y947500D02*
X653570Y945810D01*
X645220Y942290D02*
X648490Y939020D01*
X658610D01*
X659050Y938580D01*
X636270Y942290D02*
X645220D01*
X644969Y923290D02*
X647846Y926166D01*
Y928514D02*
X650722Y931390D01*
X658360D02*
X659050Y932080D01*
X636270Y923290D02*
X644969D01*
X647846Y926166D02*
Y928514D01*
X650722Y931390D02*
X658360D01*
X675386Y602770D02*
X685546Y592610D01*
X675386Y641660D02*
X685546Y651820D01*
Y553720D02*
Y592610D01*
X675386Y543560D02*
X685546Y553720D01*
X684276Y449550D02*
Y492110D01*
X675386Y501000D02*
X684276Y492110D01*
X490474Y651820D02*
X566674D01*
X556514Y602770D02*
X566674Y592610D01*
Y553720D02*
Y592610D01*
X556514Y602770D02*
Y641660D01*
X566674Y651820D01*
X486664Y449550D02*
X562864D01*
X490474Y553720D02*
X566674D01*
X556514Y543560D02*
X566674Y553720D01*
X562864Y449550D02*
Y493380D01*
X556514Y499730D02*
X562864Y493380D01*
X556514Y499730D02*
Y543560D01*
X562864Y449550D02*
X584988Y427426D01*
Y373574D02*
X607112Y351450D01*
X584988Y373574D02*
Y427426D01*
X607112Y351450D02*
X683312D01*
X607112Y279816D02*
X617272Y289975D01*
X607112Y253350D02*
Y279816D01*
X617272Y289975D02*
Y341290D01*
X607112Y351450D02*
X617272Y341290D01*
X607112Y253350D02*
X683312D01*
X607112Y155250D02*
X617272Y165410D01*
Y243190D01*
X607112Y253350D02*
X617272Y243190D01*
X607112Y155250D02*
X683312D01*
X607112Y83616D02*
X617272Y93776D01*
Y145090D01*
X607112Y155250D02*
X617272Y145090D01*
X607112Y57150D02*
Y83616D01*
Y57150D02*
X683312D01*
X447802Y553720D02*
Y580186D01*
X437642Y590346D02*
X447802Y580186D01*
X437642Y641660D02*
X447802Y651820D01*
X437642Y543560D02*
X447802Y553720D01*
X437642Y486036D02*
X441452Y482226D01*
Y449550D02*
Y482226D01*
Y449550D02*
X459652Y431350D01*
Y279816D02*
X469812Y289975D01*
X459652Y253350D02*
Y279816D01*
Y351450D02*
X469812Y341290D01*
X459652Y253350D02*
X469812Y243190D01*
X459652Y155250D02*
Y181716D01*
X469812Y191876D01*
X459652Y155250D02*
X469812Y145090D01*
X459652Y57150D02*
Y83616D01*
X469812Y93776D01*
X309880Y439390D02*
X320040Y449550D01*
X309880Y353762D02*
X312192Y351450D01*
X322352Y341290D01*
X312192Y253350D02*
Y279816D01*
X322352Y289975D01*
X312192Y253350D02*
X322352Y243190D01*
X312192Y155250D02*
Y181716D01*
X322352Y191876D01*
X312192Y155250D02*
X322352Y145090D01*
X312192Y57150D02*
Y83616D01*
X322352Y93776D01*
X318770Y543560D02*
X328930Y553720D01*
X318770Y450820D02*
X320040Y449550D01*
X318770Y641660D02*
X328930Y651820D01*
X318770Y563880D02*
X328930Y553720D01*
X210058D02*
Y592610D01*
X199898Y602770D02*
X210058Y592610D01*
X199898Y641660D02*
X210058Y651820D01*
X199898Y392484D02*
X240932Y351450D01*
X199898Y543560D02*
X210058Y553720D01*
X230772Y341290D02*
X240932Y351450D01*
Y253350D02*
Y279816D01*
X230772Y289975D02*
X240932Y279816D01*
Y155250D02*
Y181716D01*
X230772Y191876D02*
X240932Y181716D01*
X230772Y243190D02*
X240932Y253350D01*
X230772Y145090D02*
X240932Y155250D01*
Y57150D02*
Y96040D01*
X230772Y106200D02*
X240932Y96040D01*
X93726Y553720D02*
Y580186D01*
X83566Y590346D02*
X93726Y580186D01*
X83566Y641660D02*
X93726Y651820D01*
X65532Y449550D02*
X79629Y463647D01*
Y539623D02*
X93726Y553720D01*
X65532Y449550D02*
X93472Y421610D01*
X83312Y302400D02*
X93472Y292240D01*
Y253350D02*
Y292240D01*
X83312Y341290D02*
X93472Y351450D01*
Y155250D02*
Y194140D01*
X83312Y204300D02*
X93472Y194140D01*
X83312Y243190D02*
X93472Y253350D01*
X83312Y106200D02*
X93472Y96040D01*
X83312Y145090D02*
X93472Y155250D01*
Y57150D02*
Y96040D01*
X464340Y811050D02*
X464820Y811530D01*
D13*
X76202Y952360D02*
D03*
X107202D02*
D03*
X76202Y744360D02*
D03*
X107202D02*
D03*
D15*
X438900Y698500D02*
X464300D01*
X346190Y715010D02*
X362700Y698500D01*
X388100D01*
X275670Y676910D02*
Y687670D01*
X286500Y698500D01*
X134780Y717750D02*
X134980Y717550D01*
X205220Y668020D02*
X235700Y698500D01*
X235448Y700876D02*
Y709487D01*
X213970Y842160D02*
X221702D01*
X227901Y848360D01*
X228859D01*
X194970Y842160D02*
Y851600D01*
X208080Y864710D01*
X108654Y745812D02*
X122242D01*
X107202Y744360D02*
X108654Y745812D01*
X122242D02*
X194970Y818540D01*
Y829160D01*
X162400Y727710D02*
X217250D01*
X298450Y769620D02*
Y783590D01*
X269240Y745490D02*
X270941Y747191D01*
X276021D01*
X298450Y769620D01*
X282503Y772723D02*
X283066Y773286D01*
X265510Y772160D02*
X266073Y772723D01*
X282503D01*
X134980Y717550D02*
X152240D01*
X228680Y716280D02*
X273050D01*
X288290D01*
X304530Y760640D02*
Y760730D01*
X304960Y715010D02*
X346190D01*
X152240Y717550D02*
X154785Y720095D01*
X225935Y719025D02*
X226135D01*
X217250Y727710D02*
X225935Y719025D01*
X226135D02*
X228680Y716480D01*
X228668Y716093D02*
X231225Y713535D01*
X231401D02*
X235448Y709487D01*
X235700Y698500D02*
Y700624D01*
X231225Y713535D02*
X231401D01*
X235448Y700876D02*
X235700Y700624D01*
X172640Y678180D02*
X175185Y675635D01*
Y673175D02*
Y675635D01*
Y673175D02*
X180340Y668020D01*
X205220D01*
X153830Y678180D02*
X172640D01*
X618299Y926021D02*
Y927925D01*
X615695Y930529D02*
X618299Y927925D01*
Y926021D02*
X634010Y910310D01*
X653570D01*
X613791Y930529D02*
X615695D01*
X613054Y931266D02*
X613791Y930529D01*
D16*
X660400Y773430D02*
D03*
Y798830D02*
D03*
Y824230D02*
D03*
X635000Y773430D02*
D03*
Y798830D02*
D03*
Y824230D02*
D03*
X156210Y701040D02*
D03*
X588010D02*
D03*
X562610D02*
D03*
X537210D02*
D03*
X461010D02*
D03*
X435610D02*
D03*
X410210D02*
D03*
X384810D02*
D03*
X334010D02*
D03*
X308610D02*
D03*
X257810D02*
D03*
X283210D02*
D03*
X232410D02*
D03*
X207010D02*
D03*
X181610D02*
D03*
X105410D02*
D03*
X105860Y980440D02*
D03*
X131260D02*
D03*
X562160D02*
D03*
X587560D02*
D03*
X486410Y701040D02*
D03*
X511810D02*
D03*
X130810D02*
D03*
X359410D02*
D03*
X17272Y253350D02*
D03*
X16002Y210170D02*
D03*
X93472Y253350D02*
D03*
X94742Y210170D02*
D03*
X607112Y155250D02*
D03*
X605842Y112070D02*
D03*
X683312Y155250D02*
D03*
X684582Y112070D02*
D03*
X459652Y155250D02*
D03*
X458382Y112070D02*
D03*
X535852Y155250D02*
D03*
X537122Y112070D02*
D03*
X312192Y155250D02*
D03*
X310922Y112070D02*
D03*
X388392Y155250D02*
D03*
X389662Y112070D02*
D03*
X164732Y155250D02*
D03*
X163462Y112070D02*
D03*
X240932Y155250D02*
D03*
X242202Y112070D02*
D03*
X17272Y155250D02*
D03*
X16002Y112070D02*
D03*
X93472Y155250D02*
D03*
X94742Y112070D02*
D03*
X607112Y253350D02*
D03*
X605842Y210170D02*
D03*
X683312Y253350D02*
D03*
X684582Y210170D02*
D03*
X459652Y253350D02*
D03*
X458382Y210170D02*
D03*
X535852Y253350D02*
D03*
X537122Y210170D02*
D03*
X312192Y253350D02*
D03*
X310922Y210170D02*
D03*
X388392Y253350D02*
D03*
X389662Y210170D02*
D03*
X164732Y253350D02*
D03*
X163462Y210170D02*
D03*
X240932Y253350D02*
D03*
X242202Y210170D02*
D03*
X607112Y351450D02*
D03*
X605842Y308270D02*
D03*
X683312Y351450D02*
D03*
X684582Y308270D02*
D03*
X459652Y351450D02*
D03*
X458382Y308270D02*
D03*
X535852Y351450D02*
D03*
X537122Y308270D02*
D03*
X312192Y351450D02*
D03*
X310922Y308270D02*
D03*
X388392Y351450D02*
D03*
X389662Y308270D02*
D03*
X164732Y351450D02*
D03*
X163462Y308270D02*
D03*
X240932Y351450D02*
D03*
X242202Y308270D02*
D03*
X17272Y351450D02*
D03*
X16002Y308270D02*
D03*
X93472Y351450D02*
D03*
X94742Y308270D02*
D03*
X608076Y449550D02*
D03*
X606806Y406370D02*
D03*
X684276Y449550D02*
D03*
X685546Y406370D02*
D03*
X486664Y449550D02*
D03*
X485394Y406370D02*
D03*
X562864Y449550D02*
D03*
X564134Y406370D02*
D03*
X365252Y449550D02*
D03*
X363982Y406370D02*
D03*
X441452Y449550D02*
D03*
X442722Y406370D02*
D03*
X243840Y449550D02*
D03*
X242570Y406370D02*
D03*
X320040Y449550D02*
D03*
X321310Y406370D02*
D03*
X65532Y449550D02*
D03*
X64262Y406370D02*
D03*
X141732Y449550D02*
D03*
X143002Y406370D02*
D03*
X609346Y553720D02*
D03*
X608076Y510540D02*
D03*
X685546Y553720D02*
D03*
X686816Y510540D02*
D03*
X490474Y553720D02*
D03*
X489204Y510540D02*
D03*
X566674Y553720D02*
D03*
X567944Y510540D02*
D03*
X371602Y553720D02*
D03*
X370332Y510540D02*
D03*
X447802Y553720D02*
D03*
X449072Y510540D02*
D03*
X252730Y553720D02*
D03*
X251460Y510540D02*
D03*
X328930Y553720D02*
D03*
X330200Y510540D02*
D03*
X133858Y553720D02*
D03*
X132588Y510540D02*
D03*
X210058Y553720D02*
D03*
X211328Y510540D02*
D03*
X17526Y553720D02*
D03*
X16256Y510540D02*
D03*
X93726Y553720D02*
D03*
X94996Y510540D02*
D03*
X609346Y651820D02*
D03*
X608076Y608640D02*
D03*
X685546Y651820D02*
D03*
X686816Y608640D02*
D03*
X490474Y651820D02*
D03*
X489204Y608640D02*
D03*
X566674Y651820D02*
D03*
X567944Y608640D02*
D03*
X371602Y651820D02*
D03*
X370332Y608640D02*
D03*
X447802Y651820D02*
D03*
X449072Y608640D02*
D03*
X252730Y651820D02*
D03*
X251460Y608640D02*
D03*
X328930Y651820D02*
D03*
X330200Y608640D02*
D03*
X133858Y651820D02*
D03*
X132588Y608640D02*
D03*
X210058Y651820D02*
D03*
X211328Y608640D02*
D03*
X17526Y651820D02*
D03*
X16256Y608640D02*
D03*
X93726Y651820D02*
D03*
X94996Y608640D02*
D03*
X17272Y57150D02*
D03*
X16002Y13970D02*
D03*
X93472Y57150D02*
D03*
X94742Y13970D02*
D03*
X459652Y57150D02*
D03*
X458382Y13970D02*
D03*
X535852Y57150D02*
D03*
X537122Y13970D02*
D03*
X312192Y57150D02*
D03*
X310922Y13970D02*
D03*
X388392Y57150D02*
D03*
X389662Y13970D02*
D03*
X164732Y57150D02*
D03*
X163462Y13970D02*
D03*
X240932Y57150D02*
D03*
X242202Y13970D02*
D03*
X607112Y57150D02*
D03*
X605842Y13970D02*
D03*
X683312Y57150D02*
D03*
X684582Y13970D02*
D03*
D17*
X461037Y727683D02*
D03*
X577850Y721360D02*
D03*
Y749300D02*
D03*
X479499Y737817D02*
D03*
X455930Y749300D02*
D03*
X541020Y914400D02*
D03*
X417830Y920750D02*
D03*
X519404Y811622D02*
D03*
X570156Y827451D02*
D03*
X566403Y842222D02*
D03*
X414020Y848360D02*
D03*
X342010Y971493D02*
D03*
X265400Y847258D02*
D03*
X228859Y848360D02*
D03*
X201943Y810247D02*
D03*
X408940Y902970D02*
D03*
X513080Y891540D02*
D03*
X433070Y955040D02*
D03*
X590550Y943610D02*
D03*
X515620Y939800D02*
D03*
X580390Y811530D02*
D03*
X232529Y809454D02*
D03*
X274493Y883747D02*
D03*
X368300Y905510D02*
D03*
X400050Y872490D02*
D03*
X298450Y787400D02*
D03*
X283066Y773286D02*
D03*
X408940Y808990D02*
D03*
X269240Y745490D02*
D03*
X218440Y942340D02*
D03*
X631190Y955040D02*
D03*
X590550Y923290D02*
D03*
X298450Y732790D02*
D03*
D18*
X434340Y812170D02*
D03*
Y817170D02*
D03*
Y822170D02*
D03*
Y827170D02*
D03*
Y832170D02*
D03*
Y837170D02*
D03*
Y842170D02*
D03*
Y847170D02*
D03*
Y852170D02*
D03*
Y857170D02*
D03*
Y862170D02*
D03*
Y867170D02*
D03*
Y872170D02*
D03*
Y877170D02*
D03*
Y882170D02*
D03*
Y887170D02*
D03*
X549340D02*
D03*
Y882170D02*
D03*
Y877170D02*
D03*
Y872170D02*
D03*
Y867170D02*
D03*
Y862170D02*
D03*
Y857170D02*
D03*
Y852170D02*
D03*
Y847170D02*
D03*
Y842170D02*
D03*
Y837170D02*
D03*
Y832170D02*
D03*
Y827170D02*
D03*
Y822170D02*
D03*
Y817170D02*
D03*
Y812170D02*
D03*
D19*
X454340Y907170D02*
D03*
X459340D02*
D03*
X464340D02*
D03*
X469340D02*
D03*
X474340D02*
D03*
X479340D02*
D03*
X484340D02*
D03*
X489340D02*
D03*
X494340D02*
D03*
X499340D02*
D03*
X504340D02*
D03*
X509340D02*
D03*
X514340D02*
D03*
X519340D02*
D03*
X524340D02*
D03*
X529340D02*
D03*
Y792170D02*
D03*
X524340D02*
D03*
X519340D02*
D03*
X514340D02*
D03*
X509340D02*
D03*
X504340D02*
D03*
X499340D02*
D03*
X494340D02*
D03*
X489340D02*
D03*
X484340D02*
D03*
X479340D02*
D03*
X474340D02*
D03*
X469340D02*
D03*
X464340D02*
D03*
X459340D02*
D03*
X454340D02*
D03*
D20*
X194970Y842160D02*
D03*
Y835660D02*
D03*
Y829160D02*
D03*
X213970D02*
D03*
Y835660D02*
D03*
D21*
Y842160D02*
D03*
D22*
X430530Y791700D02*
D03*
Y783100D02*
D03*
X415290Y874250D02*
D03*
Y865650D02*
D03*
X566420Y803420D02*
D03*
Y812020D02*
D03*
D23*
X532620Y929640D02*
D03*
X524020D02*
D03*
D24*
X92202Y848360D02*
D03*
D25*
X391160Y760730D02*
D03*
Y771906D02*
D03*
D26*
X299990Y858520D02*
D03*
X294370D02*
D03*
X310150Y760730D02*
D03*
X304530D02*
D03*
D27*
X332740Y873000D02*
D03*
Y778000D02*
D03*
D28*
X325501Y928370D02*
D03*
Y941070D02*
D03*
Y953770D02*
D03*
Y966470D02*
D03*
X398399D02*
D03*
Y953770D02*
D03*
Y941070D02*
D03*
Y928370D02*
D03*
D29*
X265510Y772160D02*
D03*
X250110D02*
D03*
X233109Y792098D02*
D03*
X217708D02*
D03*
X260270Y676910D02*
D03*
X275670D02*
D03*
X350520Y680720D02*
D03*
X335120D02*
D03*
X289480Y717550D02*
D03*
X304880D02*
D03*
X228680Y716280D02*
D03*
X213280D02*
D03*
X172640Y678180D02*
D03*
X188040D02*
D03*
X152240Y717550D02*
D03*
X167640D02*
D03*
X134780D02*
D03*
X119380D02*
D03*
X153830Y678180D02*
D03*
X138430D02*
D03*
D30*
X250508Y788520D02*
D03*
Y795020D02*
D03*
Y801520D02*
D03*
X272733D02*
D03*
Y788520D02*
D03*
X222250Y891540D02*
D03*
Y898040D02*
D03*
Y904540D02*
D03*
X244475D02*
D03*
Y891540D02*
D03*
D31*
X258614Y879252D02*
D03*
Y863852D02*
D03*
X208280Y864710D02*
D03*
Y880110D02*
D03*
D32*
X659050Y932080D02*
D03*
Y938580D02*
D03*
Y925580D02*
D03*
Y945080D02*
D03*
Y919080D02*
D03*
D33*
X660300Y963080D02*
D03*
Y901080D02*
D03*
D34*
X685800Y944080D02*
D03*
Y920080D02*
D03*
D35*
Y970080D02*
D03*
Y894080D02*
D03*
D36*
X636270Y923290D02*
D03*
Y932790D02*
D03*
Y942290D02*
D03*
X608965D02*
D03*
Y932790D02*
D03*
Y923290D02*
D03*
D37*
X659130Y922655D02*
D03*
D38*
X670560Y960755D02*
D03*
D39*
X685800Y956310D02*
D03*
D40*
X659765Y914400D02*
D03*
D41*
X689610Y932815D02*
D03*
D42*
X681355Y931845D02*
D03*
D43*
X685800Y908685D02*
D03*
D44*
X673735Y897255D02*
D03*
M02*
