G04*
G04 #@! TF.GenerationSoftware,Altium Limited,Altium Designer,24.7.2 (38)*
G04*
G04 Layer_Physical_Order=1*
G04 Layer_Color=255*
%FSLAX44Y44*%
%MOMM*%
G71*
G04*
G04 #@! TF.SameCoordinates,966AE77D-DC0C-403A-A995-9434F704E8A8*
G04*
G04*
G04 #@! TF.FilePolarity,Positive*
G04*
G01*
G75*
%ADD10C,0.5080*%
%ADD11C,0.2540*%
%ADD20C,2.3114*%
%ADD24C,0.3810*%
%ADD25C,1.5240*%
%ADD26C,1.2700*%
%ADD27C,2.2000*%
G36*
X626011Y969405D02*
Y962315D01*
X625731Y962154D01*
X624076Y960499D01*
X622906Y958471D01*
X622300Y956210D01*
Y953870D01*
X622906Y951609D01*
X624076Y949581D01*
X625731Y947926D01*
X626479Y947495D01*
X626139Y946225D01*
X605110D01*
Y953025D01*
X605411Y953106D01*
X607439Y954276D01*
X609094Y955931D01*
X610264Y957959D01*
X610870Y960220D01*
Y962560D01*
X610264Y964821D01*
X609094Y966849D01*
X607439Y968504D01*
X605411Y969674D01*
X603150Y970280D01*
X600810D01*
X598549Y969674D01*
X596521Y968504D01*
X594866Y966849D01*
X593696Y964821D01*
X593090Y962560D01*
Y960220D01*
X593696Y957959D01*
X594866Y955931D01*
X596521Y954276D01*
X597341Y953803D01*
Y943828D01*
X597636Y942341D01*
X598478Y941081D01*
X599966Y939593D01*
X601226Y938751D01*
X602713Y938455D01*
X686995D01*
Y821696D01*
X685822Y821210D01*
X646312Y860720D01*
X646430Y861160D01*
Y863500D01*
X645824Y865761D01*
X644654Y867789D01*
X642999Y869444D01*
X640971Y870614D01*
X638710Y871220D01*
X636370D01*
X634109Y870614D01*
X632081Y869444D01*
X630426Y867789D01*
X629256Y865761D01*
X628650Y863500D01*
Y861160D01*
X629256Y858899D01*
X630426Y856871D01*
X632081Y855216D01*
X634109Y854046D01*
X636370Y853440D01*
X638710D01*
X640971Y854046D01*
X641623Y854422D01*
X660481Y835563D01*
X659995Y834390D01*
X659062D01*
X656478Y833698D01*
X654162Y832360D01*
X652270Y830468D01*
X650932Y828152D01*
X650240Y825568D01*
Y822892D01*
X650932Y820308D01*
X652270Y817992D01*
X654162Y816100D01*
X656478Y814762D01*
X659062Y814070D01*
X661738D01*
X664322Y814762D01*
X664355Y814781D01*
X678105Y801031D01*
Y788278D01*
X676932Y787792D01*
X669848Y794875D01*
X669868Y794908D01*
X670560Y797492D01*
Y800168D01*
X669868Y802752D01*
X668530Y805068D01*
X666638Y806960D01*
X664322Y808298D01*
X661738Y808990D01*
X659062D01*
X656478Y808298D01*
X654162Y806960D01*
X654053Y806851D01*
X652879Y807337D01*
Y811530D01*
X652485Y813512D01*
X651363Y815192D01*
X644844Y821711D01*
X645160Y822892D01*
Y825568D01*
X644468Y828152D01*
X643130Y830468D01*
X641238Y832360D01*
X638922Y833698D01*
X636338Y834390D01*
X633662D01*
X631078Y833698D01*
X628762Y832360D01*
X626870Y830468D01*
X625532Y828152D01*
X624840Y825568D01*
Y822892D01*
X625532Y820308D01*
X626870Y817992D01*
X628762Y816100D01*
X631078Y814762D01*
X633662Y814070D01*
X636338D01*
X637519Y814387D01*
X642521Y809385D01*
Y807337D01*
X641347Y806851D01*
X641238Y806960D01*
X638922Y808298D01*
X636338Y808990D01*
X633662D01*
X631078Y808298D01*
X628762Y806960D01*
X626870Y805068D01*
X625532Y802752D01*
X624840Y800168D01*
Y797492D01*
X625532Y794908D01*
X626870Y792592D01*
X628762Y790700D01*
X631078Y789362D01*
X631489Y789252D01*
Y789106D01*
X631883Y787124D01*
X633006Y785443D01*
X633678Y784771D01*
X633190Y783463D01*
X631078Y782898D01*
X628762Y781560D01*
X626870Y779668D01*
X625532Y777352D01*
X624840Y774768D01*
Y774700D01*
X635000D01*
Y772160D01*
X624840D01*
Y772092D01*
X625163Y770889D01*
X624024Y770232D01*
X622243Y772012D01*
X620563Y773135D01*
X618580Y773530D01*
X604520D01*
X602538Y773135D01*
X600858Y772012D01*
X594755Y765910D01*
X572744D01*
X572134Y767179D01*
X572770Y769552D01*
Y772228D01*
X572078Y774812D01*
X570740Y777128D01*
X568848Y779020D01*
X566532Y780358D01*
X563948Y781050D01*
X561272D01*
X561104Y781005D01*
X560614Y782188D01*
X561719Y782826D01*
X563374Y784481D01*
X564544Y786509D01*
X565123Y788670D01*
X557530D01*
Y780687D01*
X557766Y779825D01*
X556372Y779020D01*
X554480Y777128D01*
X553142Y774812D01*
X552450Y772228D01*
Y769552D01*
X553086Y767179D01*
X552476Y765910D01*
X535115D01*
X534775Y767179D01*
X535300Y767483D01*
X536955Y769138D01*
X538126Y771165D01*
X538732Y773426D01*
Y775767D01*
X538126Y778028D01*
X536955Y780055D01*
X535300Y781710D01*
X533273Y782881D01*
X531012Y783487D01*
X528671D01*
X527859Y783269D01*
X478833Y832295D01*
X479085Y832731D01*
X479691Y834992D01*
Y837333D01*
X479085Y839594D01*
X477915Y841621D01*
X476260Y843276D01*
X474232Y844447D01*
X472477Y844917D01*
X472004Y846240D01*
X473917Y848153D01*
X474759Y849413D01*
X475055Y850900D01*
Y854307D01*
X476629Y855216D01*
X478284Y856871D01*
X479454Y858899D01*
X480060Y861160D01*
Y863500D01*
X479454Y865761D01*
X478284Y867789D01*
X476629Y869444D01*
X474601Y870614D01*
X472340Y871220D01*
X470000D01*
X467739Y870614D01*
X465711Y869444D01*
X465489Y869221D01*
X447424Y887286D01*
X446164Y888129D01*
X444677Y888424D01*
X418820D01*
X417905Y889339D01*
Y895141D01*
X417609Y896627D01*
X416767Y897888D01*
X416428Y898226D01*
X416587Y898502D01*
X417193Y900763D01*
Y901625D01*
X468291D01*
X493905Y876011D01*
X493248Y874873D01*
X492660Y875030D01*
X490320D01*
X488059Y874424D01*
X486031Y873254D01*
X484376Y871599D01*
X483206Y869571D01*
X482600Y867310D01*
Y864970D01*
X483206Y862709D01*
X484376Y860681D01*
X486031Y859026D01*
X488059Y857856D01*
X490320Y857250D01*
X492660D01*
X494921Y857856D01*
X496949Y859026D01*
X498604Y860681D01*
X499774Y862709D01*
X500333Y864795D01*
X530860D01*
X532347Y865091D01*
X533607Y865933D01*
X543380Y875707D01*
X544222Y876967D01*
X544518Y878454D01*
Y898036D01*
X547690Y901208D01*
X548863Y900722D01*
Y862967D01*
X537023Y851127D01*
X535331Y851581D01*
X532990D01*
X530729Y850975D01*
X528702Y849804D01*
X527046Y848149D01*
X525876Y846122D01*
X525270Y843861D01*
Y841520D01*
X525876Y839259D01*
X527046Y837232D01*
X528702Y835577D01*
X530729Y834407D01*
X532990Y833801D01*
X535331D01*
X537592Y834407D01*
X539619Y835577D01*
X541274Y837232D01*
X542444Y839259D01*
X543050Y841520D01*
Y843861D01*
X542563Y845679D01*
X555495Y858611D01*
X555683Y858892D01*
X556953Y858507D01*
Y858360D01*
X557559Y856099D01*
X558729Y854072D01*
X560384Y852417D01*
X562063Y851448D01*
X562203Y850382D01*
X562114Y850011D01*
X560944Y849336D01*
X559289Y847680D01*
X558119Y845653D01*
X557513Y843392D01*
Y841051D01*
X558119Y838790D01*
X559289Y836763D01*
X560944Y835108D01*
X562529Y834193D01*
X562925Y833204D01*
X562889Y832645D01*
X561872Y830883D01*
X561266Y828622D01*
Y826281D01*
X561872Y824020D01*
X563042Y821993D01*
X564697Y820337D01*
X566724Y819167D01*
X568985Y818561D01*
X570714D01*
X571485Y817358D01*
X571486Y817357D01*
X570836Y816231D01*
X570257Y814070D01*
X577850D01*
Y822800D01*
X577790Y822893D01*
X577790Y822894D01*
X578440Y824020D01*
X579046Y826281D01*
Y828622D01*
X578575Y830377D01*
X643353Y895155D01*
X644195Y896415D01*
X644491Y897902D01*
Y900618D01*
X646051Y901036D01*
X648079Y902206D01*
X649734Y903861D01*
X650904Y905889D01*
X651510Y908150D01*
Y910490D01*
X650904Y912751D01*
X649734Y914779D01*
X648079Y916434D01*
X646051Y917604D01*
X643790Y918210D01*
X641450D01*
X639189Y917604D01*
X637161Y916434D01*
X635506Y914779D01*
X634336Y912751D01*
X633730Y910490D01*
Y908150D01*
X634336Y905889D01*
X635506Y903861D01*
X636721Y902646D01*
Y899511D01*
X623548Y886337D01*
X622375Y886823D01*
Y895195D01*
X622079Y896682D01*
X621237Y897942D01*
X619907Y899272D01*
Y903665D01*
X621481Y904574D01*
X623136Y906229D01*
X624306Y908256D01*
X624912Y910517D01*
Y912858D01*
X624306Y915119D01*
X623136Y917146D01*
X621481Y918801D01*
X619454Y919972D01*
X617193Y920577D01*
X614852D01*
X612591Y919972D01*
X610564Y918801D01*
X608909Y917146D01*
X607738Y915119D01*
X607132Y912858D01*
Y910517D01*
X607738Y908256D01*
X608909Y906229D01*
X610564Y904574D01*
X612138Y903665D01*
Y897663D01*
X612243Y897134D01*
X612233Y897111D01*
X611138Y896181D01*
X609600Y896593D01*
Y887730D01*
X608330D01*
Y886460D01*
X599467D01*
X600046Y884299D01*
X601216Y882271D01*
X602871Y880616D01*
X604899Y879446D01*
X607160Y878840D01*
X608660D01*
X609186Y877570D01*
X576241Y844625D01*
X574963D01*
X574687Y845653D01*
X573517Y847680D01*
X571861Y849336D01*
X570183Y850305D01*
X570042Y851371D01*
X570131Y851741D01*
X571301Y852417D01*
X572957Y854072D01*
X574127Y856099D01*
X574733Y858360D01*
Y860701D01*
X574127Y862962D01*
X572957Y864989D01*
X571301Y866645D01*
X570305Y867220D01*
Y896620D01*
X570009Y898107D01*
X569203Y899313D01*
X569203Y899643D01*
X569332Y900646D01*
X569836Y900936D01*
X571491Y902591D01*
X572661Y904619D01*
X573267Y906880D01*
Y909220D01*
X572661Y911481D01*
X571491Y913509D01*
X569836Y915164D01*
X567808Y916334D01*
X565547Y916940D01*
X563207D01*
X560946Y916334D01*
X560481Y916066D01*
X559381Y916701D01*
Y934363D01*
X560651Y934965D01*
X562225Y934056D01*
X564386Y933477D01*
Y942340D01*
X565656D01*
Y943610D01*
X574520D01*
X573940Y945771D01*
X572770Y947799D01*
X571115Y949454D01*
X569088Y950624D01*
X566827Y951230D01*
X566090D01*
X565564Y952500D01*
X569844Y956780D01*
X571600Y956310D01*
X573940D01*
X576201Y956916D01*
X578229Y958086D01*
X579884Y959741D01*
X581054Y961769D01*
X581660Y964030D01*
Y966370D01*
X581054Y968631D01*
X579884Y970659D01*
X578229Y972314D01*
X576201Y973484D01*
X573940Y974090D01*
X571692D01*
X571435Y974343D01*
X570872Y975210D01*
X571628Y976518D01*
X572320Y979102D01*
Y981778D01*
X571628Y984362D01*
X570290Y986678D01*
X570181Y986787D01*
X570667Y987961D01*
X579053D01*
X579539Y986787D01*
X579430Y986678D01*
X578092Y984362D01*
X577400Y981778D01*
Y979102D01*
X578092Y976518D01*
X579430Y974202D01*
X581321Y972310D01*
X583638Y970972D01*
X586222Y970280D01*
X588898D01*
X591482Y970972D01*
X593798Y972310D01*
X595690Y974202D01*
X597028Y976518D01*
X597720Y979102D01*
Y981778D01*
X597028Y984362D01*
X595690Y986678D01*
X595581Y986787D01*
X596067Y987961D01*
X607455D01*
X626011Y969405D01*
D02*
G37*
G36*
X214187Y994942D02*
X208428Y989183D01*
X207305Y987502D01*
X206910Y985520D01*
Y866140D01*
X207305Y864158D01*
X208428Y862477D01*
X220266Y850639D01*
X219969Y849530D01*
Y847190D01*
X220574Y844929D01*
X221745Y842901D01*
X223400Y841246D01*
X225427Y840076D01*
X227688Y839470D01*
X230029D01*
X232290Y840076D01*
X234317Y841246D01*
X235972Y842901D01*
X237143Y844929D01*
X237749Y847190D01*
Y849530D01*
X237143Y851791D01*
X235972Y853819D01*
X234317Y855474D01*
X232290Y856644D01*
X230029Y857250D01*
X228305D01*
X217269Y868285D01*
Y983375D01*
X221855Y987961D01*
X553653D01*
X554139Y986787D01*
X554030Y986678D01*
X552692Y984362D01*
X552000Y981778D01*
Y979102D01*
X552692Y976518D01*
X554030Y974202D01*
X555922Y972310D01*
X558238Y970972D01*
X560822Y970280D01*
X563498D01*
X564058Y970430D01*
X564895Y969340D01*
X564486Y968631D01*
X563880Y966370D01*
Y964030D01*
X564350Y962274D01*
X552749Y950673D01*
X551907Y949413D01*
X551612Y947926D01*
Y935077D01*
X550342Y934475D01*
X548768Y935384D01*
X546507Y935990D01*
X544166D01*
X541905Y935384D01*
X539878Y934214D01*
X538222Y932559D01*
X537052Y930531D01*
X536446Y928270D01*
Y925930D01*
X537052Y923669D01*
X537079Y923623D01*
X536431Y922205D01*
X534970Y921813D01*
X532943Y920643D01*
X531287Y918988D01*
X530117Y916961D01*
X529511Y914700D01*
Y912359D01*
X530117Y910098D01*
X530522Y909396D01*
X525435Y904309D01*
X524593Y903049D01*
X524298Y901562D01*
Y897231D01*
X523028Y896705D01*
X522349Y897384D01*
X520321Y898554D01*
X518830Y898954D01*
Y899834D01*
X518535Y901321D01*
X517693Y902581D01*
X516965Y903309D01*
Y910590D01*
X516669Y912077D01*
X515827Y913337D01*
X495646Y933518D01*
X493091Y936072D01*
X493937Y936918D01*
X494779Y938178D01*
X495074Y939665D01*
X494779Y941151D01*
X493937Y942411D01*
X488548Y947800D01*
X487288Y948642D01*
X485802Y948937D01*
X485273Y948832D01*
X484193Y949912D01*
X484298Y950441D01*
X484002Y951927D01*
X483160Y953188D01*
X477772Y958576D01*
X476512Y959418D01*
X475025Y959714D01*
X473539Y959418D01*
X472278Y958576D01*
X471433Y957731D01*
X471377Y957787D01*
X470117Y958629D01*
X468630Y958925D01*
X464790D01*
X464790Y958925D01*
X464790Y958925D01*
X455930D01*
X454444Y958629D01*
X453183Y957787D01*
X452884Y957339D01*
X451356D01*
X451057Y957787D01*
X449797Y958629D01*
X448310Y958925D01*
X441092D01*
X440445Y960045D01*
X441047Y961315D01*
X491163D01*
X491204Y961163D01*
X492375Y959136D01*
X494030Y957480D01*
X496057Y956310D01*
X498318Y955704D01*
X500659D01*
X502611Y956227D01*
X503208Y955072D01*
X501778Y953642D01*
X500607Y951615D01*
X500028Y949454D01*
X507621D01*
Y957047D01*
X505769Y956551D01*
X505173Y957706D01*
X506602Y959136D01*
X507773Y961163D01*
X508379Y963424D01*
Y965764D01*
X507773Y968026D01*
X506602Y970053D01*
X504947Y971708D01*
X502920Y972878D01*
X500659Y973484D01*
X498318D01*
X496057Y972878D01*
X494030Y971708D01*
X492375Y970053D01*
X491816Y969085D01*
X423128D01*
X421641Y968789D01*
X420381Y967947D01*
X417623Y965189D01*
X416781Y963929D01*
X416485Y962442D01*
Y953372D01*
X416781Y951885D01*
X417623Y950625D01*
X448967Y919281D01*
X450227Y918439D01*
X451714Y918143D01*
X452988D01*
X453896Y916569D01*
X454721Y915745D01*
X454195Y914475D01*
X421611D01*
X421271Y915745D01*
X422019Y916176D01*
X423674Y917831D01*
X424844Y919859D01*
X425423Y922020D01*
X416560D01*
Y923290D01*
X415290D01*
Y932153D01*
X413129Y931574D01*
X411101Y930404D01*
X409446Y928749D01*
X408276Y926721D01*
X407670Y924460D01*
Y923831D01*
X406400Y923305D01*
X393475Y936230D01*
X392215Y937073D01*
X390728Y937368D01*
X362349D01*
X361440Y938942D01*
X359785Y940597D01*
X357758Y941768D01*
X355497Y942374D01*
X353156D01*
X350895Y941768D01*
X348868Y940597D01*
X347213Y938942D01*
X346042Y936915D01*
X345436Y934654D01*
Y932313D01*
X346042Y930052D01*
X346970Y928445D01*
X346393Y927175D01*
X316230D01*
X314743Y926879D01*
X313483Y926037D01*
X278909Y891463D01*
X277924Y892031D01*
X275663Y892637D01*
X273322D01*
X271061Y892031D01*
X269034Y890861D01*
X267379Y889206D01*
X266209Y887179D01*
X265603Y884918D01*
Y882577D01*
X266209Y880316D01*
X267379Y878289D01*
X269034Y876634D01*
X271061Y875463D01*
X273322Y874857D01*
X275663D01*
X277924Y875463D01*
X279951Y876634D01*
X281607Y878289D01*
X282777Y880316D01*
X283383Y882577D01*
Y884918D01*
X283376Y884942D01*
X317839Y919405D01*
X389243D01*
X397472Y911176D01*
Y911152D01*
X397768Y909665D01*
X398610Y908405D01*
X400616Y906399D01*
X400019Y905365D01*
X399413Y903104D01*
Y900763D01*
X400019Y898502D01*
X401189Y896475D01*
X402844Y894819D01*
X404872Y893649D01*
X407133Y893043D01*
X409473D01*
X410135Y892535D01*
Y887730D01*
Y856383D01*
X408561Y855474D01*
X406906Y853819D01*
X405736Y851791D01*
X405130Y849530D01*
Y847190D01*
X405736Y844929D01*
X406906Y842901D01*
X408561Y841246D01*
X410589Y840076D01*
X412850Y839470D01*
X415190D01*
X417451Y840076D01*
X419025Y840985D01*
X420295Y840383D01*
Y809516D01*
X406061Y795281D01*
X404918D01*
X403432Y794985D01*
X402171Y794143D01*
X388413Y780385D01*
X387571Y779125D01*
X387275Y777638D01*
Y740526D01*
X386005Y740059D01*
X384246Y741074D01*
X383615Y741244D01*
Y858311D01*
X383319Y859797D01*
X382488Y861041D01*
X383034Y861588D01*
X384204Y863615D01*
X384810Y865876D01*
Y868217D01*
X384204Y870478D01*
X383034Y872505D01*
X381379Y874160D01*
X379351Y875330D01*
X377090Y875936D01*
X375500D01*
X374498Y877102D01*
X374650Y877670D01*
Y880010D01*
X374044Y882271D01*
X372874Y884299D01*
X371219Y885954D01*
X369191Y887124D01*
X366930Y887730D01*
X365767D01*
X364793Y889000D01*
X364894Y889377D01*
Y891718D01*
X364288Y893979D01*
X363117Y896006D01*
X361462Y897662D01*
X359435Y898832D01*
X357174Y899438D01*
X354833D01*
X352572Y898832D01*
X350545Y897662D01*
X348890Y896006D01*
X347719Y893979D01*
X347114Y891718D01*
Y889377D01*
X347719Y887116D01*
X348890Y885089D01*
X350545Y883434D01*
X351715Y882758D01*
Y832684D01*
X352011Y831198D01*
X352853Y829937D01*
X359335Y823455D01*
Y799187D01*
X358065Y798585D01*
X356491Y799494D01*
X354230Y800100D01*
X351890D01*
X349629Y799494D01*
X347601Y798324D01*
X345946Y796669D01*
X345878Y796550D01*
X306099D01*
X305564Y797476D01*
X303909Y799131D01*
X301881Y800302D01*
X299620Y800908D01*
X297280D01*
X295019Y800302D01*
X292991Y799131D01*
X291336Y797476D01*
X290905Y796729D01*
X289635Y797069D01*
Y813950D01*
X289750D01*
X290741Y814147D01*
X291581Y814709D01*
X292143Y815549D01*
X292340Y816540D01*
Y825524D01*
X292143Y826515D01*
X291581Y827355D01*
X290741Y827917D01*
X289750Y828114D01*
X289635D01*
Y846358D01*
X289750D01*
X290741Y846555D01*
X291581Y847117D01*
X292143Y847957D01*
X292340Y848948D01*
Y857932D01*
X292143Y858923D01*
X291581Y859763D01*
X290741Y860325D01*
X289750Y860522D01*
X289635D01*
Y867852D01*
X325948Y904165D01*
X340551D01*
X341487Y903230D01*
X342747Y902387D01*
X344234Y902092D01*
X359259D01*
X359839Y901087D01*
X361495Y899432D01*
X363522Y898261D01*
X365783Y897655D01*
X368124D01*
X370385Y898261D01*
X372412Y899432D01*
X374067Y901087D01*
X375237Y903114D01*
X375843Y905375D01*
Y907716D01*
X375237Y909977D01*
X374067Y912004D01*
X372412Y913659D01*
X370385Y914830D01*
X368124Y915435D01*
X365783D01*
X363522Y914830D01*
X361495Y913659D01*
X359839Y912004D01*
X358669Y909977D01*
X358638Y909861D01*
X345843D01*
X344907Y910797D01*
X343647Y911639D01*
X342160Y911935D01*
X324339D01*
X322852Y911639D01*
X321592Y910797D01*
X283003Y872208D01*
X282161Y870948D01*
X281865Y869461D01*
Y860522D01*
X281750D01*
X280759Y860325D01*
X279919Y859763D01*
X279357Y858923D01*
X279160Y857932D01*
Y848948D01*
X279357Y847957D01*
X279919Y847117D01*
X280759Y846555D01*
X281750Y846358D01*
X281865D01*
Y828114D01*
X281750D01*
X280759Y827917D01*
X279919Y827355D01*
X279357Y826515D01*
X279160Y825524D01*
Y816540D01*
X279357Y815549D01*
X279919Y814709D01*
X280759Y814147D01*
X281750Y813950D01*
X281865D01*
Y782168D01*
X279634Y781570D01*
X277607Y780399D01*
X275952Y778744D01*
X274782Y776717D01*
X274311Y774962D01*
X272988Y774489D01*
X240949Y806528D01*
X241419Y808284D01*
Y810625D01*
X240813Y812886D01*
X239643Y814913D01*
X237987Y816568D01*
X235960Y817738D01*
X233699Y818344D01*
X231359D01*
X229097Y817738D01*
X227070Y816568D01*
X225415Y814913D01*
X224245Y812886D01*
X223639Y810625D01*
Y808284D01*
X224245Y806023D01*
X225415Y803996D01*
X227070Y802340D01*
X229097Y801170D01*
X231359Y800564D01*
X233699D01*
X235455Y801035D01*
X292437Y744052D01*
X293698Y743210D01*
X294517Y743047D01*
X294645Y742627D01*
X293634Y741583D01*
X293270Y741680D01*
X290930D01*
X288669Y741074D01*
X286641Y739904D01*
X284986Y738249D01*
X284077Y736675D01*
X274291D01*
X273951Y737945D01*
X274699Y738376D01*
X276354Y740031D01*
X277524Y742059D01*
X278130Y744320D01*
Y746660D01*
X277524Y748921D01*
X276354Y750949D01*
X274699Y752604D01*
X272671Y753774D01*
X270410Y754380D01*
X268070D01*
X265809Y753774D01*
X263781Y752604D01*
X262126Y750949D01*
X260956Y748921D01*
X260948Y748892D01*
X120582D01*
X120338Y749801D01*
X118483Y753016D01*
X115858Y755641D01*
X112643Y757496D01*
X112382Y757567D01*
Y939153D01*
X112643Y939223D01*
X115858Y941079D01*
X118483Y943704D01*
X120338Y946919D01*
X121299Y950504D01*
Y954216D01*
X120338Y957801D01*
X118483Y961016D01*
X115858Y963640D01*
X112643Y965496D01*
X109058Y966457D01*
X105346D01*
X101761Y965496D01*
X98546Y963640D01*
X95922Y961016D01*
X94066Y957801D01*
X93105Y954216D01*
Y950504D01*
X94066Y946919D01*
X95922Y943704D01*
X98546Y941079D01*
X101761Y939223D01*
X102023Y939153D01*
Y757567D01*
X101761Y757496D01*
X98546Y755641D01*
X95922Y753016D01*
X94066Y749801D01*
X93105Y746216D01*
Y742504D01*
X94066Y738919D01*
X95922Y735704D01*
X98546Y733080D01*
X101761Y731224D01*
X105346Y730263D01*
X109058D01*
X110582Y730671D01*
X111239Y729533D01*
X32251Y650545D01*
X26978D01*
X26968Y650582D01*
X25630Y652898D01*
X23738Y654790D01*
X21422Y656128D01*
X18838Y656820D01*
X16162D01*
X13578Y656128D01*
X11262Y654790D01*
X9370Y652898D01*
X8032Y650582D01*
X7340Y647998D01*
Y645322D01*
X8032Y642738D01*
X9370Y640422D01*
X11262Y638530D01*
X13578Y637192D01*
X16162Y636500D01*
X18838D01*
X21422Y637192D01*
X23738Y638530D01*
X25630Y640422D01*
X26968Y642738D01*
X26978Y642775D01*
X33860D01*
X35347Y643071D01*
X36607Y643913D01*
X93980Y701286D01*
X95250Y700760D01*
Y699702D01*
X95942Y697118D01*
X97280Y694802D01*
X99172Y692910D01*
X101488Y691572D01*
X104072Y690880D01*
X106748D01*
X109332Y691572D01*
X111648Y692910D01*
X113540Y694802D01*
X114878Y697118D01*
X115570Y699702D01*
Y702378D01*
X114878Y704962D01*
X113540Y707278D01*
X111648Y709170D01*
X109332Y710508D01*
X106748Y711200D01*
X105690D01*
X105164Y712470D01*
X121599Y728905D01*
X284077D01*
X284986Y727331D01*
X286641Y725676D01*
X288669Y724506D01*
X290930Y723900D01*
X293270D01*
X295531Y724506D01*
X297559Y725676D01*
X299214Y727331D01*
X300384Y729359D01*
X300990Y731620D01*
Y733960D01*
X300636Y735282D01*
X301673Y736319D01*
X302994Y735965D01*
X305335D01*
X307596Y736571D01*
X309623Y737741D01*
X311279Y739396D01*
X312449Y741423D01*
X313055Y743684D01*
Y746025D01*
X312449Y748286D01*
X311279Y750313D01*
X309702Y751890D01*
X309765Y752422D01*
X309778Y752463D01*
X309880Y752625D01*
Y760730D01*
X302287D01*
X302866Y758569D01*
X304036Y756541D01*
X305613Y754965D01*
X305550Y754433D01*
X305537Y754391D01*
X305128Y753745D01*
X302994D01*
X300733Y753139D01*
X298706Y751969D01*
X297421Y750684D01*
X296793D01*
X284269Y763208D01*
X284742Y764531D01*
X286497Y765002D01*
X288524Y766172D01*
X290180Y767827D01*
X290714Y768754D01*
X303672D01*
X304158Y767580D01*
X304036Y767459D01*
X302866Y765431D01*
X302287Y763270D01*
X320013D01*
X319434Y765431D01*
X318264Y767459D01*
X318142Y767580D01*
X318628Y768754D01*
X338892D01*
X340626Y769099D01*
X342096Y770081D01*
X343454Y771439D01*
X345280D01*
X345815Y770512D01*
X347470Y768857D01*
X349497Y767686D01*
X351253Y767216D01*
X351725Y765893D01*
X342693Y756861D01*
X341851Y755600D01*
X341555Y754114D01*
Y709522D01*
X340382Y709036D01*
X340248Y709170D01*
X337932Y710508D01*
X335348Y711200D01*
X332672D01*
X330088Y710508D01*
X327772Y709170D01*
X325880Y707278D01*
X324542Y704962D01*
X323850Y702378D01*
Y699702D01*
X324542Y697118D01*
X325880Y694802D01*
X327772Y692910D01*
X330088Y691572D01*
X332672Y690880D01*
X335348D01*
X337932Y691572D01*
X340248Y692910D01*
X340382Y693044D01*
X341555Y692558D01*
Y528109D01*
X326455Y513008D01*
X326422Y513028D01*
X323838Y513720D01*
X321162D01*
X318578Y513028D01*
X316262Y511690D01*
X314370Y509798D01*
X313032Y507482D01*
X313022Y507445D01*
X266978D01*
X266968Y507482D01*
X265630Y509798D01*
X263738Y511690D01*
X261422Y513028D01*
X258838Y513720D01*
X256162D01*
X253578Y513028D01*
X251262Y511690D01*
X249370Y509798D01*
X248032Y507482D01*
X247340Y504898D01*
Y502222D01*
X248032Y499638D01*
X249370Y497322D01*
X251262Y495430D01*
X253578Y494092D01*
X256162Y493400D01*
X258838D01*
X261422Y494092D01*
X263738Y495430D01*
X265630Y497322D01*
X266968Y499638D01*
X266978Y499675D01*
X313022D01*
X313032Y499638D01*
X314370Y497322D01*
X316262Y495430D01*
X318578Y494092D01*
X321162Y493400D01*
X323838D01*
X326422Y494092D01*
X328738Y495430D01*
X330630Y497322D01*
X331968Y499638D01*
X332660Y502222D01*
Y504898D01*
X331968Y507482D01*
X331949Y507515D01*
X348187Y523753D01*
X349029Y525013D01*
X349325Y526500D01*
Y695648D01*
X350595Y695989D01*
X351280Y694802D01*
X353172Y692910D01*
X355488Y691572D01*
X358072Y690880D01*
X360748D01*
X363332Y691572D01*
X364661Y692340D01*
X365441Y691323D01*
X364918Y690801D01*
X364076Y689541D01*
X363780Y688054D01*
Y675344D01*
X357425Y668989D01*
X356583Y667729D01*
X356287Y666242D01*
Y639395D01*
X356583Y637909D01*
X357425Y636649D01*
X373615Y620458D01*
Y611138D01*
X373578Y611128D01*
X371262Y609790D01*
X369370Y607898D01*
X368032Y605582D01*
X367340Y602998D01*
Y600322D01*
X368032Y597738D01*
X369370Y595422D01*
X371262Y593530D01*
X373578Y592192D01*
X376162Y591500D01*
X378838D01*
X381422Y592192D01*
X383738Y593530D01*
X385630Y595422D01*
X386968Y597738D01*
X386978Y597775D01*
X433022D01*
X433032Y597738D01*
X434370Y595422D01*
X436262Y593530D01*
X438578Y592192D01*
X441162Y591500D01*
X443838D01*
X446422Y592192D01*
X448738Y593530D01*
X448872Y593664D01*
X450045Y593178D01*
Y557043D01*
X448872Y556557D01*
X448738Y556690D01*
X446422Y558028D01*
X443838Y558720D01*
X441162D01*
X438578Y558028D01*
X436262Y556690D01*
X434370Y554799D01*
X433032Y552482D01*
X432340Y549898D01*
Y547223D01*
X433032Y544638D01*
X434370Y542322D01*
X436262Y540430D01*
X438578Y539092D01*
X441162Y538400D01*
X443838D01*
X446422Y539092D01*
X448738Y540430D01*
X448872Y540564D01*
X450045Y540078D01*
Y512043D01*
X448872Y511556D01*
X448738Y511690D01*
X446422Y513028D01*
X443838Y513720D01*
X441162D01*
X438578Y513028D01*
X436262Y511690D01*
X434370Y509798D01*
X433032Y507482D01*
X433022Y507445D01*
X386978D01*
X386968Y507482D01*
X385630Y509798D01*
X383738Y511690D01*
X381422Y513028D01*
X378838Y513720D01*
X376162D01*
X373578Y513028D01*
X371262Y511690D01*
X369370Y509798D01*
X368032Y507482D01*
X367340Y504898D01*
Y502222D01*
X368032Y499638D01*
X369370Y497322D01*
X371262Y495430D01*
X373578Y494092D01*
X376162Y493400D01*
X378838D01*
X381422Y494092D01*
X383738Y495430D01*
X385630Y497322D01*
X386968Y499638D01*
X386978Y499675D01*
X433022D01*
X433032Y499638D01*
X434370Y497322D01*
X436262Y495430D01*
X438578Y494092D01*
X441162Y493400D01*
X443838D01*
X446422Y494092D01*
X448738Y495430D01*
X448872Y495564D01*
X450045Y495078D01*
Y482600D01*
X3885D01*
Y996115D01*
X213701D01*
X214187Y994942D01*
D02*
G37*
G36*
X443299Y857717D02*
X444559Y856875D01*
X446046Y856579D01*
X447246D01*
X447646Y855089D01*
X448816Y853061D01*
X450471Y851406D01*
X452499Y850236D01*
X454760Y849630D01*
X457100D01*
X459361Y850236D01*
X461389Y851406D01*
X463044Y853061D01*
X464151Y854980D01*
X464486Y855212D01*
X465456Y855472D01*
X465711Y855216D01*
X467285Y854307D01*
Y852509D01*
X453183Y838407D01*
X452341Y837147D01*
X452045Y835660D01*
Y794089D01*
X448696Y790740D01*
X446940Y791210D01*
X444600D01*
X442339Y790604D01*
X440311Y789434D01*
X438656Y787779D01*
X437486Y785751D01*
X436880Y783490D01*
Y781150D01*
X437486Y778889D01*
X438656Y776861D01*
X440311Y775206D01*
X442339Y774036D01*
X444600Y773430D01*
X446940D01*
X449201Y774036D01*
X451229Y775206D01*
X452884Y776861D01*
X454054Y778889D01*
X454660Y781150D01*
Y783490D01*
X454190Y785246D01*
X458677Y789733D01*
X459519Y790993D01*
X459815Y792480D01*
Y811057D01*
X461085Y811583D01*
X461901Y810766D01*
X463929Y809596D01*
X466190Y808990D01*
X468530D01*
X470286Y809460D01*
X492685Y787061D01*
Y782722D01*
X491111Y781814D01*
X489456Y780159D01*
X488286Y778131D01*
X487680Y775870D01*
Y773530D01*
X488286Y771269D01*
X489456Y769241D01*
X491111Y767586D01*
X491816Y767179D01*
X491475Y765910D01*
X451195D01*
X449213Y765515D01*
X448904Y765309D01*
X447453Y765866D01*
X446534Y767459D01*
X444879Y769114D01*
X442851Y770284D01*
X440590Y770890D01*
X438250D01*
X435989Y770284D01*
X433961Y769114D01*
X432306Y767459D01*
X431136Y765431D01*
X430530Y763170D01*
Y760830D01*
X431136Y758569D01*
X432306Y756541D01*
X433961Y754886D01*
X435400Y754055D01*
X435710Y752569D01*
X431948Y748807D01*
X430825Y747126D01*
X430430Y745144D01*
Y709781D01*
X429372Y709170D01*
X427480Y707278D01*
X426766Y706042D01*
X425427Y706263D01*
X425229Y707261D01*
X424387Y708521D01*
X405205Y727703D01*
Y734089D01*
X406475Y734429D01*
X406906Y733681D01*
X408561Y732026D01*
X410589Y730856D01*
X412750Y730277D01*
Y739140D01*
Y748003D01*
X410589Y747424D01*
X408561Y746254D01*
X406906Y744599D01*
X406475Y743851D01*
X405205Y744191D01*
Y765407D01*
X406779Y766316D01*
X408434Y767971D01*
X409604Y769999D01*
X409626Y770078D01*
X410984Y770243D01*
X412371Y768856D01*
X414399Y767686D01*
X416560Y767107D01*
Y775970D01*
Y784833D01*
X414399Y784254D01*
X412371Y783084D01*
X410716Y781429D01*
X409546Y779401D01*
X409524Y779322D01*
X408166Y779157D01*
X406779Y780544D01*
X404751Y781714D01*
X402996Y782185D01*
X402523Y783508D01*
X406527Y787512D01*
X407670D01*
X409157Y787807D01*
X410417Y788650D01*
X426927Y805160D01*
X427769Y806420D01*
X428065Y807906D01*
Y857963D01*
X428227Y858125D01*
X442891D01*
X443299Y857717D01*
D02*
G37*
G36*
X358140Y739167D02*
X360301Y739746D01*
X362329Y740916D01*
X363984Y742571D01*
X365154Y744599D01*
X365500Y745891D01*
X366770Y745723D01*
Y709844D01*
X366078Y709428D01*
X365500Y709256D01*
X363332Y710508D01*
X360748Y711200D01*
X358072D01*
X355488Y710508D01*
X353172Y709170D01*
X351280Y707278D01*
X350595Y706091D01*
X349325Y706432D01*
Y741207D01*
X350595Y741733D01*
X351411Y740916D01*
X353439Y739746D01*
X355600Y739167D01*
Y748030D01*
X358140D01*
Y739167D01*
D02*
G37*
G36*
X448176Y748590D02*
Y746875D01*
X448782Y744614D01*
X449953Y742587D01*
X451608Y740932D01*
X453635Y739761D01*
X455896Y739156D01*
X458237D01*
X460498Y739761D01*
X462525Y740932D01*
X464180Y742587D01*
X465035Y744067D01*
X471490D01*
X472109Y742797D01*
X471215Y741248D01*
X470609Y738987D01*
Y736646D01*
X471215Y734385D01*
X472124Y732811D01*
X471522Y731541D01*
X469075D01*
X468151Y733142D01*
X466496Y734797D01*
X464468Y735967D01*
X462207Y736573D01*
X459866D01*
X457606Y735967D01*
X455578Y734797D01*
X453923Y733142D01*
X452753Y731115D01*
X452147Y728854D01*
Y726513D01*
X452374Y725664D01*
X452203Y725367D01*
X451324Y724676D01*
X449580Y725143D01*
Y717550D01*
X457173D01*
X456973Y718299D01*
X457144Y718596D01*
X458023Y719287D01*
X459866Y718793D01*
X462207D01*
X464468Y719399D01*
X466496Y720569D01*
X468151Y722225D01*
X469044Y723772D01*
X564580D01*
X566067Y724068D01*
X567327Y724910D01*
X569316Y726899D01*
X570333Y726119D01*
X569566Y724791D01*
X568960Y722530D01*
Y720190D01*
X569566Y717929D01*
X570736Y715901D01*
X572391Y714246D01*
X574419Y713076D01*
X576680Y712470D01*
X579020D01*
X581281Y713076D01*
X583309Y714246D01*
X584964Y715901D01*
X585872Y717475D01*
X630788D01*
X631696Y715901D01*
X633351Y714246D01*
X635379Y713076D01*
X637579Y712486D01*
X637938Y711893D01*
X638185Y711297D01*
X599513Y672625D01*
X598671Y671365D01*
X598375Y669878D01*
Y482600D01*
X457815D01*
Y662400D01*
X457519Y663887D01*
X456677Y665147D01*
X431521Y690302D01*
X432179Y691441D01*
X434272Y690880D01*
X436948D01*
X439532Y691572D01*
X441848Y692910D01*
X443740Y694802D01*
X445078Y697118D01*
X445770Y699702D01*
Y702378D01*
X445078Y704962D01*
X443819Y707141D01*
X443858Y707240D01*
X444879Y707996D01*
X447040Y707417D01*
Y716280D01*
Y725143D01*
X444879Y724564D01*
X442851Y723394D01*
X442060Y722602D01*
X440789Y723128D01*
Y742999D01*
X446907Y749116D01*
X448176Y748590D01*
D02*
G37*
G36*
X411480Y690880D02*
X411548D01*
X414132Y691572D01*
X416448Y692910D01*
X416836Y693298D01*
X418246Y692912D01*
X418893Y691943D01*
X450045Y660791D01*
Y655143D01*
X448872Y654657D01*
X448738Y654790D01*
X446422Y656128D01*
X443838Y656820D01*
X441162D01*
X438578Y656128D01*
X436262Y654790D01*
X434370Y652898D01*
X433032Y650582D01*
X432340Y647998D01*
Y645322D01*
X433032Y642738D01*
X434370Y640422D01*
X436262Y638530D01*
X438578Y637192D01*
X441162Y636500D01*
X443838D01*
X446422Y637192D01*
X448738Y638530D01*
X448872Y638664D01*
X450045Y638178D01*
Y610143D01*
X448872Y609656D01*
X448738Y609790D01*
X446422Y611128D01*
X443838Y611820D01*
X441162D01*
X438578Y611128D01*
X436262Y609790D01*
X434370Y607898D01*
X433032Y605582D01*
X433022Y605545D01*
X386978D01*
X386968Y605582D01*
X385630Y607898D01*
X383738Y609790D01*
X381422Y611128D01*
X381385Y611138D01*
Y622067D01*
X381089Y623554D01*
X380247Y624814D01*
X364057Y641004D01*
Y664633D01*
X370412Y670988D01*
X371254Y672248D01*
X371550Y673735D01*
Y686445D01*
X374890Y689785D01*
X375732Y691046D01*
X376028Y692532D01*
Y693658D01*
X377298Y694184D01*
X378572Y692910D01*
X380888Y691572D01*
X383472Y690880D01*
X386148D01*
X388732Y691572D01*
X391048Y692910D01*
X391182Y693044D01*
X392355Y692558D01*
Y667009D01*
X381455Y656108D01*
X381422Y656128D01*
X378838Y656820D01*
X376162D01*
X373578Y656128D01*
X371262Y654790D01*
X369370Y652898D01*
X368032Y650582D01*
X367340Y647998D01*
Y645322D01*
X368032Y642738D01*
X369370Y640422D01*
X370306Y639485D01*
X370314Y639474D01*
X370325Y639466D01*
X371262Y638530D01*
X373578Y637192D01*
X376162Y636500D01*
X378838D01*
X381422Y637192D01*
X383738Y638530D01*
X385630Y640422D01*
X386968Y642738D01*
X387660Y645322D01*
Y647998D01*
X386968Y650582D01*
X386949Y650615D01*
X398987Y662653D01*
X399829Y663913D01*
X400125Y665400D01*
Y695648D01*
X401395Y695989D01*
X402080Y694802D01*
X403972Y692910D01*
X406288Y691572D01*
X408872Y690880D01*
X408940D01*
Y701040D01*
X411480D01*
Y690880D01*
D02*
G37*
%LPC*%
G36*
X574520Y941070D02*
X566926D01*
Y933477D01*
X569088Y934056D01*
X571115Y935226D01*
X572770Y936881D01*
X573940Y938909D01*
X574520Y941070D01*
D02*
G37*
G36*
X594521Y927073D02*
Y919480D01*
X602114D01*
X601535Y921641D01*
X600364Y923669D01*
X598709Y925324D01*
X596682Y926494D01*
X594521Y927073D01*
D02*
G37*
G36*
X591981D02*
X589819Y926494D01*
X587792Y925324D01*
X586137Y923669D01*
X584967Y921641D01*
X584388Y919480D01*
X591981D01*
Y927073D01*
D02*
G37*
G36*
X602114Y916940D02*
X594521D01*
Y909347D01*
X596682Y909926D01*
X598709Y911096D01*
X600364Y912751D01*
X601535Y914779D01*
X602114Y916940D01*
D02*
G37*
G36*
X591981D02*
X584388D01*
X584967Y914779D01*
X586137Y912751D01*
X587792Y911096D01*
X589819Y909926D01*
X591981Y909347D01*
Y916940D01*
D02*
G37*
G36*
X607060Y896593D02*
X604899Y896014D01*
X602871Y894844D01*
X601216Y893189D01*
X600046Y891161D01*
X599467Y889000D01*
X607060D01*
Y896593D01*
D02*
G37*
G36*
X656590Y882623D02*
Y875030D01*
X664183D01*
X663604Y877191D01*
X662434Y879219D01*
X660779Y880874D01*
X658751Y882044D01*
X656590Y882623D01*
D02*
G37*
G36*
X654050D02*
X651889Y882044D01*
X649861Y880874D01*
X648206Y879219D01*
X647036Y877191D01*
X646457Y875030D01*
X654050D01*
Y882623D01*
D02*
G37*
G36*
X664183Y872490D02*
X656590D01*
Y864897D01*
X658751Y865476D01*
X660779Y866646D01*
X662434Y868301D01*
X663604Y870329D01*
X664183Y872490D01*
D02*
G37*
G36*
X654050D02*
X646457D01*
X647036Y870329D01*
X648206Y868301D01*
X649861Y866646D01*
X651889Y865476D01*
X654050Y864897D01*
Y872490D01*
D02*
G37*
G36*
X501650Y857223D02*
Y849630D01*
X509243D01*
X508664Y851791D01*
X507494Y853819D01*
X505839Y855474D01*
X503811Y856644D01*
X501650Y857223D01*
D02*
G37*
G36*
X499110D02*
X496949Y856644D01*
X494921Y855474D01*
X493266Y853819D01*
X492096Y851791D01*
X491517Y849630D01*
X499110D01*
Y857223D01*
D02*
G37*
G36*
X509243Y847090D02*
X501650D01*
Y839497D01*
X503811Y840076D01*
X505839Y841246D01*
X507494Y842901D01*
X508664Y844929D01*
X509243Y847090D01*
D02*
G37*
G36*
X499110D02*
X491517D01*
X492096Y844929D01*
X493266Y842901D01*
X494921Y841246D01*
X496949Y840076D01*
X499110Y839497D01*
Y847090D01*
D02*
G37*
G36*
X524510Y830553D02*
Y822960D01*
X532103D01*
X531524Y825121D01*
X530354Y827149D01*
X528699Y828804D01*
X526671Y829974D01*
X524510Y830553D01*
D02*
G37*
G36*
X521970D02*
X519809Y829974D01*
X517781Y828804D01*
X516126Y827149D01*
X514956Y825121D01*
X514377Y822960D01*
X521970D01*
Y830553D01*
D02*
G37*
G36*
X580390Y821663D02*
Y814070D01*
X587983D01*
X587404Y816231D01*
X586234Y818259D01*
X584579Y819914D01*
X582551Y821084D01*
X580390Y821663D01*
D02*
G37*
G36*
X532103Y820420D02*
X524510D01*
Y812827D01*
X526671Y813406D01*
X528699Y814576D01*
X530354Y816231D01*
X531524Y818259D01*
X532103Y820420D01*
D02*
G37*
G36*
X521970D02*
X514377D01*
X514956Y818259D01*
X516126Y816231D01*
X517781Y814576D01*
X519809Y813406D01*
X521970Y812827D01*
Y820420D01*
D02*
G37*
G36*
X587983Y811530D02*
X580390D01*
Y803937D01*
X582551Y804516D01*
X584579Y805686D01*
X586234Y807341D01*
X587404Y809369D01*
X587983Y811530D01*
D02*
G37*
G36*
X577850D02*
X570257D01*
X570836Y809369D01*
X572006Y807341D01*
X573661Y805686D01*
X575689Y804516D01*
X577850Y803937D01*
Y811530D01*
D02*
G37*
G36*
X557530Y798803D02*
Y791210D01*
X565123D01*
X564544Y793371D01*
X563374Y795399D01*
X561719Y797054D01*
X559691Y798224D01*
X557530Y798803D01*
D02*
G37*
G36*
X554990D02*
X552829Y798224D01*
X550801Y797054D01*
X549146Y795399D01*
X547976Y793371D01*
X547397Y791210D01*
X554990D01*
Y798803D01*
D02*
G37*
G36*
Y788670D02*
X547397D01*
X547976Y786509D01*
X549146Y784481D01*
X550801Y782826D01*
X552829Y781656D01*
X554990Y781077D01*
Y788670D01*
D02*
G37*
G36*
X132598Y990600D02*
X129923D01*
X127338Y989908D01*
X125022Y988570D01*
X123130Y986678D01*
X121792Y984362D01*
X121100Y981778D01*
Y979102D01*
X121792Y976518D01*
X123130Y974202D01*
X125022Y972310D01*
X127338Y970972D01*
X129923Y970280D01*
X132598D01*
X135182Y970972D01*
X137499Y972310D01*
X139390Y974202D01*
X140728Y976518D01*
X141420Y979102D01*
Y981778D01*
X140728Y984362D01*
X139390Y986678D01*
X137499Y988570D01*
X135182Y989908D01*
X132598Y990600D01*
D02*
G37*
G36*
X107198D02*
X104522D01*
X101938Y989908D01*
X99622Y988570D01*
X97730Y986678D01*
X96392Y984362D01*
X95700Y981778D01*
Y979102D01*
X96392Y976518D01*
X97730Y974202D01*
X99622Y972310D01*
X101938Y970972D01*
X104522Y970280D01*
X107198D01*
X109782Y970972D01*
X112099Y972310D01*
X113990Y974202D01*
X115328Y976518D01*
X116020Y979102D01*
Y981778D01*
X115328Y984362D01*
X113990Y986678D01*
X112099Y988570D01*
X109782Y989908D01*
X107198Y990600D01*
D02*
G37*
G36*
X350520Y975333D02*
Y967740D01*
X358113D01*
X357534Y969901D01*
X356364Y971929D01*
X354709Y973584D01*
X352681Y974754D01*
X350520Y975333D01*
D02*
G37*
G36*
X347980D02*
X345819Y974754D01*
X343791Y973584D01*
X342136Y971929D01*
X340966Y969901D01*
X340387Y967740D01*
X347980D01*
Y975333D01*
D02*
G37*
G36*
X33020Y974063D02*
Y966470D01*
X40613D01*
X40034Y968631D01*
X38864Y970659D01*
X37209Y972314D01*
X35181Y973484D01*
X33020Y974063D01*
D02*
G37*
G36*
X30480D02*
X28319Y973484D01*
X26291Y972314D01*
X24636Y970659D01*
X23466Y968631D01*
X22887Y966470D01*
X30480D01*
Y974063D01*
D02*
G37*
G36*
X358113Y965200D02*
X350520D01*
Y957607D01*
X352681Y958186D01*
X354709Y959356D01*
X356364Y961011D01*
X357534Y963039D01*
X358113Y965200D01*
D02*
G37*
G36*
X347980D02*
X340387D01*
X340966Y963039D01*
X342136Y961011D01*
X343791Y959356D01*
X345819Y958186D01*
X347980Y957607D01*
Y965200D01*
D02*
G37*
G36*
X40613Y963930D02*
X33020D01*
Y956337D01*
X35181Y956916D01*
X37209Y958086D01*
X38864Y959741D01*
X40034Y961769D01*
X40613Y963930D01*
D02*
G37*
G36*
X30480D02*
X22887D01*
X23466Y961769D01*
X24636Y959741D01*
X26291Y958086D01*
X28319Y956916D01*
X30480Y956337D01*
Y963930D01*
D02*
G37*
G36*
X510161Y957047D02*
Y949454D01*
X517755D01*
X517176Y951615D01*
X516005Y953642D01*
X514350Y955298D01*
X512323Y956468D01*
X510161Y957047D01*
D02*
G37*
G36*
X184150Y950187D02*
Y942594D01*
X191743D01*
X191164Y944755D01*
X189994Y946783D01*
X188339Y948438D01*
X186311Y949608D01*
X184150Y950187D01*
D02*
G37*
G36*
X181610D02*
X179449Y949608D01*
X177421Y948438D01*
X175766Y946783D01*
X174596Y944755D01*
X174017Y942594D01*
X181610D01*
Y950187D01*
D02*
G37*
G36*
X517755Y946914D02*
X510161D01*
Y939321D01*
X512323Y939900D01*
X514350Y941070D01*
X516005Y942725D01*
X517176Y944752D01*
X517755Y946914D01*
D02*
G37*
G36*
X507621D02*
X500028D01*
X500607Y944752D01*
X501778Y942725D01*
X503433Y941070D01*
X505460Y939900D01*
X507621Y939321D01*
Y946914D01*
D02*
G37*
G36*
X191743Y940054D02*
X184150D01*
Y932461D01*
X186311Y933040D01*
X188339Y934210D01*
X189994Y935865D01*
X191164Y937893D01*
X191743Y940054D01*
D02*
G37*
G36*
X181610D02*
X174017D01*
X174596Y937893D01*
X175766Y935865D01*
X177421Y934210D01*
X179449Y933040D01*
X181610Y932461D01*
Y940054D01*
D02*
G37*
G36*
X278130Y934693D02*
Y927100D01*
X285723D01*
X285144Y929261D01*
X283974Y931289D01*
X282319Y932944D01*
X280291Y934114D01*
X278130Y934693D01*
D02*
G37*
G36*
X275590D02*
X273429Y934114D01*
X271401Y932944D01*
X269746Y931289D01*
X268576Y929261D01*
X267997Y927100D01*
X275590D01*
Y934693D01*
D02*
G37*
G36*
X417830Y932153D02*
Y924560D01*
X425423D01*
X424844Y926721D01*
X423674Y928749D01*
X422019Y930404D01*
X419991Y931574D01*
X417830Y932153D01*
D02*
G37*
G36*
X285723Y924560D02*
X278130D01*
Y916967D01*
X280291Y917546D01*
X282319Y918716D01*
X283974Y920371D01*
X285144Y922399D01*
X285723Y924560D01*
D02*
G37*
G36*
X275590D02*
X267997D01*
X268576Y922399D01*
X269746Y920371D01*
X271401Y918716D01*
X273429Y917546D01*
X275590Y916967D01*
Y924560D01*
D02*
G37*
G36*
X400240Y863062D02*
X392240D01*
X391249Y862865D01*
X390409Y862303D01*
X389847Y861463D01*
X389650Y860472D01*
Y851488D01*
X389847Y850497D01*
X390409Y849657D01*
X391249Y849095D01*
X392240Y848898D01*
X400240D01*
X401231Y849095D01*
X402071Y849657D01*
X402633Y850497D01*
X402830Y851488D01*
Y860472D01*
X402633Y861463D01*
X402071Y862303D01*
X401231Y862865D01*
X400240Y863062D01*
D02*
G37*
G36*
X266670Y856121D02*
Y848528D01*
X274263D01*
X273684Y850689D01*
X272514Y852716D01*
X270859Y854371D01*
X268831Y855542D01*
X266670Y856121D01*
D02*
G37*
G36*
X264130D02*
X261969Y855542D01*
X259941Y854371D01*
X258286Y852716D01*
X257116Y850689D01*
X256537Y848528D01*
X264130D01*
Y856121D01*
D02*
G37*
G36*
X274263Y845988D02*
X266670D01*
Y838394D01*
X268831Y838973D01*
X270859Y840144D01*
X272514Y841799D01*
X273684Y843826D01*
X274263Y845988D01*
D02*
G37*
G36*
X264130D02*
X256537D01*
X257116Y843826D01*
X258286Y841799D01*
X259941Y840144D01*
X261969Y838973D01*
X264130Y838394D01*
Y845988D01*
D02*
G37*
G36*
X403860Y826743D02*
Y819150D01*
X411453D01*
X410874Y821311D01*
X409704Y823339D01*
X408049Y824994D01*
X406021Y826164D01*
X403860Y826743D01*
D02*
G37*
G36*
X401320D02*
X399159Y826164D01*
X397131Y824994D01*
X395476Y823339D01*
X394306Y821311D01*
X393727Y819150D01*
X401320D01*
Y826743D01*
D02*
G37*
G36*
X411453Y816610D02*
X403860D01*
Y809017D01*
X406021Y809596D01*
X408049Y810766D01*
X409704Y812421D01*
X410874Y814449D01*
X411453Y816610D01*
D02*
G37*
G36*
X401320D02*
X393727D01*
X394306Y814449D01*
X395476Y812421D01*
X397131Y810766D01*
X399159Y809596D01*
X401320Y809017D01*
Y816610D01*
D02*
G37*
G36*
X320013Y760730D02*
X312420D01*
Y753137D01*
X314581Y753716D01*
X316609Y754886D01*
X318264Y756541D01*
X319434Y758569D01*
X320013Y760730D01*
D02*
G37*
G36*
X336804Y750239D02*
X328676D01*
X327685Y750042D01*
X326845Y749480D01*
X326283Y748640D01*
X326086Y747649D01*
Y740791D01*
X326283Y739800D01*
X326845Y738960D01*
X327685Y738398D01*
X328676Y738201D01*
X336804D01*
X337795Y738398D01*
X338635Y738960D01*
X339197Y739800D01*
X339394Y740791D01*
Y747649D01*
X339197Y748640D01*
X338635Y749480D01*
X337795Y750042D01*
X336804Y750239D01*
D02*
G37*
G36*
X78058Y966457D02*
X74346D01*
X70761Y965496D01*
X67546Y963640D01*
X64922Y961016D01*
X63066Y957801D01*
X62105Y954216D01*
Y950504D01*
X63066Y946919D01*
X64922Y943704D01*
X67546Y941079D01*
X70761Y939223D01*
X71023Y939153D01*
Y757567D01*
X70761Y757496D01*
X67546Y755641D01*
X64922Y753016D01*
X63066Y749801D01*
X62105Y746216D01*
Y742504D01*
X63066Y738919D01*
X64922Y735704D01*
X67546Y733080D01*
X70761Y731224D01*
X74346Y730263D01*
X78058D01*
X81643Y731224D01*
X84858Y733080D01*
X87482Y735704D01*
X89338Y738919D01*
X90299Y742504D01*
Y746216D01*
X89338Y749801D01*
X87482Y753016D01*
X84858Y755641D01*
X81643Y757496D01*
X81382Y757567D01*
Y939153D01*
X81643Y939223D01*
X84858Y941079D01*
X87482Y943704D01*
X89338Y946919D01*
X90299Y950504D01*
Y954216D01*
X89338Y957801D01*
X87482Y961016D01*
X84858Y963640D01*
X81643Y965496D01*
X78058Y966457D01*
D02*
G37*
G36*
X50800Y737843D02*
Y730250D01*
X58393D01*
X57814Y732411D01*
X56644Y734439D01*
X54989Y736094D01*
X52961Y737264D01*
X50800Y737843D01*
D02*
G37*
G36*
X48260D02*
X46099Y737264D01*
X44071Y736094D01*
X42416Y734439D01*
X41246Y732411D01*
X40667Y730250D01*
X48260D01*
Y737843D01*
D02*
G37*
G36*
X58393Y727710D02*
X50800D01*
Y720117D01*
X52961Y720696D01*
X54989Y721866D01*
X56644Y723521D01*
X57814Y725549D01*
X58393Y727710D01*
D02*
G37*
G36*
X48260D02*
X40667D01*
X41246Y725549D01*
X42416Y723521D01*
X44071Y721866D01*
X46099Y720696D01*
X48260Y720117D01*
Y727710D01*
D02*
G37*
G36*
X233748Y711200D02*
X233680D01*
Y702310D01*
X242570D01*
Y702378D01*
X241878Y704962D01*
X240540Y707278D01*
X238648Y709170D01*
X236332Y710508D01*
X233748Y711200D01*
D02*
G37*
G36*
X231140D02*
X231072D01*
X228488Y710508D01*
X226172Y709170D01*
X224280Y707278D01*
X222942Y704962D01*
X222250Y702378D01*
Y702310D01*
X231140D01*
Y711200D01*
D02*
G37*
G36*
X309948D02*
X307272D01*
X304688Y710508D01*
X302372Y709170D01*
X300480Y707278D01*
X299142Y704962D01*
X298450Y702378D01*
Y699702D01*
X299142Y697118D01*
X300480Y694802D01*
X302372Y692910D01*
X304688Y691572D01*
X307272Y690880D01*
X309948D01*
X312532Y691572D01*
X314848Y692910D01*
X316740Y694802D01*
X318078Y697118D01*
X318770Y699702D01*
Y702378D01*
X318078Y704962D01*
X316740Y707278D01*
X314848Y709170D01*
X312532Y710508D01*
X309948Y711200D01*
D02*
G37*
G36*
X284548D02*
X281872D01*
X279288Y710508D01*
X276972Y709170D01*
X275080Y707278D01*
X273742Y704962D01*
X273050Y702378D01*
Y699702D01*
X273742Y697118D01*
X275080Y694802D01*
X276972Y692910D01*
X279288Y691572D01*
X281872Y690880D01*
X284548D01*
X287132Y691572D01*
X289448Y692910D01*
X291340Y694802D01*
X292678Y697118D01*
X293370Y699702D01*
Y702378D01*
X292678Y704962D01*
X291340Y707278D01*
X289448Y709170D01*
X287132Y710508D01*
X284548Y711200D01*
D02*
G37*
G36*
X259148D02*
X256472D01*
X253888Y710508D01*
X251572Y709170D01*
X249680Y707278D01*
X248342Y704962D01*
X247650Y702378D01*
Y699702D01*
X248342Y697118D01*
X249680Y694802D01*
X251572Y692910D01*
X253888Y691572D01*
X256472Y690880D01*
X259148D01*
X261732Y691572D01*
X264048Y692910D01*
X265940Y694802D01*
X267278Y697118D01*
X267970Y699702D01*
Y702378D01*
X267278Y704962D01*
X265940Y707278D01*
X264048Y709170D01*
X261732Y710508D01*
X259148Y711200D01*
D02*
G37*
G36*
X242570Y699770D02*
X233680D01*
Y690880D01*
X233748D01*
X236332Y691572D01*
X238648Y692910D01*
X240540Y694802D01*
X241878Y697118D01*
X242570Y699702D01*
Y699770D01*
D02*
G37*
G36*
X231140D02*
X222250D01*
Y699702D01*
X222942Y697118D01*
X224280Y694802D01*
X226172Y692910D01*
X228488Y691572D01*
X231072Y690880D01*
X231140D01*
Y699770D01*
D02*
G37*
G36*
X208348Y711200D02*
X205672D01*
X203088Y710508D01*
X200772Y709170D01*
X198880Y707278D01*
X197542Y704962D01*
X196850Y702378D01*
Y699702D01*
X197542Y697118D01*
X198880Y694802D01*
X200772Y692910D01*
X203088Y691572D01*
X205672Y690880D01*
X208348D01*
X210932Y691572D01*
X213248Y692910D01*
X215140Y694802D01*
X216478Y697118D01*
X217170Y699702D01*
Y702378D01*
X216478Y704962D01*
X215140Y707278D01*
X213248Y709170D01*
X210932Y710508D01*
X208348Y711200D01*
D02*
G37*
G36*
X182948D02*
X180272D01*
X177688Y710508D01*
X175372Y709170D01*
X173480Y707278D01*
X172142Y704962D01*
X171450Y702378D01*
Y699702D01*
X172142Y697118D01*
X173480Y694802D01*
X175372Y692910D01*
X177688Y691572D01*
X180272Y690880D01*
X182948D01*
X185532Y691572D01*
X187848Y692910D01*
X189740Y694802D01*
X191078Y697118D01*
X191770Y699702D01*
Y702378D01*
X191078Y704962D01*
X189740Y707278D01*
X187848Y709170D01*
X185532Y710508D01*
X182948Y711200D01*
D02*
G37*
G36*
X157548D02*
X154872D01*
X152288Y710508D01*
X149972Y709170D01*
X148080Y707278D01*
X146742Y704962D01*
X146050Y702378D01*
Y699702D01*
X146742Y697118D01*
X148080Y694802D01*
X149972Y692910D01*
X152288Y691572D01*
X154872Y690880D01*
X157548D01*
X160132Y691572D01*
X162448Y692910D01*
X164340Y694802D01*
X165678Y697118D01*
X166370Y699702D01*
Y702378D01*
X165678Y704962D01*
X164340Y707278D01*
X162448Y709170D01*
X160132Y710508D01*
X157548Y711200D01*
D02*
G37*
G36*
X132148D02*
X129472D01*
X126888Y710508D01*
X124572Y709170D01*
X122680Y707278D01*
X121342Y704962D01*
X120650Y702378D01*
Y699702D01*
X121342Y697118D01*
X122680Y694802D01*
X124572Y692910D01*
X126888Y691572D01*
X129472Y690880D01*
X132148D01*
X134732Y691572D01*
X137048Y692910D01*
X138940Y694802D01*
X140278Y697118D01*
X140970Y699702D01*
Y702378D01*
X140278Y704962D01*
X138940Y707278D01*
X137048Y709170D01*
X134732Y710508D01*
X132148Y711200D01*
D02*
G37*
G36*
X31783Y713540D02*
X28217D01*
X24774Y712617D01*
X21686Y710835D01*
X19165Y708314D01*
X17383Y705226D01*
X16460Y701783D01*
Y698217D01*
X17383Y694774D01*
X19165Y691686D01*
X21686Y689165D01*
X24774Y687383D01*
X28217Y686460D01*
X31783D01*
X35226Y687383D01*
X38314Y689165D01*
X40835Y691686D01*
X42617Y694774D01*
X43540Y698217D01*
Y701783D01*
X42617Y705226D01*
X40835Y708314D01*
X38314Y710835D01*
X35226Y712617D01*
X31783Y713540D01*
D02*
G37*
G36*
X323838Y656820D02*
X321162D01*
X318578Y656128D01*
X316262Y654790D01*
X314370Y652898D01*
X313032Y650582D01*
X312340Y647998D01*
Y645322D01*
X313032Y642738D01*
X314370Y640422D01*
X316262Y638530D01*
X318578Y637192D01*
X321162Y636500D01*
X323838D01*
X326422Y637192D01*
X328738Y638530D01*
X330630Y640422D01*
X331968Y642738D01*
X332660Y645322D01*
Y647998D01*
X331968Y650582D01*
X330630Y652898D01*
X328738Y654790D01*
X326422Y656128D01*
X323838Y656820D01*
D02*
G37*
G36*
X203838D02*
X201162D01*
X198578Y656128D01*
X196262Y654790D01*
X194370Y652898D01*
X193032Y650582D01*
X192340Y647998D01*
Y645322D01*
X193032Y642738D01*
X194370Y640422D01*
X196262Y638530D01*
X198578Y637192D01*
X201162Y636500D01*
X203838D01*
X206422Y637192D01*
X208738Y638530D01*
X210630Y640422D01*
X211968Y642738D01*
X212660Y645322D01*
Y647998D01*
X211968Y650582D01*
X210630Y652898D01*
X208738Y654790D01*
X206422Y656128D01*
X203838Y656820D01*
D02*
G37*
G36*
X83838D02*
X81162D01*
X78578Y656128D01*
X76262Y654790D01*
X74370Y652898D01*
X73032Y650582D01*
X72340Y647998D01*
Y645322D01*
X73032Y642738D01*
X74370Y640422D01*
X76262Y638530D01*
X78578Y637192D01*
X81162Y636500D01*
X83838D01*
X86422Y637192D01*
X88738Y638530D01*
X90630Y640422D01*
X91968Y642738D01*
X92660Y645322D01*
Y647998D01*
X91968Y650582D01*
X90630Y652898D01*
X88738Y654790D01*
X86422Y656128D01*
X83838Y656820D01*
D02*
G37*
G36*
X258838Y656820D02*
X256162D01*
X253578Y656128D01*
X251262Y654790D01*
X249370Y652898D01*
X248032Y650582D01*
X247340Y647998D01*
Y645322D01*
X248032Y642738D01*
X249370Y640422D01*
X251262Y638530D01*
X253578Y637192D01*
X256162Y636500D01*
X258838D01*
X261422Y637192D01*
X263738Y638530D01*
X265630Y640422D01*
X266968Y642738D01*
X267660Y645322D01*
Y647998D01*
X266968Y650582D01*
X265630Y652898D01*
X263738Y654790D01*
X261422Y656128D01*
X258838Y656820D01*
D02*
G37*
G36*
X138838D02*
X136162D01*
X133578Y656128D01*
X131262Y654790D01*
X129370Y652898D01*
X128032Y650582D01*
X127340Y647998D01*
Y645322D01*
X128032Y642738D01*
X129370Y640422D01*
X131262Y638530D01*
X133578Y637192D01*
X136162Y636500D01*
X138838D01*
X141422Y637192D01*
X143738Y638530D01*
X145630Y640422D01*
X146968Y642738D01*
X147660Y645322D01*
Y647998D01*
X146968Y650582D01*
X145630Y652898D01*
X143738Y654790D01*
X141422Y656128D01*
X138838Y656820D01*
D02*
G37*
G36*
X323838Y611820D02*
X321162D01*
X318578Y611128D01*
X316262Y609790D01*
X314370Y607898D01*
X313032Y605582D01*
X313022Y605545D01*
X266978D01*
X266968Y605582D01*
X265630Y607898D01*
X263738Y609790D01*
X261422Y611128D01*
X258838Y611820D01*
X256162D01*
X253578Y611128D01*
X251262Y609790D01*
X249370Y607898D01*
X248032Y605582D01*
X247340Y602998D01*
Y600322D01*
X248032Y597738D01*
X249370Y595422D01*
X251262Y593530D01*
X253578Y592192D01*
X256162Y591500D01*
X258838D01*
X261422Y592192D01*
X263738Y593530D01*
X265630Y595422D01*
X266968Y597738D01*
X266978Y597775D01*
X313022D01*
X313032Y597738D01*
X314370Y595422D01*
X316262Y593530D01*
X318578Y592192D01*
X321162Y591500D01*
X323838D01*
X326422Y592192D01*
X328738Y593530D01*
X330630Y595422D01*
X331968Y597738D01*
X332660Y600322D01*
Y602998D01*
X331968Y605582D01*
X330630Y607898D01*
X328738Y609790D01*
X326422Y611128D01*
X323838Y611820D01*
D02*
G37*
G36*
X203838D02*
X201162D01*
X198578Y611128D01*
X196262Y609790D01*
X194370Y607898D01*
X193032Y605582D01*
X193022Y605545D01*
X146978D01*
X146968Y605582D01*
X145630Y607898D01*
X143738Y609790D01*
X141422Y611128D01*
X138838Y611820D01*
X136162D01*
X133578Y611128D01*
X131262Y609790D01*
X129370Y607898D01*
X128032Y605582D01*
X127340Y602998D01*
Y600322D01*
X128032Y597738D01*
X129370Y595422D01*
X131262Y593530D01*
X133578Y592192D01*
X136162Y591500D01*
X138838D01*
X141422Y592192D01*
X143738Y593530D01*
X145630Y595422D01*
X146968Y597738D01*
X146978Y597775D01*
X193022D01*
X193032Y597738D01*
X194370Y595422D01*
X196262Y593530D01*
X198578Y592192D01*
X201162Y591500D01*
X203838D01*
X206422Y592192D01*
X208738Y593530D01*
X210630Y595422D01*
X211968Y597738D01*
X212660Y600322D01*
Y602998D01*
X211968Y605582D01*
X210630Y607898D01*
X208738Y609790D01*
X206422Y611128D01*
X203838Y611820D01*
D02*
G37*
G36*
X83838D02*
X81162D01*
X78578Y611128D01*
X76262Y609790D01*
X74370Y607898D01*
X73032Y605582D01*
X73022Y605545D01*
X26978D01*
X26968Y605582D01*
X25630Y607898D01*
X23738Y609790D01*
X21422Y611128D01*
X18838Y611820D01*
X16162D01*
X13578Y611128D01*
X11262Y609790D01*
X9370Y607898D01*
X8032Y605582D01*
X7340Y602998D01*
Y600322D01*
X8032Y597738D01*
X9370Y595422D01*
X11262Y593530D01*
X13578Y592192D01*
X16162Y591500D01*
X18838D01*
X21422Y592192D01*
X23738Y593530D01*
X25630Y595422D01*
X26968Y597738D01*
X26978Y597775D01*
X73022D01*
X73032Y597738D01*
X74370Y595422D01*
X76262Y593530D01*
X78578Y592192D01*
X81162Y591500D01*
X83838D01*
X86422Y592192D01*
X88738Y593530D01*
X90630Y595422D01*
X91968Y597738D01*
X92660Y600322D01*
Y602998D01*
X91968Y605582D01*
X90630Y607898D01*
X88738Y609790D01*
X86422Y611128D01*
X83838Y611820D01*
D02*
G37*
G36*
X323838Y558720D02*
X321162D01*
X318578Y558028D01*
X316262Y556690D01*
X314370Y554799D01*
X313032Y552482D01*
X312340Y549898D01*
Y547223D01*
X313032Y544638D01*
X314370Y542322D01*
X316262Y540430D01*
X318578Y539092D01*
X321162Y538400D01*
X323838D01*
X326422Y539092D01*
X328738Y540430D01*
X330630Y542322D01*
X331968Y544638D01*
X332660Y547223D01*
Y549898D01*
X331968Y552482D01*
X330630Y554799D01*
X328738Y556690D01*
X326422Y558028D01*
X323838Y558720D01*
D02*
G37*
G36*
X203838D02*
X201162D01*
X198578Y558028D01*
X196262Y556690D01*
X194370Y554799D01*
X193032Y552482D01*
X192340Y549898D01*
Y547223D01*
X193032Y544638D01*
X194370Y542322D01*
X196262Y540430D01*
X198578Y539092D01*
X201162Y538400D01*
X203838D01*
X206422Y539092D01*
X208738Y540430D01*
X210630Y542322D01*
X211968Y544638D01*
X212660Y547223D01*
Y549898D01*
X211968Y552482D01*
X210630Y554799D01*
X208738Y556690D01*
X206422Y558028D01*
X203838Y558720D01*
D02*
G37*
G36*
X83838D02*
X81162D01*
X78578Y558028D01*
X76262Y556690D01*
X74370Y554799D01*
X73032Y552482D01*
X72340Y549898D01*
Y547223D01*
X73032Y544638D01*
X74370Y542322D01*
X76262Y540430D01*
X78578Y539092D01*
X81162Y538400D01*
X83838D01*
X86422Y539092D01*
X88738Y540430D01*
X90630Y542322D01*
X91968Y544638D01*
X92660Y547223D01*
Y549898D01*
X91968Y552482D01*
X90630Y554799D01*
X88738Y556690D01*
X86422Y558028D01*
X83838Y558720D01*
D02*
G37*
G36*
X378838Y558720D02*
X376162D01*
X373578Y558028D01*
X371262Y556690D01*
X369370Y554798D01*
X368032Y552482D01*
X367340Y549898D01*
Y547223D01*
X368032Y544638D01*
X369370Y542322D01*
X371262Y540430D01*
X373578Y539092D01*
X376162Y538400D01*
X378838D01*
X381422Y539092D01*
X383738Y540430D01*
X385630Y542322D01*
X386968Y544638D01*
X387660Y547223D01*
Y549898D01*
X386968Y552482D01*
X385630Y554798D01*
X383738Y556690D01*
X381422Y558028D01*
X378838Y558720D01*
D02*
G37*
G36*
X258838D02*
X256162D01*
X253578Y558028D01*
X251262Y556690D01*
X249370Y554798D01*
X248032Y552482D01*
X247340Y549898D01*
Y547223D01*
X248032Y544638D01*
X249370Y542322D01*
X251262Y540430D01*
X253578Y539092D01*
X256162Y538400D01*
X258838D01*
X261422Y539092D01*
X263738Y540430D01*
X265630Y542322D01*
X266968Y544638D01*
X267660Y547223D01*
Y549898D01*
X266968Y552482D01*
X265630Y554798D01*
X263738Y556690D01*
X261422Y558028D01*
X258838Y558720D01*
D02*
G37*
G36*
X138838D02*
X136162D01*
X133578Y558028D01*
X131262Y556690D01*
X129370Y554798D01*
X128032Y552482D01*
X127340Y549898D01*
Y547223D01*
X128032Y544638D01*
X129370Y542322D01*
X131262Y540430D01*
X133578Y539092D01*
X136162Y538400D01*
X138838D01*
X141422Y539092D01*
X143738Y540430D01*
X145630Y542322D01*
X146968Y544638D01*
X147660Y547223D01*
Y549898D01*
X146968Y552482D01*
X145630Y554798D01*
X143738Y556690D01*
X141422Y558028D01*
X138838Y558720D01*
D02*
G37*
G36*
X18838D02*
X16162D01*
X13578Y558028D01*
X11262Y556690D01*
X9370Y554798D01*
X8032Y552482D01*
X7340Y549898D01*
Y547223D01*
X8032Y544638D01*
X9370Y542322D01*
X11262Y540430D01*
X13578Y539092D01*
X16162Y538400D01*
X18838D01*
X21422Y539092D01*
X23738Y540430D01*
X25630Y542322D01*
X26968Y544638D01*
X27660Y547223D01*
Y549898D01*
X26968Y552482D01*
X25630Y554798D01*
X23738Y556690D01*
X21422Y558028D01*
X18838Y558720D01*
D02*
G37*
G36*
X203838Y513720D02*
X201162D01*
X198578Y513028D01*
X196262Y511690D01*
X194370Y509798D01*
X193032Y507482D01*
X193022Y507445D01*
X146978D01*
X146968Y507482D01*
X145630Y509798D01*
X143738Y511690D01*
X141422Y513028D01*
X138838Y513720D01*
X136162D01*
X133578Y513028D01*
X131262Y511690D01*
X129370Y509798D01*
X128032Y507482D01*
X127340Y504898D01*
Y502222D01*
X128032Y499638D01*
X129370Y497322D01*
X131262Y495430D01*
X133578Y494092D01*
X136162Y493400D01*
X138838D01*
X141422Y494092D01*
X143738Y495430D01*
X145630Y497322D01*
X146968Y499638D01*
X146978Y499675D01*
X193022D01*
X193032Y499638D01*
X194370Y497322D01*
X196262Y495430D01*
X198578Y494092D01*
X201162Y493400D01*
X203838D01*
X206422Y494092D01*
X208738Y495430D01*
X210630Y497322D01*
X211968Y499638D01*
X212660Y502222D01*
Y504898D01*
X211968Y507482D01*
X210630Y509798D01*
X208738Y511690D01*
X206422Y513028D01*
X203838Y513720D01*
D02*
G37*
G36*
X83838D02*
X81162D01*
X78578Y513028D01*
X76262Y511690D01*
X74370Y509798D01*
X73032Y507482D01*
X73022Y507445D01*
X26978D01*
X26968Y507482D01*
X25630Y509798D01*
X23738Y511690D01*
X21422Y513028D01*
X18838Y513720D01*
X16162D01*
X13578Y513028D01*
X11262Y511690D01*
X9370Y509798D01*
X8032Y507482D01*
X7340Y504898D01*
Y502222D01*
X8032Y499638D01*
X9370Y497322D01*
X11262Y495430D01*
X13578Y494092D01*
X16162Y493400D01*
X18838D01*
X21422Y494092D01*
X23738Y495430D01*
X25630Y497322D01*
X26968Y499638D01*
X26978Y499675D01*
X73022D01*
X73032Y499638D01*
X74370Y497322D01*
X76262Y495430D01*
X78578Y494092D01*
X81162Y493400D01*
X83838D01*
X86422Y494092D01*
X88738Y495430D01*
X90630Y497322D01*
X91968Y499638D01*
X92660Y502222D01*
Y504898D01*
X91968Y507482D01*
X90630Y509798D01*
X88738Y511690D01*
X86422Y513028D01*
X83838Y513720D01*
D02*
G37*
G36*
X419100Y784833D02*
Y777240D01*
X426693D01*
X426114Y779401D01*
X424944Y781429D01*
X423289Y783084D01*
X421261Y784254D01*
X419100Y784833D01*
D02*
G37*
G36*
X426693Y774700D02*
X419100D01*
Y767107D01*
X421261Y767686D01*
X423289Y768856D01*
X424944Y770511D01*
X426114Y772539D01*
X426693Y774700D01*
D02*
G37*
G36*
X415290Y748003D02*
Y740410D01*
X422883D01*
X422304Y742571D01*
X421134Y744599D01*
X419479Y746254D01*
X417451Y747424D01*
X415290Y748003D01*
D02*
G37*
G36*
X422883Y737870D02*
X415290D01*
Y730277D01*
X417451Y730856D01*
X419479Y732026D01*
X421134Y733681D01*
X422304Y735709D01*
X422883Y737870D01*
D02*
G37*
G36*
X589348Y711200D02*
X586672D01*
X584088Y710508D01*
X581772Y709170D01*
X579880Y707278D01*
X578542Y704962D01*
X577850Y702378D01*
Y699702D01*
X578542Y697118D01*
X579880Y694802D01*
X581772Y692910D01*
X584088Y691572D01*
X586672Y690880D01*
X589348D01*
X591932Y691572D01*
X594248Y692910D01*
X596140Y694802D01*
X597478Y697118D01*
X598170Y699702D01*
Y702378D01*
X597478Y704962D01*
X596140Y707278D01*
X594248Y709170D01*
X591932Y710508D01*
X589348Y711200D01*
D02*
G37*
G36*
X563948D02*
X561272D01*
X558688Y710508D01*
X556372Y709170D01*
X554480Y707278D01*
X553142Y704962D01*
X552450Y702378D01*
Y699702D01*
X553142Y697118D01*
X554480Y694802D01*
X556372Y692910D01*
X558688Y691572D01*
X561272Y690880D01*
X563948D01*
X566532Y691572D01*
X568848Y692910D01*
X570740Y694802D01*
X572078Y697118D01*
X572770Y699702D01*
Y702378D01*
X572078Y704962D01*
X570740Y707278D01*
X568848Y709170D01*
X566532Y710508D01*
X563948Y711200D01*
D02*
G37*
G36*
X538548D02*
X535872D01*
X533288Y710508D01*
X530972Y709170D01*
X529080Y707278D01*
X527742Y704962D01*
X527050Y702378D01*
Y699702D01*
X527742Y697118D01*
X529080Y694802D01*
X530972Y692910D01*
X533288Y691572D01*
X535872Y690880D01*
X538548D01*
X541132Y691572D01*
X543448Y692910D01*
X545340Y694802D01*
X546678Y697118D01*
X547370Y699702D01*
Y702378D01*
X546678Y704962D01*
X545340Y707278D01*
X543448Y709170D01*
X541132Y710508D01*
X538548Y711200D01*
D02*
G37*
G36*
X513148D02*
X510472D01*
X507888Y710508D01*
X505572Y709170D01*
X503680Y707278D01*
X502342Y704962D01*
X501650Y702378D01*
Y699702D01*
X502342Y697118D01*
X503680Y694802D01*
X505572Y692910D01*
X507888Y691572D01*
X510472Y690880D01*
X513148D01*
X515732Y691572D01*
X518048Y692910D01*
X519940Y694802D01*
X521278Y697118D01*
X521970Y699702D01*
Y702378D01*
X521278Y704962D01*
X519940Y707278D01*
X518048Y709170D01*
X515732Y710508D01*
X513148Y711200D01*
D02*
G37*
G36*
X487748D02*
X485072D01*
X482488Y710508D01*
X480172Y709170D01*
X478280Y707278D01*
X476942Y704962D01*
X476250Y702378D01*
Y699702D01*
X476942Y697118D01*
X478280Y694802D01*
X480172Y692910D01*
X482488Y691572D01*
X485072Y690880D01*
X487748D01*
X490332Y691572D01*
X492648Y692910D01*
X494540Y694802D01*
X495878Y697118D01*
X496570Y699702D01*
Y702378D01*
X495878Y704962D01*
X494540Y707278D01*
X492648Y709170D01*
X490332Y710508D01*
X487748Y711200D01*
D02*
G37*
G36*
X457173Y715010D02*
X449580D01*
Y707417D01*
X451741Y707996D01*
X452762Y707240D01*
X452801Y707141D01*
X451542Y704962D01*
X450850Y702378D01*
Y699702D01*
X451542Y697118D01*
X452880Y694802D01*
X454772Y692910D01*
X457088Y691572D01*
X459672Y690880D01*
X462348D01*
X464932Y691572D01*
X467248Y692910D01*
X469140Y694802D01*
X470478Y697118D01*
X471170Y699702D01*
Y702378D01*
X470478Y704962D01*
X469140Y707278D01*
X467248Y709170D01*
X464932Y710508D01*
X462348Y711200D01*
X459672D01*
X457088Y710508D01*
X456498Y710167D01*
X455590Y711109D01*
X456594Y712849D01*
X457173Y715010D01*
D02*
G37*
G36*
X563838Y656820D02*
X561162D01*
X558578Y656128D01*
X556262Y654790D01*
X554370Y652898D01*
X553032Y650582D01*
X552340Y647998D01*
Y645322D01*
X553032Y642738D01*
X554370Y640422D01*
X556262Y638530D01*
X558578Y637192D01*
X561162Y636500D01*
X563838D01*
X566422Y637192D01*
X568738Y638530D01*
X570630Y640422D01*
X571968Y642738D01*
X572660Y645322D01*
Y647998D01*
X571968Y650582D01*
X570630Y652898D01*
X568738Y654790D01*
X566422Y656128D01*
X563838Y656820D01*
D02*
G37*
G36*
X498838Y656820D02*
X496162D01*
X493578Y656128D01*
X491262Y654790D01*
X489370Y652898D01*
X488032Y650582D01*
X487340Y647998D01*
Y645322D01*
X488032Y642738D01*
X489370Y640422D01*
X491262Y638530D01*
X493578Y637192D01*
X496162Y636500D01*
X498838D01*
X501422Y637192D01*
X503738Y638530D01*
X505630Y640422D01*
X506968Y642738D01*
X507660Y645322D01*
Y647998D01*
X506968Y650582D01*
X505630Y652898D01*
X503738Y654790D01*
X501422Y656128D01*
X498838Y656820D01*
D02*
G37*
G36*
X563838Y611820D02*
X561162D01*
X558578Y611128D01*
X556262Y609790D01*
X554370Y607898D01*
X553032Y605582D01*
X553022Y605545D01*
X506978D01*
X506968Y605582D01*
X505630Y607898D01*
X503738Y609790D01*
X501422Y611128D01*
X498838Y611820D01*
X496162D01*
X493578Y611128D01*
X491262Y609790D01*
X489370Y607898D01*
X488032Y605582D01*
X487340Y602998D01*
Y600322D01*
X488032Y597738D01*
X489370Y595422D01*
X491262Y593530D01*
X493578Y592192D01*
X496162Y591500D01*
X498838D01*
X501422Y592192D01*
X503738Y593530D01*
X505630Y595422D01*
X506968Y597738D01*
X506978Y597775D01*
X553022D01*
X553032Y597738D01*
X554370Y595422D01*
X556262Y593530D01*
X558578Y592192D01*
X561162Y591500D01*
X563838D01*
X566422Y592192D01*
X568738Y593530D01*
X570630Y595422D01*
X571968Y597738D01*
X572660Y600322D01*
Y602998D01*
X571968Y605582D01*
X570630Y607898D01*
X568738Y609790D01*
X566422Y611128D01*
X563838Y611820D01*
D02*
G37*
G36*
Y558720D02*
X561162D01*
X558578Y558028D01*
X556262Y556690D01*
X554370Y554799D01*
X553032Y552482D01*
X552340Y549898D01*
Y547223D01*
X553032Y544638D01*
X554370Y542322D01*
X556262Y540430D01*
X558578Y539092D01*
X561162Y538400D01*
X563838D01*
X566422Y539092D01*
X568738Y540430D01*
X570630Y542322D01*
X571968Y544638D01*
X572660Y547223D01*
Y549898D01*
X571968Y552482D01*
X570630Y554799D01*
X568738Y556690D01*
X566422Y558028D01*
X563838Y558720D01*
D02*
G37*
G36*
X498838Y558720D02*
X496162D01*
X493578Y558028D01*
X491262Y556690D01*
X489370Y554798D01*
X488032Y552482D01*
X487340Y549898D01*
Y547223D01*
X488032Y544638D01*
X489370Y542322D01*
X491262Y540430D01*
X493578Y539092D01*
X496162Y538400D01*
X498838D01*
X501422Y539092D01*
X503738Y540430D01*
X505630Y542322D01*
X506968Y544638D01*
X507660Y547223D01*
Y549898D01*
X506968Y552482D01*
X505630Y554798D01*
X503738Y556690D01*
X501422Y558028D01*
X498838Y558720D01*
D02*
G37*
G36*
X563838Y513720D02*
X561162D01*
X558578Y513028D01*
X556262Y511690D01*
X554370Y509798D01*
X553032Y507482D01*
X553022Y507445D01*
X506978D01*
X506968Y507482D01*
X505630Y509798D01*
X503738Y511690D01*
X501422Y513028D01*
X498838Y513720D01*
X496162D01*
X493578Y513028D01*
X491262Y511690D01*
X489370Y509798D01*
X488032Y507482D01*
X487340Y504898D01*
Y502222D01*
X488032Y499638D01*
X489370Y497322D01*
X491262Y495430D01*
X493578Y494092D01*
X496162Y493400D01*
X498838D01*
X501422Y494092D01*
X503738Y495430D01*
X505630Y497322D01*
X506968Y499638D01*
X506978Y499675D01*
X553022D01*
X553032Y499638D01*
X554370Y497322D01*
X556262Y495430D01*
X558578Y494092D01*
X561162Y493400D01*
X563838D01*
X566422Y494092D01*
X568738Y495430D01*
X570630Y497322D01*
X571968Y499638D01*
X572660Y502222D01*
Y504898D01*
X571968Y507482D01*
X570630Y509798D01*
X568738Y511690D01*
X566422Y513028D01*
X563838Y513720D01*
D02*
G37*
%LPD*%
D10*
X631190Y955040D02*
Y971550D01*
X609600Y993140D02*
X631190Y971550D01*
X219710Y993140D02*
X609600D01*
X439420Y759938D02*
X443230Y756128D01*
Y754380D02*
Y756128D01*
X439420Y759938D02*
Y762000D01*
X457066Y748046D02*
X458268Y749247D01*
X577797D01*
X577850Y749300D01*
X444038Y753572D02*
X451195Y760730D01*
X577850Y749300D02*
X654230D01*
X451195Y760730D02*
X596900D01*
X107202Y744360D02*
Y952360D01*
X76202Y744360D02*
Y952360D01*
X212090Y866140D02*
Y985520D01*
X441491Y751025D02*
X444038Y753572D01*
X435610Y701040D02*
Y745144D01*
X441491Y751025D01*
X618580Y768350D02*
X626200Y760730D01*
X604520Y768350D02*
X618580D01*
X596900Y760730D02*
X604520Y768350D01*
X655140Y786130D02*
X665660D01*
X673100Y768169D02*
Y778690D01*
X665660Y786130D02*
X673100Y778690D01*
X654230Y749300D02*
X673100Y768169D01*
X626200Y760730D02*
X640260D01*
X647700Y768170D01*
Y778690D01*
X635000Y798830D02*
X636668Y797162D01*
Y789106D02*
X639644Y786130D01*
X640260D02*
X647700Y778690D01*
X636668Y789106D02*
Y797162D01*
X639644Y786130D02*
X640260D01*
X647700Y793570D02*
Y811530D01*
X637540Y821690D02*
X647700Y811530D01*
Y793570D02*
X655140Y786130D01*
X228859Y848360D02*
Y849371D01*
X212090Y866140D02*
X228859Y849371D01*
X212090Y985520D02*
X219710Y993140D01*
D11*
X548720Y912647D02*
Y917579D01*
X547280Y919019D02*
X548720Y917579D01*
X555496Y947926D02*
X572770Y965200D01*
X555496Y913538D02*
Y947926D01*
X538401Y911781D02*
Y913529D01*
X545336Y927100D02*
X547280Y925156D01*
X552748Y910789D02*
X555496Y913538D01*
X528182Y901562D02*
X538401Y911781D01*
X547280Y919019D02*
Y925156D01*
X552748Y861358D02*
Y910789D01*
X423128Y965200D02*
X498883D01*
X499489Y964594D01*
X601225Y960635D02*
X601980Y961390D01*
X601225Y943828D02*
Y960635D01*
X602713Y942340D02*
X689392D01*
X601225Y943828D02*
X602713Y942340D01*
X413622Y910590D02*
X479618D01*
X390728Y933484D02*
X413622Y910590D01*
X479618D02*
X499110Y891098D01*
X414629Y905510D02*
X469900D01*
X501650Y873760D01*
X411052Y901933D02*
X414629Y905510D01*
X618490Y881380D02*
Y895195D01*
X568960Y840740D02*
X577850D01*
X618490Y881380D01*
X640606Y897902D02*
Y902752D01*
X570156Y827451D02*
X640606Y897902D01*
X379730Y733875D02*
Y858311D01*
X365760Y859594D02*
X370655Y854699D01*
Y708224D02*
Y854699D01*
X379730Y733875D02*
X380815Y732790D01*
X372143Y692532D02*
Y706736D01*
X391160Y724059D02*
Y777638D01*
X370655Y708224D02*
X372143Y706736D01*
X377864Y860177D02*
X379730Y858311D01*
X391160Y724059D02*
X396240Y718979D01*
X391160Y777638D02*
X404918Y791396D01*
X232529Y809454D02*
X295184Y746799D01*
X302221D01*
X304165Y744855D01*
X453986Y860464D02*
X455930Y858520D01*
X444500Y862010D02*
X446046Y860464D01*
X426618Y862010D02*
X444500D01*
X446046Y860464D02*
X453986D01*
X464943Y864274D02*
X469226D01*
X417210Y884540D02*
X444677D01*
X464943Y864274D01*
X469226D02*
X471170Y862330D01*
X534670Y843280D02*
X552748Y861358D01*
X375920Y867046D02*
X377864Y865102D01*
Y860177D02*
Y865102D01*
X355600Y832684D02*
X363220Y825064D01*
X355600Y890144D02*
X356004Y890548D01*
X355600Y832684D02*
Y890144D01*
X365760Y859594D02*
Y878840D01*
X366384Y905976D02*
X366953Y906545D01*
X344234Y905976D02*
X366384D01*
X345440Y754114D02*
X363220Y771894D01*
Y825064D01*
X616022Y897663D02*
X618490Y895195D01*
X616022Y897663D02*
Y911687D01*
X566420Y860108D02*
Y896620D01*
X565843Y859531D02*
X566420Y860108D01*
X637540Y862330D02*
X639208D01*
X685800Y815738D01*
Y753418D02*
Y815738D01*
X360172Y639395D02*
Y666242D01*
X367665Y673735D02*
Y688054D01*
X360172Y666242D02*
X367665Y673735D01*
Y688054D02*
X372143Y692532D01*
X345440Y526500D02*
Y754114D01*
X396240Y665400D02*
Y718979D01*
X322500Y503560D02*
X345440Y526500D01*
X373061Y642221D02*
X396240Y665400D01*
X360172Y639395D02*
X377500Y622067D01*
X461063Y727657D02*
X564580D01*
X483870Y739140D02*
X659964D01*
X564580Y727657D02*
X568443Y731520D01*
X445770Y782320D02*
X455930Y792480D01*
X401320Y726095D02*
Y773430D01*
Y726095D02*
X421640Y705775D01*
X404918Y791396D02*
X407670D01*
X424180Y807906D01*
Y859572D01*
X421640Y694690D02*
Y705775D01*
X414020Y887730D02*
X417210Y884540D01*
X471170Y850900D02*
Y862330D01*
X414020Y887730D02*
Y895141D01*
Y848360D02*
Y887730D01*
X470801Y834833D02*
Y836163D01*
Y834833D02*
X528394Y777240D01*
X285750Y779854D02*
Y869461D01*
X540634Y899645D02*
X548640Y907652D01*
Y912567D02*
X548720Y912647D01*
X548640Y907652D02*
Y912567D01*
X689392Y942340D02*
X690880Y940852D01*
Y753110D02*
Y940852D01*
X606070Y668300D02*
X690880Y753110D01*
X602260Y669878D02*
X685800Y753418D01*
X678180Y757356D02*
Y781050D01*
X659964Y739140D02*
X678180Y757356D01*
X657732Y731520D02*
X681990Y755778D01*
Y802640D01*
X119990Y732790D02*
X292100D01*
X487598Y936072D02*
X492899Y930771D01*
X487598Y936072D02*
X491190Y939665D01*
X485802Y945053D02*
X491190Y939665D01*
X478617Y937868D02*
X485802Y945053D01*
X473229Y943257D02*
X478617Y937868D01*
X473229Y943257D02*
X480413Y950441D01*
X475025Y955829D02*
X480413Y950441D01*
X471433Y952237D02*
X475025Y955829D01*
X470535Y953135D02*
X471433Y952237D01*
X492899Y930771D02*
X513080Y910590D01*
X468630Y955040D02*
X470535Y953135D01*
X640080Y664210D02*
Y680720D01*
X694400Y659130D02*
X698246Y655284D01*
X640080Y664210D02*
X645160Y659130D01*
X694400D01*
X698246Y28806D02*
Y655284D01*
X606070Y341630D02*
Y668300D01*
X602260Y340052D02*
Y669878D01*
X606070Y341630D02*
X609880Y337820D01*
X602260Y340052D02*
X606070Y336242D01*
Y220690D02*
Y336242D01*
Y220690D02*
X617500Y209260D01*
X609880Y337820D02*
X652040D01*
X682500Y307360D01*
X421640Y694690D02*
X453930Y662400D01*
Y416890D02*
Y662400D01*
X442500Y405460D02*
X453930Y416890D01*
X377500Y601660D02*
Y622067D01*
X617500Y601660D02*
X682500D01*
X497500D02*
X562500D01*
X377500D02*
X442500D01*
X257500D02*
X322500D01*
X137500D02*
X202500D01*
X17500D02*
X82500D01*
X17500Y503560D02*
X82500D01*
X137500D02*
X202500D01*
X257500D02*
X322500D01*
X377500D02*
X442500D01*
X497500D02*
X562500D01*
X617500D02*
X682500D01*
X617500Y405460D02*
X682500D01*
X497500D02*
X562500D01*
X377500D02*
X442500D01*
X257500D02*
X322500D01*
X77500D02*
X142500D01*
X17500Y307360D02*
X82500D01*
X167500D02*
X232500D01*
X317500D02*
X382500D01*
X467500D02*
X532500D01*
X617500D02*
X682500D01*
X617500Y209260D02*
X682500D01*
X467500D02*
X532500D01*
X317500D02*
X382500D01*
X167500D02*
X232500D01*
X17500D02*
X82500D01*
X17500Y111160D02*
X82500D01*
X167500D02*
X232500D01*
X317500D02*
X382500D01*
X467500D02*
X532500D01*
X617500D02*
X682500D01*
Y13060D02*
X698246Y28806D01*
X17500Y646660D02*
X33860D01*
X119990Y732790D01*
X577850Y721360D02*
X638810D01*
X467360Y817880D02*
X496570Y788670D01*
Y774700D02*
Y788670D01*
X455930Y792480D02*
Y835660D01*
X471170Y850900D01*
X528394Y777240D02*
X529590D01*
Y770890D02*
Y777240D01*
X443230Y752764D02*
Y754380D01*
X429744Y698636D02*
X431530Y700422D01*
X432490Y701382D01*
X424180Y859572D02*
X426618Y862010D01*
X342160Y908050D02*
X344234Y905976D01*
X494030Y868680D02*
X530860D01*
X540634Y878454D01*
X565150Y897890D02*
Y907277D01*
X540634Y878454D02*
Y899645D01*
X565150Y897890D02*
X566420Y896620D01*
X564377Y908050D02*
X565150Y907277D01*
X524510Y873760D02*
X528182Y877432D01*
X501650Y873760D02*
X524510D01*
X528182Y877432D02*
Y901562D01*
X514946Y892214D02*
X516890Y890270D01*
X408940Y900221D02*
Y901933D01*
X408303D02*
X411052D01*
X660400Y824230D02*
X681990Y802640D01*
X660400Y798830D02*
X678180Y781050D01*
X420370Y962442D02*
X423128Y965200D01*
X420370Y953372D02*
Y962442D01*
Y953372D02*
X451714Y922028D01*
X461010D01*
X514946Y892214D02*
Y899834D01*
X513080Y901700D02*
Y910590D01*
X232410Y701040D02*
X234604Y703234D01*
X354326Y933484D02*
X390728D01*
X464790Y955040D02*
X468630D01*
X433070D02*
X439420D01*
X513080Y901700D02*
X514946Y899834D01*
X401357Y911152D02*
Y912785D01*
X390852Y923290D02*
X401357Y912785D01*
X316230Y923290D02*
X390852D01*
X401357Y911152D02*
X408303Y904206D01*
Y901933D02*
Y904206D01*
X461037Y727683D02*
X461063Y727657D01*
X568443Y731520D02*
X657732D01*
X635000Y824230D02*
X637540Y821690D01*
X408940Y900221D02*
X414020Y895141D01*
X285010Y775230D02*
Y779113D01*
X285750Y869461D02*
X324339Y908050D01*
X285010Y779113D02*
X285750Y779854D01*
X276687Y883747D02*
X316230Y923290D01*
X274493Y883747D02*
X276687D01*
X324339Y908050D02*
X342160D01*
X266560Y744360D02*
X266700Y744220D01*
X455930Y955040D02*
X464790D01*
X455930Y948765D02*
Y955040D01*
X448310Y948765D02*
X455930D01*
X448310D02*
Y955040D01*
X439420D02*
X448310D01*
D20*
X107202Y744360D02*
D03*
X76202D02*
D03*
X107202Y952360D02*
D03*
X76202D02*
D03*
D24*
X285010Y775230D02*
X286954Y773286D01*
X341577Y775971D02*
X352928D01*
X338892Y773286D02*
X341577Y775971D01*
X352252Y792018D02*
X353060Y791210D01*
X298450Y792018D02*
X352252D01*
X286954Y773286D02*
X338892D01*
X283066D02*
X285010Y775230D01*
X107202Y744360D02*
X266560D01*
D25*
X156210Y701040D02*
D03*
X588010D02*
D03*
X562610D02*
D03*
X537210D02*
D03*
X461010D02*
D03*
X435610D02*
D03*
X410210D02*
D03*
X384810D02*
D03*
X334010D02*
D03*
X308610D02*
D03*
X257810D02*
D03*
X283210D02*
D03*
X232410D02*
D03*
X207010D02*
D03*
X181610D02*
D03*
X105410D02*
D03*
X105860Y980440D02*
D03*
X131260D02*
D03*
X562160D02*
D03*
X587560D02*
D03*
X486410Y701040D02*
D03*
X511810D02*
D03*
X130810D02*
D03*
X359410D02*
D03*
X635000Y824230D02*
D03*
Y798830D02*
D03*
Y773430D02*
D03*
X660400Y824230D02*
D03*
Y798830D02*
D03*
Y773430D02*
D03*
X617500Y58060D02*
D03*
Y13060D02*
D03*
X682500Y58060D02*
D03*
Y13060D02*
D03*
X467500Y58060D02*
D03*
Y13060D02*
D03*
X532500Y58060D02*
D03*
Y13060D02*
D03*
X317500Y58060D02*
D03*
Y13060D02*
D03*
X382500Y58060D02*
D03*
Y13060D02*
D03*
X167500Y58060D02*
D03*
Y13060D02*
D03*
X232500Y58060D02*
D03*
Y13060D02*
D03*
X17500Y58060D02*
D03*
Y13060D02*
D03*
X82500Y58060D02*
D03*
Y13060D02*
D03*
X17500Y156160D02*
D03*
Y111160D02*
D03*
X82500Y156160D02*
D03*
Y111160D02*
D03*
X167500Y156160D02*
D03*
Y111160D02*
D03*
X232500Y156160D02*
D03*
Y111160D02*
D03*
X317500Y156160D02*
D03*
Y111160D02*
D03*
X382500Y156160D02*
D03*
Y111160D02*
D03*
X467500Y156160D02*
D03*
Y111160D02*
D03*
X532500Y156160D02*
D03*
Y111160D02*
D03*
X617500Y156160D02*
D03*
Y111160D02*
D03*
X682500Y156160D02*
D03*
Y111160D02*
D03*
X617500Y254260D02*
D03*
Y209260D02*
D03*
X682500Y254260D02*
D03*
Y209260D02*
D03*
X467500Y254260D02*
D03*
Y209260D02*
D03*
X532500Y254260D02*
D03*
Y209260D02*
D03*
X317500Y254260D02*
D03*
Y209260D02*
D03*
X382500Y254260D02*
D03*
Y209260D02*
D03*
X167500Y254260D02*
D03*
Y209260D02*
D03*
X232500Y254260D02*
D03*
Y209260D02*
D03*
X17500Y254260D02*
D03*
Y209260D02*
D03*
X82500Y254260D02*
D03*
Y209260D02*
D03*
X17500Y352360D02*
D03*
Y307360D02*
D03*
X82500Y352360D02*
D03*
Y307360D02*
D03*
X167500Y352360D02*
D03*
Y307360D02*
D03*
X232500Y352360D02*
D03*
Y307360D02*
D03*
X317500Y352360D02*
D03*
Y307360D02*
D03*
X382500Y352360D02*
D03*
Y307360D02*
D03*
X467500Y352360D02*
D03*
Y307360D02*
D03*
X532500Y352360D02*
D03*
Y307360D02*
D03*
X617500Y352360D02*
D03*
Y307360D02*
D03*
X682500Y352360D02*
D03*
Y307360D02*
D03*
X617500Y450460D02*
D03*
Y405460D02*
D03*
X682500Y450460D02*
D03*
Y405460D02*
D03*
X497500Y450460D02*
D03*
Y405460D02*
D03*
X562500Y450460D02*
D03*
Y405460D02*
D03*
X377500Y450460D02*
D03*
Y405460D02*
D03*
X442500Y450460D02*
D03*
Y405460D02*
D03*
X257500Y450460D02*
D03*
Y405460D02*
D03*
X322500Y450460D02*
D03*
Y405460D02*
D03*
X77500Y450460D02*
D03*
Y405460D02*
D03*
X142500Y450460D02*
D03*
Y405460D02*
D03*
X17500Y548560D02*
D03*
Y503560D02*
D03*
X82500Y548560D02*
D03*
Y503560D02*
D03*
X137500Y548560D02*
D03*
Y503560D02*
D03*
X202500Y548560D02*
D03*
Y503560D02*
D03*
X257500Y548560D02*
D03*
Y503560D02*
D03*
X322500Y548560D02*
D03*
Y503560D02*
D03*
X377500Y548560D02*
D03*
Y503560D02*
D03*
X442500Y548560D02*
D03*
Y503560D02*
D03*
X497500Y548560D02*
D03*
Y503560D02*
D03*
X562500Y548560D02*
D03*
Y503560D02*
D03*
X617500Y548560D02*
D03*
Y503560D02*
D03*
X682500Y548560D02*
D03*
Y503560D02*
D03*
X617500Y646660D02*
D03*
Y601660D02*
D03*
X682500Y646660D02*
D03*
Y601660D02*
D03*
X497500Y646660D02*
D03*
Y601660D02*
D03*
X562500Y646660D02*
D03*
Y601660D02*
D03*
X377500Y646660D02*
D03*
Y601660D02*
D03*
X442500Y646660D02*
D03*
Y601660D02*
D03*
X257500Y646660D02*
D03*
Y601660D02*
D03*
X322500Y646660D02*
D03*
Y601660D02*
D03*
X137500Y646660D02*
D03*
Y601660D02*
D03*
X202500Y646660D02*
D03*
Y601660D02*
D03*
X17500Y646660D02*
D03*
Y601660D02*
D03*
X82500Y646660D02*
D03*
Y601660D02*
D03*
X562610Y770890D02*
D03*
D26*
X545336Y927100D02*
D03*
X565656Y942340D02*
D03*
X538401Y913529D02*
D03*
X499489Y964594D02*
D03*
X593251Y918210D02*
D03*
X601980Y961390D02*
D03*
X416560Y923290D02*
D03*
X608330Y887730D02*
D03*
X380815Y732790D02*
D03*
X232529Y809454D02*
D03*
X182880Y941324D02*
D03*
X455930Y858520D02*
D03*
X534160Y842691D02*
D03*
X572770Y965200D02*
D03*
X375920Y867046D02*
D03*
X365760Y878840D02*
D03*
X356004Y890548D02*
D03*
X366953Y906545D02*
D03*
X616022Y911687D02*
D03*
X642620Y909320D02*
D03*
X631190Y955040D02*
D03*
X637540Y862330D02*
D03*
X565843Y859531D02*
D03*
X349250Y966470D02*
D03*
X448310Y716280D02*
D03*
X439420Y762000D02*
D03*
X479499Y737817D02*
D03*
X457066Y748046D02*
D03*
X445770Y782320D02*
D03*
X311150Y762000D02*
D03*
X523240Y821690D02*
D03*
X500380Y848360D02*
D03*
X31750Y965200D02*
D03*
X49530Y728980D02*
D03*
X276860Y925830D02*
D03*
X655320Y873760D02*
D03*
X579120Y812800D02*
D03*
X556260Y789940D02*
D03*
X356870Y748030D02*
D03*
X414020Y739140D02*
D03*
X402590Y817880D02*
D03*
X417830Y775970D02*
D03*
X401320Y773430D02*
D03*
X470801Y836163D02*
D03*
X353060Y791210D02*
D03*
X304165Y744855D02*
D03*
X292100Y732790D02*
D03*
X640080Y680720D02*
D03*
X638810Y721360D02*
D03*
X496570Y774700D02*
D03*
X467360Y817880D02*
D03*
X529842Y774597D02*
D03*
X352928Y775971D02*
D03*
X471170Y862330D02*
D03*
X491490Y866140D02*
D03*
X564377Y908050D02*
D03*
X516890Y890270D02*
D03*
X499110Y891098D02*
D03*
X577850Y749300D02*
D03*
Y721360D02*
D03*
X298450Y792018D02*
D03*
X461010Y922028D02*
D03*
X570156Y827451D02*
D03*
X566403Y842222D02*
D03*
X508891Y948184D02*
D03*
X408303Y901933D02*
D03*
X354326Y933484D02*
D03*
X433070Y955040D02*
D03*
X461037Y727683D02*
D03*
X414020Y848360D02*
D03*
X265400Y847258D02*
D03*
X228859Y848360D02*
D03*
X274493Y883747D02*
D03*
X283066Y773286D02*
D03*
X269240Y745490D02*
D03*
D27*
X30000Y700000D02*
D03*
X670000D02*
D03*
M02*
