G04*
G04 #@! TF.GenerationSoftware,Altium Limited,Altium Designer,24.6.1 (21)*
G04*
G04 Layer_Color=8388736*
%FSLAX44Y44*%
%MOMM*%
G71*
G04*
G04 #@! TF.SameCoordinates,5BE53EBA-B956-4ED2-84AC-37ABD98E17FE*
G04*
G04*
G04 #@! TF.FilePolarity,Negative*
G04*
G01*
G75*
%ADD12C,1.7272*%
%ADD13C,2.3114*%
%ADD14C,1.4732*%
D12*
X660400Y773430D02*
D03*
Y798830D02*
D03*
Y824230D02*
D03*
X635000Y773430D02*
D03*
Y798830D02*
D03*
Y824230D02*
D03*
X156210Y701040D02*
D03*
X588010D02*
D03*
X562610D02*
D03*
X537210D02*
D03*
X461010D02*
D03*
X435610D02*
D03*
X410210D02*
D03*
X384810D02*
D03*
X334010D02*
D03*
X308610D02*
D03*
X257810D02*
D03*
X283210D02*
D03*
X232410D02*
D03*
X207010D02*
D03*
X181610D02*
D03*
X105410D02*
D03*
X105860Y980440D02*
D03*
X131260D02*
D03*
X562160D02*
D03*
X587560D02*
D03*
X486410Y701040D02*
D03*
X511810D02*
D03*
X130810D02*
D03*
X359410D02*
D03*
X17272Y253350D02*
D03*
X16002Y210170D02*
D03*
X93472Y253350D02*
D03*
X94742Y210170D02*
D03*
X607112Y155250D02*
D03*
X605842Y112070D02*
D03*
X683312Y155250D02*
D03*
X684582Y112070D02*
D03*
X459652Y155250D02*
D03*
X458382Y112070D02*
D03*
X535852Y155250D02*
D03*
X537122Y112070D02*
D03*
X312192Y155250D02*
D03*
X310922Y112070D02*
D03*
X388392Y155250D02*
D03*
X389662Y112070D02*
D03*
X164732Y155250D02*
D03*
X163462Y112070D02*
D03*
X240932Y155250D02*
D03*
X242202Y112070D02*
D03*
X17272Y155250D02*
D03*
X16002Y112070D02*
D03*
X93472Y155250D02*
D03*
X94742Y112070D02*
D03*
X607112Y253350D02*
D03*
X605842Y210170D02*
D03*
X683312Y253350D02*
D03*
X684582Y210170D02*
D03*
X459652Y253350D02*
D03*
X458382Y210170D02*
D03*
X535852Y253350D02*
D03*
X537122Y210170D02*
D03*
X312192Y253350D02*
D03*
X310922Y210170D02*
D03*
X388392Y253350D02*
D03*
X389662Y210170D02*
D03*
X164732Y253350D02*
D03*
X163462Y210170D02*
D03*
X240932Y253350D02*
D03*
X242202Y210170D02*
D03*
X607112Y351450D02*
D03*
X605842Y308270D02*
D03*
X683312Y351450D02*
D03*
X684582Y308270D02*
D03*
X459652Y351450D02*
D03*
X458382Y308270D02*
D03*
X535852Y351450D02*
D03*
X537122Y308270D02*
D03*
X312192Y351450D02*
D03*
X310922Y308270D02*
D03*
X388392Y351450D02*
D03*
X389662Y308270D02*
D03*
X164732Y351450D02*
D03*
X163462Y308270D02*
D03*
X240932Y351450D02*
D03*
X242202Y308270D02*
D03*
X17272Y351450D02*
D03*
X16002Y308270D02*
D03*
X93472Y351450D02*
D03*
X94742Y308270D02*
D03*
X608076Y449550D02*
D03*
X606806Y406370D02*
D03*
X684276Y449550D02*
D03*
X685546Y406370D02*
D03*
X486664Y449550D02*
D03*
X485394Y406370D02*
D03*
X562864Y449550D02*
D03*
X564134Y406370D02*
D03*
X365252Y449550D02*
D03*
X363982Y406370D02*
D03*
X441452Y449550D02*
D03*
X442722Y406370D02*
D03*
X243840Y449550D02*
D03*
X242570Y406370D02*
D03*
X320040Y449550D02*
D03*
X321310Y406370D02*
D03*
X65532Y449550D02*
D03*
X64262Y406370D02*
D03*
X141732Y449550D02*
D03*
X143002Y406370D02*
D03*
X609346Y553720D02*
D03*
X608076Y510540D02*
D03*
X685546Y553720D02*
D03*
X686816Y510540D02*
D03*
X490474Y553720D02*
D03*
X489204Y510540D02*
D03*
X566674Y553720D02*
D03*
X567944Y510540D02*
D03*
X371602Y553720D02*
D03*
X370332Y510540D02*
D03*
X447802Y553720D02*
D03*
X449072Y510540D02*
D03*
X252730Y553720D02*
D03*
X251460Y510540D02*
D03*
X328930Y553720D02*
D03*
X330200Y510540D02*
D03*
X133858Y553720D02*
D03*
X132588Y510540D02*
D03*
X210058Y553720D02*
D03*
X211328Y510540D02*
D03*
X17526Y553720D02*
D03*
X16256Y510540D02*
D03*
X93726Y553720D02*
D03*
X94996Y510540D02*
D03*
X609346Y651820D02*
D03*
X608076Y608640D02*
D03*
X685546Y651820D02*
D03*
X686816Y608640D02*
D03*
X490474Y651820D02*
D03*
X489204Y608640D02*
D03*
X566674Y651820D02*
D03*
X567944Y608640D02*
D03*
X371602Y651820D02*
D03*
X370332Y608640D02*
D03*
X447802Y651820D02*
D03*
X449072Y608640D02*
D03*
X252730Y651820D02*
D03*
X251460Y608640D02*
D03*
X328930Y651820D02*
D03*
X330200Y608640D02*
D03*
X133858Y651820D02*
D03*
X132588Y608640D02*
D03*
X210058Y651820D02*
D03*
X211328Y608640D02*
D03*
X17526Y651820D02*
D03*
X16256Y608640D02*
D03*
X93726Y651820D02*
D03*
X94996Y608640D02*
D03*
X17272Y57150D02*
D03*
X16002Y13970D02*
D03*
X93472Y57150D02*
D03*
X94742Y13970D02*
D03*
X459652Y57150D02*
D03*
X458382Y13970D02*
D03*
X535852Y57150D02*
D03*
X537122Y13970D02*
D03*
X312192Y57150D02*
D03*
X310922Y13970D02*
D03*
X388392Y57150D02*
D03*
X389662Y13970D02*
D03*
X164732Y57150D02*
D03*
X163462Y13970D02*
D03*
X240932Y57150D02*
D03*
X242202Y13970D02*
D03*
X607112Y57150D02*
D03*
X605842Y13970D02*
D03*
X683312Y57150D02*
D03*
X684582Y13970D02*
D03*
D13*
X76202Y952360D02*
D03*
X107202D02*
D03*
X76202Y744360D02*
D03*
X107202D02*
D03*
D14*
X461037Y727683D02*
D03*
X577850Y721360D02*
D03*
Y749300D02*
D03*
X479499Y737817D02*
D03*
X455930Y749300D02*
D03*
X541020Y914400D02*
D03*
X417830Y920750D02*
D03*
X519404Y811622D02*
D03*
X570156Y827451D02*
D03*
X566403Y842222D02*
D03*
X414020Y848360D02*
D03*
X342010Y971493D02*
D03*
X265400Y847258D02*
D03*
X228859Y848360D02*
D03*
X201943Y810247D02*
D03*
X408940Y902970D02*
D03*
X513080Y891540D02*
D03*
X433070Y955040D02*
D03*
X590550Y943610D02*
D03*
X515620Y939800D02*
D03*
X580390Y811530D02*
D03*
X232529Y809454D02*
D03*
X274493Y883747D02*
D03*
X368300Y905510D02*
D03*
X400050Y872490D02*
D03*
X298450Y787400D02*
D03*
X283066Y773286D02*
D03*
X408940Y808990D02*
D03*
X269240Y745490D02*
D03*
X218440Y942340D02*
D03*
X631190Y955040D02*
D03*
X590550Y923290D02*
D03*
X298450Y732790D02*
D03*
M02*
